<svg width="1679" height="939" viewBox="0 0 1679 939" fill="none" xmlns="http://www.w3.org/2000/svg">
<g opacity="0.3">
<g style="mix-blend-mode:multiply">
<path d="M1149.11 150.865L1149.11 150.864C1149.58 150.535 1150.03 150.215 1150.46 149.913C1151.96 148.851 1153.16 148 1153.77 147.66C1153.77 147.659 1153.78 147.657 1153.78 147.656L1156.26 146.253L1156.69 143.983L1156.69 143.982C1156.78 143.477 1156.86 143.044 1156.81 142.444C1156.75 141.837 1156.55 140.976 1155.94 139.725C1154.7 137.187 1151.89 133.214 1145.71 126.776C1145.71 126.776 1145.71 126.775 1145.71 126.775C1145.71 126.775 1145.71 126.775 1145.71 126.775L1143.1 124.064L1140.03 126.295L1140.03 126.298C1139.69 126.54 1131.97 132.178 1127.82 135.921C1127.16 136.517 1126.02 137.14 1124.8 137.733C1123.51 138.352 1121.95 139.022 1120.31 139.689C1117.03 141.022 1113.35 142.371 1110.8 143.305C1107.33 144.582 1104.24 145.723 1102.22 146.613L1102.21 146.615C1098.35 148.302 1089.81 150.845 1084.16 152.432L1083.1 152.728L1082.5 151.814C1077.45 144.165 1065.47 126.666 1056.42 118.172C1053.93 115.828 1051.83 114.324 1049.99 113.478C1045.04 111.204 1037.46 106.459 1031.57 100.932C1028.65 98.191 1026.67 95.7375 1025.43 93.6579C1024.22 91.6274 1023.62 89.7824 1023.75 88.3134C1023.87 86.9866 1024.47 85.1493 1025.27 83.1059C1026.1 81.0144 1027.22 78.549 1028.49 75.9041C1031.04 70.6136 1034.25 64.5193 1037.1 59.116L1149.11 150.865ZM1149.11 150.865L1149.07 150.897C1145.39 153.493 1140.81 156.72 1136.1 159.648C1131.36 162.599 1126.58 165.19 1122.51 166.537L1122.51 166.538C1118.11 167.994 1115.07 169.59 1112.65 171.35C1110.25 173.092 1108.51 174.963 1106.76 176.853L1106.74 176.875L1149.11 150.865ZM930.143 325.14L930.413 325.928L930.439 326.004C933.316 334.311 936.288 342.892 940.835 347.162C944.18 350.305 948.352 351.118 952.249 349.404C955.532 347.969 960.611 343.286 973.231 331.254C984.678 320.335 1000.36 305.379 1008.02 301.4C1020.95 294.676 1037.83 273.004 1046.9 261.349L930.143 325.14ZM930.143 325.14C928.503 320.409 923.792 313.896 918.801 307.003M930.143 325.14L918.801 307.003M918.801 307.003L918.754 306.938C913.262 299.345 907.589 291.502 903.974 283.483C900.706 276.249 896.447 272.913 890.654 269.388L890.614 269.364C887.495 267.458 883.972 265.306 880.387 261.939C877.121 258.872 871.066 257.992 865.215 257.143L918.801 307.003ZM1037.17 58.9993L1037.1 59.115L865.43 255.658C861.678 255.111 857.969 254.53 854.676 253.395C851.401 252.266 848.659 250.629 846.759 248.051L846.758 248.05C844.267 244.675 844.029 240.035 845.622 233.767C847.212 227.516 850.524 220.028 854.618 211.271L854.619 211.269L854.875 210.72C856.88 206.421 858.837 202.224 859.497 199.854C860.782 195.271 863.39 190.422 866.466 185.724C869.532 181.041 873.004 176.596 875.974 172.794L875.984 172.78L875.985 172.779L877.648 170.647L877.65 170.644C879.129 168.736 882.252 165.578 886.297 161.791C890.314 158.029 895.164 153.717 900.036 149.524C909.831 141.093 919.551 133.286 922.784 131.339L922.786 131.338C925.208 129.876 928.346 126.782 931.281 123.288C934.244 119.761 937.135 115.664 939.029 112.066L939.029 112.065C940.031 110.161 942.413 106.913 945.604 102.964C948.765 99.0508 952.637 94.5501 956.536 90.1786C960.434 85.8079 964.351 81.5768 967.599 78.2043C970.882 74.7955 973.399 72.3531 974.536 71.4812L974.539 71.4788C975.525 70.7194 977.346 69.3745 979.66 67.6722C982.996 65.2186 988.146 61.4283 992.868 57.8204C997.539 54.2515 1001.93 50.7535 1003.65 48.9249C1005.92 46.5081 1012.48 38.8725 1018.47 31.8536C1021.47 28.3345 1024.34 24.9567 1026.47 22.4429C1027.53 21.1859 1028.41 20.1449 1029.04 19.4101L1029.76 18.5491L1029.97 18.3123L1030.02 18.2465L1030.04 18.2278L1030.04 18.2219L1030.04 18.2217L1030.04 18.2218L1030.05 18.214L1031.67 16.2971L1054.05 20.1626L1052.93 24.6675C1052.93 24.6679 1052.93 24.6682 1052.93 24.6686C1051.89 28.8077 1049.65 34.1687 1046.79 40.1672C1043.95 46.1115 1040.54 52.5901 1037.17 58.9993ZM865.469 255.664L865.431 255.659L1051.28 255.81C1050.3 256.977 1048.8 258.906 1046.91 261.332L1045.73 260.411L1045.73 260.412L1045.73 260.415C1041.19 266.244 1034.73 274.536 1027.8 282.207C1020.84 289.921 1013.54 296.841 1007.32 300.069L1007.32 300.069C1003.31 302.159 997.337 307.022 991.051 312.603C984.718 318.225 977.916 324.713 972.196 330.168C965.88 336.19 961.48 340.345 958.25 343.175C954.989 346.032 953.053 347.415 951.648 348.029L951.645 348.031C948.349 349.48 944.811 348.839 941.862 346.069C939.801 344.134 938.015 341.127 936.364 337.449C934.727 333.801 933.287 329.644 931.844 325.476L931.832 325.443L931.83 325.437L931.563 324.654L931.56 324.648C930.678 322.102 929.006 319.165 926.986 316.063C924.955 312.945 922.506 309.562 920.016 306.123C914.488 298.48 908.892 290.742 905.341 282.866L905.341 282.865C901.898 275.245 897.356 271.71 891.433 268.106L891.428 268.103C888.298 266.191 884.885 264.107 881.414 260.846C879.513 259.061 876.899 257.993 874.158 257.26C871.416 256.527 868.363 256.084 865.469 255.664Z" stroke="#FFF4CC" stroke-width="3"/>
</g>
<g style="mix-blend-mode:multiply">
<path d="M1594.29 498.09L1594.29 498.09C1653.76 456.737 1661.12 400.469 1638.3 367.653L1638.3 367.652C1638.3 367.653 1638.27 367.613 1638.21 367.531C1638.01 367.275 1637.49 366.609 1636.64 365.523C1635.54 364.131 1633.96 362.109 1631.95 359.548C1627.93 354.425 1622.22 347.145 1615.37 338.428C1601.68 320.994 1583.47 297.812 1565.28 274.653C1547.08 251.493 1528.9 228.355 1515.27 211.007C1508.46 202.333 1502.78 195.107 1498.81 190.049L1494.19 184.178L1492.98 182.632L1492.67 182.235L1492.59 182.135L1492.58 182.119C1492.57 182.116 1492.57 182.113 1492.57 182.11C1475.47 161.024 1447.24 155.093 1427.83 168.595L1407.63 182.645C1397.9 189.406 1391.63 201.691 1389.74 214.46C1387.84 227.244 1390.39 240.118 1397.77 248.097C1403.17 253.925 1415.59 268.879 1430.24 290.249C1431.51 283.198 1433.72 276.377 1437.04 269.95L1437.04 269.946C1437.86 268.385 1439.01 267.096 1440.37 266.148L1594.29 498.09ZM1594.29 498.09C1584.87 504.635 1572.58 508.75 1558.26 503.725C1543.84 498.669 1527.06 484.256 1509 452.943L1509 452.943L1509 452.943L1509 452.941L1508.99 452.935L1508.98 452.906C1508.96 452.881 1508.94 452.841 1508.91 452.789C1508.85 452.683 1508.76 452.525 1508.65 452.315C1508.41 451.897 1508.07 451.275 1507.65 450.469C1506.79 448.857 1505.59 446.512 1504.21 443.586C1501.45 437.732 1497.98 429.572 1495.12 420.341L1495.12 420.34C1493.37 414.7 1491.48 409.13 1489.5 403.637M1594.29 498.09L1489.5 403.637M1489.5 403.637C1507.08 415.53 1526.93 423.77 1546.93 426.741L1546.93 426.741C1548.05 426.907 1549.15 426.878 1550.2 426.698L1559.21 439.655C1559.21 439.655 1559.21 439.655 1559.21 439.655C1561.36 442.755 1565.84 442.727 1568.98 440.548C1572.12 438.37 1573.7 434.178 1571.55 431.078L1571.55 431.078L1561.02 415.94C1566.21 409.668 1570.09 396.499 1564.72 362.978M1489.5 403.637L1492.25 230.082C1494.97 228.192 1498.54 227.605 1501.89 228.838L1501.89 228.838C1510.4 231.97 1518.16 239.79 1525.07 250.032C1532.01 260.313 1538.23 273.235 1543.6 286.876C1554.34 314.159 1561.77 344.54 1564.72 362.978M1564.72 362.978C1564.72 362.978 1564.72 362.978 1564.72 362.978L1563.24 363.215L1564.72 362.978ZM1544.99 402.311C1544.93 402.356 1544.86 402.409 1544.78 402.469C1544.47 402.703 1544.02 403.047 1543.51 403.445C1543.12 403.744 1542.72 404.059 1542.39 404.334C1542.34 404.372 1542.3 404.411 1542.25 404.452C1513.54 397.886 1485.86 378.961 1468.13 354.226C1463.74 345.499 1459.23 337.132 1454.68 329.18C1448.06 311.116 1448.37 293.853 1455.75 279.622L1455.75 279.62C1458.41 274.459 1456.39 268.111 1451.23 265.436L1451.23 265.434C1447.64 263.58 1443.47 263.987 1440.37 266.147L1544.99 402.311ZM1495.15 247.185C1490.47 245.466 1488.07 240.275 1489.79 235.602L1495.15 247.185Z" stroke="#FFF4CC" stroke-width="3"/>
</g>
<g style="mix-blend-mode:multiply">
<g style="mix-blend-mode:multiply">
<path d="M1128.19 346.838L1167.77 330.305L1176.44 351.063L1136.86 367.596L1128.19 346.838Z" stroke="#FFF4CC" stroke-width="3"/>
</g>
<g style="mix-blend-mode:multiply">
<path d="M1282.26 433.504C1281.03 436.492 1278.71 438.701 1275.95 439.854C1273.19 441.007 1269.98 441.108 1266.99 439.88L1282.26 433.504ZM1282.26 433.504C1284.71 427.526 1281.86 420.695 1275.88 418.239L1215.85 393.581M1282.26 433.504L1266.99 439.879L1206.96 415.221C1200.98 412.766 1198.13 405.935 1200.58 399.958C1203.03 393.981 1209.87 391.124 1215.85 393.581M1215.85 393.581L1215.28 394.967L1215.85 393.581L1215.85 393.581ZM1218.18 365.931L1218.75 364.543L1218.18 365.931L1286.98 394.188C1296.62 398.148 1304.29 405.774 1308.31 415.39L1360.76 540.955C1369.13 560.98 1359.67 583.994 1339.65 592.358L1253.48 628.353C1233.52 636.687 1211.95 626.721 1203.55 606.623L1126.9 423.119C1120.71 408.292 1127.71 391.251 1142.53 385.058L1188.11 366.021C1197.72 362.004 1208.54 361.972 1218.18 365.931Z" stroke="#FFF4CC" stroke-width="3"/>
</g>
</g>
<g style="mix-blend-mode:multiply">
<path d="M1455.51 647.326L1455.53 647.341L1455.55 647.356C1477.2 661.085 1489.12 671.151 1506.28 690.195L1506.3 690.216L1506.32 690.235C1508.15 692.122 1508.12 695.227 1506.28 697.404L1485.59 721.908L1427.75 673.068L1448.45 648.564C1450.29 646.388 1453.34 645.838 1455.51 647.326ZM1334.11 931.631L1334.11 931.639L1334.1 931.648C1332.44 934.021 1328.55 934.429 1326.21 932.46L1247.12 865.663C1245.8 864.55 1245.13 863.139 1245.06 861.802C1245 860.487 1245.51 859.136 1246.78 858.053L1246.83 858.01L1246.88 857.962L1422.84 679.256L1480.84 728.237L1334.11 931.631Z" stroke="#FFF4CC" stroke-width="3"/>
</g>
<g style="mix-blend-mode:multiply">
<path d="M43.4712 152.55L43.1434 152.31L42.7393 152.268L27.3219 150.679L17.3992 140.671L65.6641 93.9528L65.6642 93.9527L75.6995 84.2372L75.6996 84.2371L123.99 37.4942L133.93 47.5247L135.216 62.7764L135.251 63.1888L135.492 63.525L248.179 220.541L248.248 220.638L248.332 220.723L253.692 226.129L250.601 242.875L250.458 243.647L251.011 244.204C255.335 248.563 254.162 253.524 252.862 256.438L252.444 257.376L253.167 258.105L258.733 263.719L243.528 278.434L237.937 272.794L237.229 272.08L236.299 272.464C233.321 273.695 228.252 274.751 223.916 270.38L223.375 269.834L222.615 269.955L205.585 272.672L200.212 267.25L200.129 267.166L200.033 267.096L43.4712 152.55Z" stroke="#FFF4CC" stroke-width="3"/>
</g>
<g style="mix-blend-mode:multiply">
<path d="M574.682 887.224L574.705 887.248L574.729 887.271C582.344 894.605 583.607 905.459 577.912 914.448L577.912 914.449C572.199 923.477 561.691 926.914 551.764 923.047L255.07 807.53C245.148 803.666 239.803 794.067 241.7 783.545C243.586 773.085 251.954 765.974 262.536 765.722L262.569 765.721L262.602 765.719L440.972 753.546L441.922 753.482L442.267 752.594L449.949 732.869C453.609 723.473 451.643 712.632 445.097 704.633C435.551 692.967 433.238 677.038 439.238 663.127C447.49 643.988 469.369 634.271 489.028 641L489.514 639.581L489.028 641C499.491 644.58 507.783 652.054 512.416 662.068C517.049 672.084 517.393 683.265 513.381 693.568C512.377 696.145 509.489 697.415 506.929 696.418C504.374 695.423 503.104 692.534 504.108 689.956C507.12 682.223 506.874 673.816 503.393 666.295C499.917 658.773 493.683 653.152 485.821 650.462C471.035 645.401 454.639 652.714 448.441 667.092C443.929 677.558 445.639 689.524 452.807 698.284L453.968 697.334L452.807 698.284C461.666 709.111 464.177 723.781 459.23 736.484L451.528 756.259L451.183 757.145L451.838 757.836L574.682 887.224ZM555.379 913.729L555.38 913.729C558.598 914.98 561.521 914.828 563.966 913.812C566.377 912.81 568.23 911.008 569.446 909.086C570.662 907.165 571.498 904.718 571.373 902.108C571.247 899.468 570.141 896.764 567.647 894.391L567.6 894.344C567.546 894.29 567.496 894.239 567.448 894.19C567.447 894.188 567.445 894.187 567.443 894.185L443.598 763.816L443.112 763.305L442.408 763.353L262.985 775.65L262.967 775.651L262.948 775.653C262.887 775.659 262.817 775.662 262.74 775.663L262.731 775.663C259.276 775.721 256.624 776.967 254.742 778.831C252.886 780.669 251.847 783.038 251.444 785.275C251.04 787.513 251.187 790.094 252.287 792.463C253.402 794.864 255.454 796.953 258.67 798.206L555.379 913.729Z" stroke="#FFF4CC" stroke-width="3"/>
</g>
<g style="mix-blend-mode:multiply">
<path d="M909.642 673.571C909.642 694.368 904.308 714.4 894.146 732.088C892.238 723.996 887.929 714.09 883.267 705.227C878.375 695.926 872.958 687.516 869.279 683.379C874.951 676.274 878.399 667.085 878.399 657.136C878.399 654.96 878.22 652.823 877.892 650.726L905.526 642.765C908.27 652.812 909.642 663.168 909.642 673.571ZM842.576 589.486C843.71 598.624 843.647 608.027 843.228 616.248C841.794 616.082 840.342 616 838.891 616C829.315 616 820.513 619.549 813.671 625.446C785.467 599.49 761.88 587.577 745.15 582.149C736.688 579.404 729.993 578.322 725.357 577.917C724.333 577.828 723.411 577.771 722.593 577.737C742.567 563.32 766.598 555.5 791.571 555.5C806.184 555.5 820.501 558.204 834.236 563.567C838.902 570.758 841.388 579.919 842.576 589.486ZM673.5 673.571C673.5 640.882 687.125 609.485 711.008 587.25H712.068V586.833C718.529 584.943 726.196 585.418 734.535 587.605C743.259 589.894 752.585 594.022 761.795 599.068C779.614 608.83 796.818 621.926 808.107 631.391C802.647 638.455 799.382 647.398 799.382 657.136C799.382 661.009 799.879 664.77 800.878 668.343C757.794 684.754 693.305 701.744 677.657 704.723C674.886 694.581 673.5 684.123 673.5 673.571ZM887.305 742.592C863.813 775.183 825.707 793.322 785.801 791.367C815.334 764.682 826.642 738.123 838.074 698.32C838.343 698.324 838.607 698.324 838.859 698.324H838.891C848.179 698.324 856.702 694.936 863.442 689.379C868.641 696.251 874.291 704.887 878.792 713.961C883.578 723.609 887.005 733.629 887.305 742.49V742.592ZM845.517 568.628C872.617 582.508 893.224 606.129 903.165 635.063L875.933 642.883C871.799 631.172 862.673 621.978 851.223 618.022C851.686 612.087 851.7 603.226 850.79 593.884C849.956 585.321 848.335 576.253 845.517 568.628ZM803.8 675.929C808.966 686.512 818.523 694.478 829.969 697.224C817.031 736.112 806.847 766.041 774.482 790.247C731.004 783.952 694.53 753.799 680.082 712.519C692.19 710.081 716.255 703.746 740.595 696.665C765.336 689.467 790.508 681.456 803.8 675.929Z" stroke="#FFF4CC" stroke-width="3"/>
<path d="M870.3 657.151C870.3 675.491 856.168 690.23 838.89 690.23C821.612 690.23 807.48 675.491 807.48 657.151C807.48 638.812 821.612 624.073 838.89 624.073C856.168 624.073 870.3 638.812 870.3 657.151Z" stroke="#FFF4CC" stroke-width="3"/>
</g>
<g style="mix-blend-mode:multiply">
<path d="M660.515 202.929L685.942 248.418L674.239 284.84L627.074 307.003C619.854 309.832 611.877 310.082 604.494 307.709L563.469 294.527L601.548 176.02L642.573 189.202C649.956 191.575 656.294 196.424 660.515 202.929Z" stroke="#FFF4CC" stroke-width="3"/>
<path d="M419.667 152.938C425.355 135.237 444.316 125.498 462.017 131.186L514.993 148.208L476.914 266.715L423.938 249.693C406.237 244.005 396.498 225.044 402.186 207.343L419.667 152.938Z" stroke="#FFF4CC" stroke-width="3"/>
<path d="M580.608 173.908L545.218 284.045L531.335 279.584L566.724 169.447L580.608 173.908Z" stroke="#FFF4CC" stroke-width="3"/>
<path d="M547.129 163.152L511.739 273.289L497.856 268.828L533.245 158.69L547.129 163.152Z" stroke="#FFF4CC" stroke-width="3"/>
<path d="M719.163 259.983L707.978 294.791L689.91 288.985L701.094 254.177L719.163 259.983Z" stroke="#FFF4CC" stroke-width="3"/>
</g>
<g style="mix-blend-mode:multiply">
<g style="mix-blend-mode:multiply">
<path d="M118.95 453.676L130.443 448.636L218.175 648.698L206.683 653.738L118.95 453.676Z" stroke="#FFF4CC" stroke-width="3"/>
</g>
<g style="mix-blend-mode:multiply">
<path d="M119.961 418.301L170.956 363.593L180.136 372.15L129.141 426.857L119.961 418.301Z" stroke="#FFF4CC" stroke-width="3"/>
</g>
<g style="mix-blend-mode:multiply">
<path d="M112.644 429.405L127.344 434.857L128.345 432.159L113.644 426.708L112.644 429.405Z" fill="#FFF4CC"/>
</g>
<g style="mix-blend-mode:multiply">
<path d="M112.332 439.956L127.981 438.961L127.799 436.09L112.149 437.085L112.332 439.956Z" fill="#FFF4CC"/>
</g>
<g style="mix-blend-mode:multiply">
<path d="M128.735 440.795L114.376 447.091L115.533 449.73L129.892 443.433L128.735 440.795Z" fill="#FFF4CC"/>
</g>
</g>
</g>
</svg>
