<svg width="1395" height="1017" viewBox="0 0 1395 1017" fill="none" xmlns="http://www.w3.org/2000/svg">
<g style="mix-blend-mode:multiply">
<mask id="path-1-inside-1_2372_237" fill="white">
<path d="M986.77 160.345C989.086 158.715 990.82 157.454 991.545 157.052L994.805 155.204L995.397 152.092C995.817 149.89 996.519 146.204 983.41 132.559L979.706 128.707L975.357 131.869C975.01 132.119 966.802 138.112 962.349 142.125C960.335 143.946 950.31 147.624 944.924 149.597C941.278 150.936 937.965 152.159 935.782 153.122C931.828 154.849 922.935 157.5 916.949 159.181C911.642 151.149 898.916 132.536 889.223 123.432C886.53 120.903 884.179 119.191 882.016 118.199C876.939 115.868 869.092 110.958 863.022 105.256C857.022 99.6215 855.081 95.3604 855.272 93.2477C855.682 88.6558 863.156 74.4666 869.171 63.0607C876.319 49.4804 883.716 35.4448 885.986 26.3906L887.581 19.9881L861.415 15.4689L859.124 18.1823C858.894 18.4513 836.072 45.4718 831.351 50.4972C827.949 54.1194 813.309 64.8955 806.273 70.0707C803.84 71.8607 801.902 73.2912 800.846 74.1052C795.599 78.1277 767.529 108.753 762.975 117.41C759.114 124.744 751.07 134.312 746.432 137.112C739.336 141.384 705.004 170.439 698.414 178.935L696.662 181.183C690.407 189.192 681.839 200.152 679.002 210.276C678.322 212.719 676.193 217.254 673.949 222.066C665.336 240.49 659.716 254.174 665.824 262.451C670.34 268.578 678.674 269.949 686.554 271.097C692.722 271.992 699.106 272.92 702.55 276.154C706.345 279.719 710.074 281.992 713.374 284.007C719.481 287.723 723.971 291.241 727.416 298.867C731.239 307.345 737.243 315.637 743.048 323.663C748.31 330.93 753.277 337.796 755.006 342.784L755.29 343.616C758.333 352.399 761.47 361.486 766.278 366.002C769.805 369.315 774.203 370.172 778.311 368.365C781.773 366.853 787.127 361.915 800.433 349.23C812.5 337.719 829.037 321.952 837.104 317.756C850.752 310.664 868.551 287.797 878.115 275.514C880.102 272.956 881.687 270.923 882.719 269.692C884.713 267.331 887.115 264.881 889.687 262.262C894.7 257.14 900.373 251.327 905.249 244.225C909.14 238.59 912.816 232.957 916.454 227.377C919.49 222.723 922.505 218.117 925.597 213.571C928.605 209.139 931.346 204.466 933.837 200.214C936.738 195.275 939.473 190.608 941.405 188.551L942.34 187.556C946.073 183.534 949.299 180.063 958.305 177.076C967.254 174.115 979 165.824 986.77 160.345Z"/>
</mask>
<path d="M986.77 160.345L985.044 157.891L985.042 157.893L986.77 160.345ZM991.545 157.052L993 159.676L993.012 159.669L993.024 159.662L991.545 157.052ZM994.805 155.204L996.284 157.814L997.493 157.129L997.753 155.764L994.805 155.204ZM995.397 152.092L992.45 151.53L992.45 151.532L995.397 152.092ZM983.41 132.559L985.573 130.481L985.572 130.48L983.41 132.559ZM979.706 128.707L981.868 126.628L980.056 124.744L977.942 126.281L979.706 128.707ZM975.357 131.869L977.11 134.303L977.121 134.296L975.357 131.869ZM962.349 142.125L960.341 139.896L960.336 139.9L962.349 142.125ZM944.924 149.597L943.892 146.78L943.89 146.781L944.924 149.597ZM935.782 153.122L936.983 155.871L936.993 155.867L935.782 153.122ZM916.949 159.181L914.446 160.835L915.653 162.661L917.76 162.07L916.949 159.181ZM882.016 118.199L880.765 120.925L882.016 118.199ZM855.272 93.2477L858.259 93.5167L858.26 93.515L855.272 93.2477ZM869.171 63.0607L871.824 64.46L871.825 64.4581L869.171 63.0607ZM885.986 26.3906L888.896 27.1201L888.897 27.1161L885.986 26.3906ZM887.581 19.9881L890.492 20.7135L891.273 17.5812L888.092 17.0319L887.581 19.9881ZM861.415 15.4689L861.926 12.5127L860.232 12.2201L859.123 13.5337L861.415 15.4689ZM859.124 18.1823L861.404 20.133L861.41 20.1253L861.417 20.1175L859.124 18.1823ZM806.273 70.0707L804.495 67.654L804.495 67.6544L806.273 70.0707ZM800.846 74.1052L802.671 76.4861L802.677 76.4813L800.846 74.1052ZM762.975 117.41L765.629 118.808L765.63 118.807L762.975 117.41ZM746.432 137.112L747.979 139.682L747.983 139.68L746.432 137.112ZM698.414 178.935L700.78 180.78L700.785 180.774L698.414 178.935ZM696.662 181.183L699.026 183.03L699.028 183.028L696.662 181.183ZM679.002 210.276L676.113 209.466L676.112 209.472L679.002 210.276ZM673.949 222.066L676.667 223.337L676.669 223.334L673.949 222.066ZM665.824 262.451L668.239 260.671L668.238 260.669L665.824 262.451ZM686.554 271.097L686.122 274.066L686.124 274.066L686.554 271.097ZM713.374 284.007L711.81 286.567L711.814 286.57L713.374 284.007ZM727.416 298.867L730.151 297.634L730.15 297.632L727.416 298.867ZM743.048 323.663L740.617 325.421L740.618 325.422L743.048 323.663ZM755.006 342.784L757.845 341.813L757.84 341.801L755.006 342.784ZM755.29 343.616L752.452 344.586L752.456 344.597L755.29 343.616ZM778.311 368.365L777.11 365.616L777.103 365.619L778.311 368.365ZM800.433 349.23L802.503 351.401L802.503 351.401L800.433 349.23ZM837.104 317.756L835.721 315.094L835.72 315.094L837.104 317.756ZM878.115 275.514L880.482 277.357L880.483 277.355L878.115 275.514ZM882.719 269.692L880.427 267.757L880.421 267.764L882.719 269.692ZM889.687 262.262L891.827 264.364L891.831 264.361L889.687 262.262ZM905.249 244.225L902.78 242.52L902.776 242.527L905.249 244.225ZM916.454 227.377L913.941 225.738L913.94 225.739L916.454 227.377ZM925.597 213.571L928.078 215.258L928.079 215.256L925.597 213.571ZM933.837 200.214L931.25 198.695L931.248 198.698L933.837 200.214ZM942.34 187.556L944.526 189.61L944.533 189.603L944.539 189.597L942.34 187.556ZM958.305 177.076L957.363 174.228L957.361 174.229L958.305 177.076ZM988.497 162.798C990.97 161.058 992.461 159.974 993 159.676L990.09 154.428C989.178 154.934 987.202 156.373 985.044 157.891L988.497 162.798ZM993.024 159.662L996.284 157.814L993.326 152.594L990.066 154.442L993.024 159.662ZM997.753 155.764L998.344 152.652L992.45 151.532L991.858 154.644L997.753 155.764ZM998.344 152.653C998.455 152.068 998.653 151.071 998.532 149.755C998.412 148.453 998.003 147.008 997.175 145.305C995.556 141.974 992.192 137.37 985.573 130.481L981.247 134.638C987.738 141.394 990.577 145.455 991.779 147.928C992.361 149.127 992.517 149.869 992.557 150.304C992.596 150.725 992.548 151.014 992.45 151.53L998.344 152.653ZM985.572 130.48L981.868 126.628L977.543 130.787L981.248 134.639L985.572 130.48ZM977.942 126.281L973.593 129.443L977.121 134.296L981.47 131.134L977.942 126.281ZM973.603 129.435C973.269 129.676 964.932 135.758 960.341 139.896L964.357 144.353C968.671 140.466 976.751 134.562 977.11 134.303L973.603 129.435ZM960.336 139.9C960.339 139.898 960.295 139.936 960.18 140.015C960.071 140.091 959.922 140.185 959.73 140.297C959.343 140.523 958.841 140.786 958.229 141.082C957.005 141.674 955.462 142.338 953.772 143.025C950.397 144.396 946.592 145.791 943.892 146.78L945.956 152.414C948.642 151.43 952.543 150 956.03 148.584C957.771 147.876 959.449 147.157 960.839 146.484C962.118 145.866 963.497 145.132 964.361 144.349L960.336 139.9ZM943.89 146.781C940.28 148.107 936.862 149.367 934.571 150.377L936.993 155.867C939.069 154.951 942.276 153.765 945.958 152.413L943.89 146.781ZM934.582 150.373C930.856 152 922.18 154.596 916.138 156.293L917.76 162.07C923.69 160.405 932.801 157.698 936.983 155.871L934.582 150.373ZM919.452 157.528C914.186 149.557 901.271 130.633 891.277 121.245L887.169 125.619C896.56 134.44 909.099 152.742 914.446 160.835L919.452 157.528ZM891.277 121.245C888.466 118.606 885.844 116.655 883.268 115.472L880.765 120.925C882.514 121.728 884.594 123.2 887.169 125.619L891.277 121.245ZM883.268 115.472C878.466 113.268 870.894 108.535 865.075 103.07L860.968 107.443C867.291 113.382 875.413 118.468 880.765 120.925L883.268 115.472ZM865.075 103.07C862.221 100.389 860.435 98.1286 859.403 96.396C858.888 95.5309 858.583 94.8351 858.418 94.3157C858.336 94.0582 858.294 93.8604 858.274 93.7195C858.254 93.5767 858.26 93.5133 858.259 93.5167L852.284 92.9787C852.104 94.9691 852.916 97.2299 854.248 99.4664C855.639 101.801 857.823 104.489 860.968 107.443L865.075 103.07ZM858.26 93.515C858.32 92.8429 858.708 91.4546 859.56 89.3015C860.375 87.2437 861.5 84.7564 862.823 82.0112C865.466 76.5228 868.811 70.1747 871.824 64.46L866.517 61.6614C863.516 67.3526 860.117 73.802 857.417 79.4077C856.067 82.2096 854.872 84.8434 853.981 87.0939C853.128 89.2492 852.429 91.3565 852.284 92.9804L858.26 93.515ZM871.825 64.4581C875.393 57.6811 879.059 50.7224 882.115 44.3211C885.154 37.957 887.683 31.9567 888.896 27.12L883.076 25.6612C882.019 29.8788 879.715 35.4233 876.701 41.7357C873.704 48.0108 870.097 54.86 866.516 61.6633L871.825 64.4581ZM888.897 27.1161L890.492 20.7135L884.67 19.2627L883.075 25.6652L888.897 27.1161ZM888.092 17.0319L861.926 12.5127L860.904 18.4252L887.071 22.9443L888.092 17.0319ZM859.123 13.5337L856.832 16.2471L861.417 20.1175L863.707 17.4042L859.123 13.5337ZM856.845 16.2315C856.545 16.5822 833.822 43.4851 829.165 48.4434L833.538 52.5511C835.961 49.9716 842.908 41.8872 849.204 34.5027C852.369 30.7912 855.393 27.229 857.64 24.5781C858.764 23.2525 859.693 22.1547 860.349 21.3799C860.676 20.9924 860.936 20.6857 861.117 20.4719C861.207 20.3649 861.278 20.2814 861.328 20.2225C861.353 20.1931 861.372 20.1702 861.386 20.1538C861.402 20.1344 861.406 20.1303 861.404 20.133L856.845 16.2315ZM829.165 48.4434C827.672 50.0328 823.396 53.4649 818.353 57.3178C813.413 61.0924 808.015 65.0648 804.495 67.654L808.05 72.4874C811.566 69.9015 817.006 65.8981 821.996 62.0853C826.884 58.3508 831.629 54.5838 833.538 52.5511L829.165 48.4434ZM804.495 67.6544C802.074 69.4353 800.104 70.8897 799.015 71.7291L802.677 76.4813C803.7 75.6927 805.606 74.286 808.051 72.487L804.495 67.6544ZM799.021 71.7243C797.495 72.8937 794.596 75.7391 791.195 79.27C787.724 82.8735 783.555 87.3778 779.412 92.0228C775.27 96.6661 771.136 101.471 767.742 105.672C764.407 109.8 761.614 113.552 760.32 116.014L765.63 118.807C766.612 116.94 769.037 113.617 772.409 109.443C775.723 105.341 779.788 100.615 783.889 96.0166C787.989 91.4203 792.106 86.973 795.516 83.4324C798.996 79.8191 801.573 77.328 802.671 76.4861L799.021 71.7243ZM760.32 116.013C758.516 119.439 755.676 123.486 752.698 127.032C749.664 130.643 746.756 133.412 744.881 134.544L747.983 139.68C750.746 138.011 754.178 134.597 757.292 130.891C760.46 127.119 763.572 122.715 765.629 118.808L760.32 116.013ZM744.885 134.542C741.073 136.837 730.507 145.36 720.276 154.166C715.108 158.614 709.944 163.205 705.649 167.227C701.407 171.199 697.857 174.758 696.044 177.096L700.785 180.774C702.266 178.864 705.479 175.606 709.75 171.607C713.966 167.658 719.064 163.125 724.19 158.713C734.547 149.8 744.695 141.659 747.979 139.682L744.885 134.542ZM696.048 177.09L694.296 179.338L699.028 183.028L700.78 180.78L696.048 177.09ZM694.297 179.336C691.181 183.327 687.398 188.165 684.04 193.293C680.696 198.4 677.653 203.971 676.113 209.466L681.891 211.085C683.188 206.457 685.847 201.486 689.06 196.58C692.259 191.694 695.888 187.047 699.026 183.03L694.297 179.336ZM676.112 209.472C675.518 211.607 673.545 215.835 671.23 220.799L676.669 223.334C678.841 218.674 681.127 213.83 681.892 211.08L676.112 209.472ZM671.232 220.796C666.943 229.969 663.258 238.247 661.458 245.324C659.667 252.369 659.544 258.994 663.41 264.232L668.238 260.669C665.995 257.63 665.628 253.275 667.273 246.803C668.911 240.363 672.342 232.587 676.667 223.337L671.232 220.796ZM663.409 264.231C666.151 267.95 669.974 270.107 673.95 271.477C677.888 272.834 682.212 273.496 686.122 274.066L686.987 268.129C683.016 267.55 679.233 266.952 675.905 265.805C672.615 264.671 670.013 263.078 668.239 260.671L663.409 264.231ZM686.124 274.066C689.248 274.519 692.203 274.952 694.799 275.647C697.421 276.348 699.31 277.227 700.496 278.341L704.603 273.968C702.346 271.847 699.321 270.645 696.349 269.85C693.35 269.048 690.029 268.57 686.985 268.128L686.124 274.066ZM700.496 278.341C704.541 282.141 708.515 284.554 711.81 286.567L714.937 281.447C711.634 279.429 708.148 277.297 704.603 273.968L700.496 278.341ZM711.814 286.57C717.664 290.129 721.587 293.249 724.682 300.102L730.15 297.632C726.356 289.232 721.299 285.317 714.933 281.444L711.814 286.57ZM724.681 300.1C728.653 308.908 734.855 317.454 740.617 325.421L745.479 321.905C739.631 313.819 733.824 305.781 730.151 297.634L724.681 300.1ZM740.618 325.422C743.26 329.071 745.771 332.541 747.838 335.716C749.927 338.923 751.432 341.634 752.171 343.767L757.84 341.801C756.851 338.946 755.008 335.731 752.866 332.441C750.702 329.119 748.098 325.522 745.478 321.904L740.618 325.422ZM752.167 343.755L752.452 344.586L758.129 342.645L757.845 341.813L752.167 343.755ZM752.456 344.597C753.966 348.959 755.555 353.559 757.385 357.638C759.199 361.679 761.381 365.518 764.224 368.189L768.332 363.815C766.367 361.97 764.577 359.008 762.859 355.181C761.158 351.391 759.657 347.056 758.125 342.634L752.456 344.597ZM764.224 368.189C768.544 372.246 774.208 373.447 779.519 371.111L777.103 365.619C774.198 366.897 771.066 366.384 768.332 363.815L764.224 368.189ZM779.512 371.114C781.716 370.151 784.23 368.246 787.657 365.244C791.149 362.185 795.862 357.733 802.503 351.401L798.362 347.059C791.698 353.413 787.081 357.772 783.704 360.731C780.262 363.746 778.368 365.066 777.11 365.616L779.512 371.114ZM802.503 351.401C808.545 345.638 815.656 338.857 822.26 332.993C828.956 327.048 834.838 322.316 838.488 320.418L835.72 315.094C831.303 317.392 824.883 322.641 818.277 328.506C811.578 334.454 804.388 341.311 798.362 347.059L802.503 351.401ZM838.488 320.418C845.833 316.601 854.006 308.742 861.367 300.592C868.802 292.361 875.707 283.49 880.482 277.357L875.747 273.671C870.959 279.821 864.182 288.525 856.915 296.571C849.574 304.698 842.022 311.819 835.721 315.094L838.488 320.418ZM880.483 277.355C882.487 274.777 884.03 272.798 885.018 271.62L880.421 267.764C879.343 269.048 877.717 271.136 875.746 273.673L880.483 277.355ZM885.012 271.627C886.918 269.369 889.237 267.002 891.827 264.364L887.546 260.16C884.993 262.76 882.507 265.293 880.427 267.757L885.012 271.627ZM891.831 264.361C896.83 259.253 902.679 253.268 907.722 245.923L902.776 242.527C898.066 249.386 892.57 255.027 887.543 260.164L891.831 264.361ZM907.718 245.93C911.635 240.257 915.332 234.591 918.967 229.015L913.94 225.739C910.301 231.322 906.645 236.923 902.78 242.52L907.718 245.93ZM918.966 229.017C922.003 224.362 925.004 219.777 928.078 215.258L923.117 211.884C920.007 216.456 916.977 221.085 913.941 225.738L918.966 229.017ZM928.079 215.256C931.152 210.728 933.941 205.971 936.425 201.731L931.248 198.698C928.75 202.962 926.058 207.549 923.115 211.886L928.079 215.256ZM936.424 201.734C937.882 199.251 939.264 196.895 940.521 194.903C941.807 192.864 942.842 191.403 943.591 190.605L939.218 186.498C938.036 187.756 936.737 189.657 935.447 191.701C934.128 193.791 932.693 196.238 931.25 198.695L936.424 201.734ZM943.591 190.605L944.526 189.61L940.153 185.502L939.218 186.498L943.591 190.605ZM944.539 189.597C946.42 187.57 947.978 185.904 950.109 184.354C952.216 182.823 954.986 181.337 959.25 179.924L957.361 174.229C952.619 175.801 949.272 177.545 946.581 179.501C943.915 181.439 941.993 183.52 940.141 185.515L944.539 189.597ZM959.248 179.924C964.07 178.329 969.488 175.361 974.565 172.202C979.676 169.021 984.623 165.529 988.499 162.796L985.042 157.893C981.147 160.639 976.337 164.032 971.395 167.107C966.419 170.204 961.49 172.862 957.363 174.228L959.248 179.924Z" fill="white" mask="url(#path-1-inside-1_2372_237)"/>
</g>
<g style="mix-blend-mode:multiply">
<path d="M1306.58 530.458L1306.58 530.458C1369.31 486.844 1377.1 427.474 1353.01 392.829L1353.01 392.828C1353.01 392.829 1352.99 392.81 1352.97 392.773C1352.81 392.577 1352.24 391.85 1351.25 390.58C1350.1 389.113 1348.43 386.981 1346.31 384.281C1342.07 378.88 1336.05 371.205 1328.83 362.015C1314.4 343.634 1295.2 319.195 1276.02 294.779C1256.84 270.362 1237.67 245.969 1223.3 227.679C1216.12 218.534 1210.13 210.916 1205.94 205.583L1201.08 199.394L1199.8 197.764L1199.47 197.346L1199.38 197.24L1199.37 197.222C1199.37 197.219 1199.37 197.216 1199.36 197.214C1181.31 174.958 1151.51 168.684 1131 182.948L1109.7 197.761C1099.43 204.905 1092.81 217.88 1090.81 231.357C1088.81 244.85 1091.49 258.451 1099.3 266.888C1105 273.043 1118.14 288.867 1133.63 311.481C1134.97 303.985 1137.3 296.736 1140.83 289.909L1140.83 289.904C1141.69 288.27 1142.89 286.921 1144.32 285.928C1147.56 283.668 1151.92 283.241 1155.68 285.182L1155.69 285.184C1161.08 287.983 1163.2 294.627 1160.41 300.028L1160.41 300.03C1152.62 315.06 1152.3 333.286 1159.29 352.349C1164.08 360.735 1168.84 369.559 1173.47 378.763C1192.18 404.869 1221.39 424.842 1251.7 431.76C1251.76 431.708 1251.82 431.658 1251.88 431.611C1252.23 431.321 1252.65 430.99 1253.05 430.674C1253.59 430.256 1254.07 429.894 1254.4 429.646C1254.49 429.579 1254.56 429.52 1254.63 429.471C1254.88 429.053 1255.18 428.28 1255.44 427.034C1255.72 425.668 1255.92 423.884 1256.02 421.693C1256.22 417.315 1256.01 411.438 1255.26 404.287C1253.77 389.993 1250.18 370.722 1243.64 348.379L1243.64 348.379C1236.53 324.089 1228.45 304.647 1220.86 290.821C1217.06 283.906 1213.4 278.426 1210.06 274.453C1206.69 270.439 1203.78 268.115 1201.5 267.278C1195.79 265.179 1192.87 258.845 1194.96 253.141L1194.96 253.139C1195.77 250.942 1197.21 249.15 1199.01 247.906C1201.86 245.928 1205.59 245.314 1209.1 246.604L1209.1 246.605C1218.05 249.897 1226.21 258.124 1233.5 268.918C1240.81 279.75 1247.36 293.367 1253.02 307.745C1264.35 336.503 1272.18 368.527 1275.29 387.96C1275.29 387.96 1275.29 387.96 1275.29 387.96L1273.81 388.197C1279.75 425.324 1274.78 438.054 1269.46 443.666L1306.58 530.458ZM1306.58 530.458C1296.65 537.368 1283.66 541.718 1268.53 536.41C1253.3 531.07 1235.59 515.855 1216.55 482.835L1216.55 482.835L1216.55 482.835L1216.55 482.833L1216.55 482.826L1216.53 482.796L1216.51 482.76C1216.5 482.736 1216.48 482.707 1216.46 482.672C1216.4 482.56 1216.3 482.393 1216.18 482.172C1215.93 481.73 1215.58 481.074 1215.13 480.224C1214.23 478.524 1212.96 476.05 1211.5 472.964C1208.59 466.79 1204.93 458.184 1201.91 448.447L1201.91 448.446C1200.04 442.421 1198.03 436.471 1195.9 430.605C1214.48 443.213 1235.48 451.949 1256.63 455.09L1256.63 455.09C1257.82 455.266 1258.98 455.232 1260.09 455.036L1269.62 468.738C1269.62 468.738 1269.62 468.738 1269.62 468.738C1271.86 471.957 1276.53 471.942 1279.81 469.659C1283.1 467.38 1284.74 463.008 1282.5 459.789L1282.5 459.789L1271.37 443.779L1306.58 530.458Z" stroke="white" stroke-width="3"/>
</g>
<g style="mix-blend-mode:multiply">
<g style="mix-blend-mode:multiply">
<path d="M875.908 384.488L866.703 362.453L908.58 344.961L917.784 366.996L875.908 384.488Z" stroke="white" stroke-width="3"/>
</g>
<g style="mix-blend-mode:multiply">
<path d="M1029.16 453.834C1027.88 456.964 1025.44 459.279 1022.55 460.486C1019.66 461.693 1016.3 461.8 1013.17 460.513L949.878 434.517C943.618 431.945 940.63 424.791 943.2 418.531C943.201 418.531 943.201 418.53 943.201 418.53L944.588 419.1C946.84 413.608 953.128 410.981 958.617 413.24L1029.16 453.834ZM1029.16 453.834C1031.73 447.574 1028.74 440.42 1022.48 437.849L959.188 411.853M1029.16 453.834L959.188 411.853M959.188 411.853C959.188 411.853 959.188 411.853 959.187 411.852L959.188 411.853ZM961.712 382.551L962.282 381.164L961.712 382.551L1034.25 412.342C1044.43 416.524 1052.53 424.58 1056.78 434.739L1112.07 567.118C1120.91 588.27 1110.92 612.581 1089.77 621.417L998.923 659.365C977.842 668.17 955.048 657.638 946.182 636.412L865.371 442.95C858.824 427.276 866.223 409.263 881.896 402.716L929.944 382.646C940.102 378.403 951.529 378.369 961.712 382.551Z" stroke="white" stroke-width="3"/>
</g>
</g>
<g style="mix-blend-mode:multiply">
<path d="M920.525 734.462L920.545 734.481L920.565 734.499C940.792 752.434 951.509 764.922 966.167 787.636L966.182 787.659L966.198 787.681C967.811 789.992 967.243 793.264 964.937 795.243L939.215 817.318L887.137 756.635L912.859 734.561C915.165 732.582 918.486 732.516 920.525 734.462ZM746.353 1010.05L746.346 1010.06L746.338 1010.06C744.174 1012.29 739.998 1012.05 737.874 1009.58L666.792 926.752C665.595 925.357 665.123 923.753 665.282 922.327C665.438 920.921 666.214 919.579 667.744 918.653L667.801 918.619L667.854 918.579L881.112 762.147L933.334 822.997L746.353 1010.05Z" stroke="white" stroke-width="3"/>
</g>
<g style="mix-blend-mode:multiply">
<path d="M45.7821 360.151L45.4543 359.911L45.0502 359.869L28.7672 358.19L18.2275 347.56L69.1709 298.249L68.1276 297.172L69.171 298.249L79.7508 288.007L130.72 238.671L141.277 249.324L142.635 265.433L142.67 265.845L142.911 266.181L261.713 431.719L261.782 431.816L261.866 431.9L267.547 437.63L264.28 455.327L264.138 456.098L264.69 456.655C269.285 461.287 268.034 466.56 266.659 469.644L266.241 470.582L266.963 471.311L272.889 477.288L256.742 492.915L250.791 486.912L250.083 486.198L249.153 486.582C246.002 487.884 240.616 489.01 236.01 484.367L235.468 483.821L234.708 483.942L216.713 486.813L211.019 481.067L210.936 480.983L210.84 480.912L45.7821 360.151Z" stroke="white" stroke-width="3"/>
</g>
<g style="mix-blend-mode:multiply">
<path d="M602.83 771.894L602.863 771.896L602.897 771.896C614.082 771.904 623.006 779.257 625.255 790.287L625.256 790.288C627.52 801.361 622.026 811.689 611.62 816.021L301.745 945.055C291.346 949.384 280.228 945.982 273.959 936.569C267.727 927.21 268.894 915.648 276.778 907.696L276.801 907.672L276.824 907.648L403.471 768.051L404.111 767.345L403.745 766.466L395.169 745.863C391.095 736.077 381.705 729.294 370.912 728.002C355.104 726.11 341.679 715.675 336.062 700.691C328.332 680.077 337.875 656.66 357.77 647.389L357.136 646.029L357.77 647.389C368.357 642.454 380.142 642.073 391.002 646.306C401.863 650.538 410.312 658.8 414.8 669.581C415.938 672.315 414.652 675.438 411.936 676.569C409.226 677.697 406.103 676.41 404.964 673.676C401.61 665.619 395.296 659.426 387.176 656.263C379.058 653.095 370.237 653.379 362.317 657.07C347.421 664.012 340.323 681.506 346.105 696.921C350.315 708.143 360.332 715.966 372.151 717.382L372.329 715.892L372.151 717.382C386.823 719.138 399.477 728.469 405.012 741.765L413.611 762.421L413.977 763.299L414.927 763.343L602.83 771.894ZM607.496 806.148L607.497 806.147C610.837 804.754 612.932 802.517 614.038 799.979C615.13 797.473 615.222 794.767 614.744 792.432C614.267 790.096 613.121 787.642 611.133 785.763C609.123 783.864 606.326 782.625 602.717 782.645C602.608 782.642 602.51 782.64 602.417 782.637C602.415 782.637 602.412 782.637 602.41 782.637L413.028 774.072L412.324 774.04L411.849 774.563L284.493 915.024L284.48 915.038L284.468 915.052C284.424 915.103 284.372 915.158 284.312 915.216L284.306 915.223C281.737 917.777 280.641 920.642 280.574 923.412C280.507 926.147 281.442 928.688 282.763 930.672C284.084 932.657 286.07 934.499 288.618 935.488C291.2 936.49 294.264 936.579 297.605 935.188L607.496 806.148Z" stroke="white" stroke-width="3"/>
</g>
<g style="mix-blend-mode:multiply">
<path d="M465.118 112.944L517.917 97.6124L552.612 118.316L564.19 172.062C565.386 180.169 563.745 188.442 559.545 195.48L536.225 234.561L423.394 167.233L446.715 128.151C450.914 121.113 457.416 115.741 465.118 112.944Z" stroke="white" stroke-width="3"/>
<path d="M356.58 348.623C339.709 338.555 334.194 316.717 344.261 299.846L374.363 249.4L487.194 316.728L457.092 367.174C447.024 384.046 425.186 389.561 408.315 379.494L356.58 348.623Z" stroke="white" stroke-width="3"/>
<path d="M408.375 201.443L416.336 188.101L521.208 250.681L513.246 264.023L408.375 201.443Z" stroke="white" stroke-width="3"/>
<path d="M389.38 233.28L397.341 219.938L502.213 282.517L494.251 295.859L389.38 233.28Z" stroke="white" stroke-width="3"/>
<path d="M527.307 83.5316L537.643 66.21L570.883 86.0449L560.547 103.366L527.307 83.5316Z" stroke="white" stroke-width="3"/>
</g>
<g style="mix-blend-mode:multiply">
<path d="M755.613 545.658C755.613 567.668 749.95 588.867 739.163 607.57C737.178 599.014 732.606 588.486 727.653 579.07C722.475 569.226 716.743 560.335 712.872 556.001C718.866 548.518 722.512 538.827 722.512 528.332C722.512 526.017 722.319 523.744 721.967 521.516L751.249 513.079C754.158 523.704 755.613 534.656 755.613 545.658ZM684.907 457C686.107 466.672 686.036 476.626 685.59 485.315C684.054 485.135 682.497 485.044 680.941 485.044C670.841 485.044 661.558 488.798 654.351 495.031C624.6 467.639 599.724 455.075 582.088 449.353C573.173 446.46 566.121 445.321 561.239 444.894C560.062 444.792 559.012 444.73 558.094 444.696C579.203 429.398 604.628 421.099 631.053 421.099C646.478 421.099 661.59 423.955 676.087 429.618C681.025 437.218 683.653 446.898 684.907 457ZM506.494 545.658C506.494 511.162 520.877 478.03 546.086 454.571H547.155V454.152C553.998 452.134 562.118 452.634 570.942 454.949C580.149 457.364 589.987 461.719 599.7 467.041C618.525 477.354 636.697 491.193 648.599 501.177C642.825 508.621 639.37 518.055 639.37 528.332C639.37 532.434 639.899 536.416 640.964 540.196C595.471 557.533 527.283 575.491 510.899 578.594C507.962 567.872 506.494 556.815 506.494 545.658ZM732.064 618.451C707.244 652.901 666.949 672.05 624.77 669.918C656.013 641.742 667.943 613.723 680.019 571.668C680.323 571.673 680.623 571.673 680.909 571.673H680.941C690.743 571.673 699.736 568.087 706.838 562.207C712.336 569.466 718.318 578.603 723.08 588.204C728.129 598.381 731.747 608.957 732.064 618.316V618.451ZM748.808 505.115L719.942 513.404C715.597 501.026 705.955 491.31 693.856 487.152C694.349 480.9 694.367 471.533 693.405 461.655C692.519 452.557 690.791 442.922 687.777 434.853C716.484 449.495 738.309 474.488 748.808 505.115ZM643.985 548.039C649.426 559.238 659.535 567.661 671.64 570.536C657.984 611.585 647.248 643.194 613.058 668.751C567.145 662.117 528.631 630.263 513.406 586.658C526.137 584.103 551.566 577.411 577.288 569.927C603.417 562.326 629.997 553.865 643.985 548.039Z" stroke="white" stroke-width="3"/>
<path d="M714.137 528.348C714.137 547.724 699.205 563.303 680.941 563.303C662.676 563.303 647.745 547.724 647.745 528.348C647.745 508.972 662.676 493.392 680.941 493.392C699.205 493.392 714.137 508.972 714.137 528.348Z" stroke="white" stroke-width="3"/>
</g>
<g style="mix-blend-mode:multiply">
<g style="mix-blend-mode:multiply">
<path d="M9.50883 805.003L143.298 617.34L154.203 625.114L20.4139 812.777L9.50883 805.003Z" stroke="white" stroke-width="3"/>
</g>
<g style="mix-blend-mode:multiply">
<path d="M173.005 612.248L175.825 599.156L253.064 615.79L250.245 628.882L173.005 612.248Z" stroke="white" stroke-width="3"/>
</g>
<g style="mix-blend-mode:multiply">
<path d="M161.881 598.629L164.889 614.883L167.872 614.331L164.863 598.077L161.881 598.629Z" fill="white"/>
</g>
<g style="mix-blend-mode:multiply">
<path d="M152.161 604.048L161.519 617.677L164.019 615.961L154.662 602.331L152.161 604.048Z" fill="white"/>
</g>
<g style="mix-blend-mode:multiply">
<path d="M160.265 619.35L146.806 609.754L145.043 612.227L158.502 621.823L160.265 619.35Z" fill="white"/>
</g>
</g>
</svg>
