<svg width="1464" height="1098" viewBox="0 0 1464 1098" fill="none" xmlns="http://www.w3.org/2000/svg">
<mask id="mask0_2399_102" style="mask-type:alpha" maskUnits="userSpaceOnUse" x="0" y="0" width="1464" height="1098">
<rect width="1464" height="1098" fill="#FFBD9E"/>
</mask>
<g mask="url(#mask0_2399_102)">
<g opacity="0.3">
<mask id="mask1_2399_102" style="mask-type:alpha" maskUnits="userSpaceOnUse" x="0" y="0" width="1464" height="1138">
<rect width="1464" height="1137.65" fill="#FFEEE5"/>
</mask>
<g mask="url(#mask1_2399_102)">
<path d="M832.65 890.928C832.65 1055.26 725.122 1211.49 551.502 1211.49C377.881 1211.49 90.4834 1082.11 90.4834 917.77C90.4834 753.434 351.144 603.341 524.764 603.341C698.385 603.341 832.65 726.592 832.65 890.928Z" fill="white"/>
<path d="M68.2494 252.813C97.4412 203.388 143.353 188.701 196.29 212.072L195.675 213.32L214.203 221.5L383.372 -121.769L341.022 -140.466C313.229 -152.736 299.865 -184.474 313.398 -211.935L337.39 -260.617C350.308 -286.83 383.879 -299.366 412.995 -286.512L595.63 -205.881C623.422 -193.611 636.787 -161.874 623.253 -134.412L599.262 -85.7302C586.344 -59.5169 552.772 -46.9811 523.657 -59.8353L482.63 -77.948L314.077 264.073L329.958 271.084C382.896 294.456 400.509 337.188 379.258 390.12L273.525 650.446C271.064 655.439 267.28 659.848 261.464 661.84C255.648 663.832 249.124 663.992 243.83 661.654L-64.5316 525.517C-69.8254 523.18 -73.8888 518.346 -76.0137 512.848C-78.1385 507.351 -77.0013 501.773 -74.5407 496.78L68.2494 252.813Z" fill="white"/>
<path fill-rule="evenodd" clip-rule="evenodd" d="M857.968 287.544L911.404 277.701C923.279 275.514 933.918 282.303 936.229 293.542L968.583 450.893C970.894 462.132 963.722 472.202 951.847 474.389L898.411 484.232C886.536 486.42 875.897 479.631 873.586 468.391L841.232 311.041C838.921 299.802 846.093 289.732 857.968 287.544Z" fill="white"/>
<path fill-rule="evenodd" clip-rule="evenodd" d="M1113.1 163.764C1151.85 127.463 1191.6 125.974 1242.06 116.678C1277.69 110.116 1309.61 130.483 1315.96 161.391L1372.58 436.754C1379.51 470.472 1358 500.682 1322.37 507.244C1271.9 516.54 1234.47 529.268 1183.58 506.563L1007.83 431.035L980.102 296.163L1113.1 163.764Z" fill="white"/>
<path fill-rule="evenodd" clip-rule="evenodd" d="M1482.21 131.731L1538.83 407.094C1554.43 482.959 1430.32 508.736 1414.14 430.061L1357.52 154.698C1341.92 78.8322 1466.61 55.8652 1482.21 131.731Z" fill="white"/>
</g>
</g>
</g>
</svg>
