<svg width="247" height="246" viewBox="0 0 247 246" fill="none" xmlns="http://www.w3.org/2000/svg">
<path d="M172.9 42.4303L172.607 58.472C172.607 58.472 173.474 64.0129 178.441 64.3041C183.408 64.5926 209.708 61.69 209.708 61.69C209.708 61.69 234.838 49.2372 246.818 32.0307L246.822 32.3367C234.848 15.1249 209.721 2.65717 209.721 2.65717C209.721 2.65717 183.432 -0.269661 178.467 0.0201902C173.5 0.314085 172.621 5.84825 172.621 5.84825L172.907 21.8993L159.17 23.7086L159.171 41.5459L172.9 42.4303Z" fill="#CDCFFF"/>
<path d="M81.7136 33.0951C81.7109 43.5945 92.8157 44.181 92.8157 44.181L136.131 41.3512L139.345 38.1426L153.427 38.5349L153.431 25.8313L139.347 26.2047L136.134 23.0002L92.8224 20.1448C92.8224 20.1448 81.7204 20.7231 81.7217 31.2158L81.7136 33.0951Z" fill="#CDCFFF"/>
<path d="M179.326 130.231L195.523 167.975C198.117 174.019 199.081 180.637 198.319 187.169L193.757 226.283C193.757 230.625 234.121 230.625 234.121 226.283L231.27 188.779C230.911 184.068 230.976 179.334 231.465 174.635L234.922 141.388C234.922 141.388 238.33 122.385 238.065 115.993C237.854 110.892 232.559 108.254 231.655 112.48C230.263 118.99 226.046 137.135 226.046 137.135C226.046 137.135 228.744 113.288 228.943 104.899C229.046 100.549 223.26 98.9972 221.855 102.926C219.36 109.907 214.828 132.265 214.828 132.265C214.828 132.265 216.279 106.791 214.894 97.7963C214.362 94.3385 207.798 95.1724 207.37 99.2895C206.511 107.543 204.411 130.601 204.411 130.601C204.411 130.601 203.535 110.004 202.809 103.357C202.345 99.1077 196.618 97.1313 195.043 103.851C193.081 112.222 194.981 138.244 194.981 138.244C194.981 138.244 187.421 123.551 182.592 121.725C178.746 120.271 176.341 124.621 179.326 130.231Z" fill="#CDCFFF"/>
<path d="M164.841 214.622C164.841 204.12 153.744 203.534 153.744 203.534L110.433 206.367L107.216 209.573L93.1311 209.188L93.127 221.891L107.211 221.513L110.419 224.724L153.734 227.579C153.734 227.579 164.84 227.002 164.842 216.5L164.841 214.622Z" fill="#CDCFFF"/>
<path d="M86.1981 216.687L86.1913 224.85L73.9198 224.657L73.724 239.24C73.724 239.24 73.3283 245.462 67.4889 245.462C61.6456 245.455 6.32575 240.001 6.32575 240.001C6.32575 240.001 -2.04299 235.523 5.75046 232.028L37.4982 230.287L38.5367 223.151L7.31022 221.139C7.31022 221.139 2.4378 220.165 2.43915 215.885V215.189C2.44186 210.907 7.31022 209.935 7.31022 209.935L38.5407 207.94L37.5022 200.812L5.75316 199.049C-2.03623 195.544 6.3406 191.075 6.3406 191.075C6.3406 191.075 61.6604 185.65 67.5038 185.654C73.3459 185.654 73.7375 191.874 73.7375 191.874L73.9252 206.457L86.1967 206.267L86.1954 214.436L86.1981 216.687Z" fill="#CDCFFF"/>
<path d="M1.42736 122.239C-1.75281 128.167 0.809837 132.762 4.90804 131.226C10.0542 129.297 18.1111 113.774 18.1111 113.774C18.1111 113.774 16.0856 141.266 18.1769 150.111C19.8552 157.209 25.9583 155.122 26.4534 150.632C27.2273 143.609 28.1607 121.848 28.1607 121.848C28.1607 121.848 30.3985 146.209 31.3142 154.929C31.7701 159.279 38.7645 160.16 39.3325 156.507C40.8083 147.004 39.262 120.09 39.262 120.09C39.262 120.09 44.0908 143.712 46.7504 151.087C48.2468 155.238 54.4131 153.598 54.3034 149.003C54.0917 140.14 51.2166 114.945 51.2166 114.945C51.2166 114.945 55.7105 134.116 57.1941 140.993C58.1571 145.458 63.7996 142.671 64.0246 137.281C64.3069 130.529 60.6754 110.452 60.6754 110.452L56.9917 75.3259C56.4704 70.3611 56.4011 65.3601 56.7828 60.3826L59.8223 20.7587C59.8217 16.172 16.8067 16.172 16.8067 20.7587L21.6681 62.0836C22.4799 68.9851 21.4528 75.9769 18.6889 82.362L1.42736 122.239Z" fill="#CDCFFF"/>
<g style="mix-blend-mode:multiply">
<path d="M128.382 114.602L119.877 114.588L86.1631 114.53L86.1527 120.605L91.0118 120.613L101.848 178.644L119.768 178.675L128.272 178.689L146.192 178.72L157.226 120.726L162.087 120.734L162.097 114.66L128.382 114.602Z" fill="#CDCFFF"/>
<path d="M91.3414 108.473C91.3724 90.3886 106.109 75.7009 124.195 75.7317C142.276 75.7624 156.967 90.5002 156.936 108.585C156.935 109.273 156.91 109.956 156.867 110.634L159.149 110.637C159.189 109.958 159.211 109.274 159.212 108.589C159.22 103.855 158.301 99.2588 156.478 94.9306C154.719 90.751 152.197 86.995 148.982 83.7691C145.767 80.5431 142.019 78.0075 137.844 76.2337C133.524 74.3971 128.933 73.4608 124.199 73.4527C119.463 73.4447 114.869 74.3639 110.539 76.1872C106.361 77.9468 102.605 80.4697 99.3791 83.6847C96.1531 86.8997 93.6174 90.6471 91.8436 94.8207C90.0069 99.1426 89.0706 103.734 89.0625 108.469C89.0613 109.156 89.0805 109.839 89.1186 110.518L91.4005 110.522C91.3609 109.845 91.3402 109.161 91.3414 108.473Z" fill="#CDCFFF"/>
</g>
</svg>
