<svg width="56" height="56" viewBox="0 0 56 56" fill="none" xmlns="http://www.w3.org/2000/svg">
<path d="M20.581 17.4179C20.2196 17.0379 20.001 16.5173 20.001 15.9979C20.001 15.4773 20.2196 14.9579 20.581 14.5779C21.321 13.8379 22.6803 13.8379 23.421 14.5779C23.7803 14.9579 24.001 15.4773 24.001 15.9979C24.001 16.5173 23.7803 17.0379 23.421 17.4179C23.0403 17.7773 22.5203 17.9979 22.001 17.9979C21.4816 17.9979 20.9596 17.7773 20.581 17.4179Z" fill="white"/>
<path d="M32.5805 17.4202C32.2192 17.0402 32.0005 16.5195 32.0005 16.0002C32.0005 15.4795 32.2192 14.9602 32.5805 14.5802C33.3405 13.8402 34.6798 13.8402 35.4205 14.5995C35.7798 14.9602 36.0005 15.4602 36.0005 16.0002C36.0005 16.5195 35.7798 17.0402 35.4205 17.4202C35.0398 17.7795 34.5398 18.0002 34.0005 18.0002C33.4812 18.0002 32.9592 17.7795 32.5805 17.4202Z" fill="white"/>
<path d="M54.0004 34C55.1057 34 56.0004 33.1047 56.0004 32C56.0004 30.8953 55.1057 30 54.0004 30H44.8531C44.8531 29.52 44.8151 29.044 44.7471 28.572L55.1097 21.664C55.8597 21.164 56.1837 20.2227 55.8971 19.3673L54.2777 14.512C55.3404 12.984 56.0004 11.086 56.0004 9C56.0004 4.03733 52.4124 0 48.0004 0C46.8951 0 46.0004 0.895333 46.0004 2V8H42.0004C40.8951 8 40.0004 8.89533 40.0004 10C40.0004 14.71 43.2897 18 48.0004 18C49.0631 18 50.0737 17.7553 51.0017 17.33L51.6191 19.1833L43.3317 24.708C41.4211 21.6487 38.1837 20 34.8637 20H21.1371C17.8311 20 14.5857 21.6373 12.6691 24.7087L4.38107 19.184L4.9984 17.3307C5.92706 17.7553 6.93773 18 8.0004 18C12.7111 18 16.0004 14.71 16.0004 10C16.0004 8.89533 15.1057 8 14.0004 8H10.0004V2C10.0004 0.895333 9.10573 0 8.0004 0C3.5884 0 0.000398401 4.03733 0.000398401 9C0.000398401 11.086 0.660398 12.984 1.72306 14.512L0.103732 19.3673C-0.183602 20.2227 0.141065 21.164 0.891065 21.664L11.2591 28.5753C11.1917 29.0447 11.1557 29.5193 11.1544 29.9993H2.0004C0.895065 29.9993 0.000398401 30.8947 0.000398401 31.9993C0.000398401 33.104 0.895065 33.9993 2.0004 33.9993H11.6664L12.3257 37.9993H2.0004C0.895065 37.9993 0.000398401 38.8947 0.000398401 39.9993C0.000398401 41.104 0.895065 41.9993 2.0004 41.9993H12.9844L13.4564 44.8627L5.2584 48.142C4.4984 48.4473 4.0004 49.1827 4.0004 50V54C4.0004 55.1047 4.89507 56 6.0004 56C7.10573 56 8.0004 55.1047 8.0004 54V51.3547L15.3457 48.416C16.4191 49.4 17.8371 50 19.3951 50H36.6057C38.1631 50 39.5817 49.4 40.6551 48.416L48.0004 51.3547V54C48.0004 55.1047 48.8951 56 50.0004 56C51.1057 56 52.0004 55.1047 52.0004 54V50C52.0004 49.1827 51.5024 48.4473 50.7424 48.1427L42.5444 44.8633L43.0164 42H54.0004C55.1057 42 56.0004 41.1047 56.0004 40C56.0004 38.8953 55.1057 38 54.0004 38H43.6751L44.3344 34H54.0004ZM44.3971 12H48.0004C49.1057 12 50.0004 11.1047 50.0004 10V4.67067C51.1957 5.53667 52.0004 7.15333 52.0004 9C52.0004 11.7567 50.2057 14 48.0004 14C47.2697 14 45.2544 13.8253 44.3971 12ZM6.0004 4.67067V10C6.0004 11.1047 6.89507 12 8.0004 12H11.6037C10.7464 13.8253 8.7304 14 8.0004 14C5.79507 14 4.0004 11.7567 4.0004 9C4.0004 7.15333 4.80507 5.53733 6.0004 4.67067ZM36.6057 46H19.3951C18.4104 46 17.5804 45.296 17.4204 44.3253L15.1897 30.794C14.7104 27.1987 17.5111 24 21.1371 24H34.8637C38.5504 24 41.2771 27.282 40.8211 30.7327L38.5811 44.3253C38.4204 45.296 37.5904 46 36.6057 46Z" fill="white"/>
</svg>
