<svg width="297" height="64" viewBox="0 0 297 64" fill="none" xmlns="http://www.w3.org/2000/svg">
<path d="M16.4041 42.3052C25.4638 42.3052 32.8081 34.9609 32.8081 25.9011C32.8081 16.8414 25.4638 9.49707 16.4041 9.49707C7.34435 9.49707 0 16.8414 0 25.9011C0 34.9609 7.34435 42.3052 16.4041 42.3052Z" fill="#D7D6DB"/>
<path d="M286.222 54.0419H286.94L287.898 56.9241L288.857 54.0419H289.575V57.5246H289.096V55.483V55.1227V54.6424L288.138 57.5246H287.659L286.701 54.6424V57.5246H286.222V54.0419ZM285.863 54.0419V54.4022H284.665V57.4045H284.186V54.4022H282.989V54.0419H285.863ZM254.128 61.6078V52.1204H251.972V63.5293H259.996V61.6078H254.128ZM234.728 58.7255H240.356V56.804H234.728V54.0419H241.075V52.1204H232.572V63.5293H241.075V61.6078H234.608L234.728 58.7255ZM219.159 52.2405V59.8064L213.292 52.2405H211.375V63.6494H213.531V55.8433L219.519 63.6494H221.315V52.2405H219.159ZM197.843 52.2405V59.8064L191.975 52.2405H190.059V63.6494H192.215V55.8433L198.322 63.6494H200.119V52.2405H197.843ZM175.449 58.9657L173.653 54.7625L171.856 58.9657H175.449ZM179.521 63.4092L177.365 63.5293L176.168 60.7671H171.018L169.821 63.5293H167.665L172.695 52.0003H174.611L179.521 63.4092ZM155.211 56.804H150.061V52.1204H147.906V63.5293H150.061V58.7255H155.211V63.5293H157.366V52.1204H155.211V56.804ZM135.93 60.2867L137.367 61.7279L137.247 61.848C136.05 63.0489 134.733 63.8895 132.697 63.8895C129.344 63.8895 126.949 61.2475 126.949 58.005C126.949 54.7625 129.344 52.1204 132.817 52.1204C134.852 52.1204 136.17 52.841 137.247 53.9218V54.0419L135.93 55.6031H135.81C134.972 54.7625 134.014 54.2821 132.697 54.2821C130.541 54.2821 129.104 55.9634 129.104 58.1251C129.104 60.2867 130.661 62.0881 132.697 62.0881C134.014 61.7279 134.852 61.2475 135.93 60.2867ZM289.455 10.8084L281.312 34.2265L273.648 10.8084H265.864L277.719 42.6331L277.6 42.8732C277.6 42.8732 275.205 49.3583 273.049 50.9195C271.372 51.7601 267.54 51.7601 265.983 51.64V57.6447C268.618 57.6447 274.606 57.7648 276.522 56.5639C278.917 55.0026 279.516 54.4022 281.192 50.9195C282.989 47.1966 297 10.8084 297 10.8084H289.455ZM251.254 16.0925V10.8084H243.949V42.8732H251.254V30.6237C251.254 28.4621 251.493 26.5406 252.092 25.0995C254.247 19.335 260.475 17.6537 263.588 17.1733L261.074 11.0486C258.559 11.4088 254.008 12.6098 251.254 16.0925ZM125.272 37.2289C119.644 37.2289 115.692 32.6653 115.692 26.9009C115.692 21.2565 119.524 16.6929 124.913 16.6929C128.625 16.6929 131.02 18.3742 133.176 20.656L137.726 15.7322C134.733 12.4897 131.02 10.2079 125.033 10.2079C115.452 10.2079 108.506 17.8939 108.506 27.021C108.506 36.148 115.572 43.5938 125.033 43.5938C131.26 43.5938 134.972 41.0718 138.086 37.5891L133.655 33.2658C131.26 35.5476 128.745 37.2289 125.272 37.2289ZM231.255 23.7784C231.135 22.5775 230.895 22.3373 230.416 21.2565C230.057 20.1756 229.458 19.335 228.74 18.6144C228.021 17.8939 227.183 17.2934 226.225 16.813C225.267 16.3327 224.189 16.2126 222.992 16.2126C220.716 16.2126 218.92 16.9331 217.363 18.4943C215.926 20.0556 214.968 21.2565 214.729 23.7784H231.255ZM237.482 20.7761C238.081 22.8177 238.44 25.0995 238.44 27.3812V28.342C238.44 28.7023 238.44 29.0625 238.32 29.4228H214.848C215.208 32.0649 216.285 34.1064 217.962 35.4275C219.638 36.8686 221.674 37.5891 224.069 37.5891C225.866 37.5891 227.423 37.2289 228.74 36.6284C230.057 36.0279 231.374 35.0672 232.692 33.7462L237.003 37.5891C235.446 39.3905 233.65 40.8317 231.494 41.9125C229.339 42.9933 226.824 43.5938 223.95 43.5938C221.674 43.5938 219.519 43.2335 217.483 42.3929C215.447 41.5522 213.771 40.4714 212.333 39.0303C210.896 37.5891 209.699 35.7877 208.861 33.7462C208.022 31.7046 207.543 29.4228 207.543 27.021V26.9009C207.543 24.6191 207.903 22.4574 208.741 20.4158C209.459 18.3742 210.537 16.6929 211.974 15.1317C213.411 13.5705 214.968 12.3696 216.884 11.5289C218.8 10.6883 220.836 10.2079 223.231 10.2079C225.746 10.2079 228.021 10.6883 229.937 11.649C231.853 12.6098 233.41 13.8107 234.728 15.3719C235.925 16.9331 236.883 18.7345 237.482 20.7761ZM190.538 34.3466L181.916 10.8084H174.012L187.185 43.1134H193.772L206.825 10.8084H199.16L190.538 34.3466ZM166.468 26.9009C166.468 25.4597 166.228 24.1387 165.749 22.9378C165.27 21.7369 164.551 20.656 163.713 19.6953C162.875 18.7345 161.797 18.014 160.6 17.5336C159.402 16.9331 158.085 16.6929 156.648 16.6929C155.211 16.6929 153.893 16.9331 152.696 17.5336C151.498 18.014 150.54 18.8546 149.582 19.6953C148.744 20.656 148.025 21.7369 147.666 22.9378C147.187 24.1387 147.067 25.4597 147.067 26.9009V27.021C147.067 28.342 147.307 29.663 147.786 30.984C148.265 32.185 148.983 33.3859 149.822 34.3466C150.66 35.3074 151.738 36.0279 152.935 36.6284C154.133 37.1088 155.45 37.4691 156.887 37.4691C158.444 37.4691 159.761 37.2289 160.959 36.6284C162.156 36.0279 163.114 35.3074 163.953 34.4667C164.791 33.506 165.39 32.4251 165.869 31.2242C166.228 29.663 166.468 28.342 166.468 26.9009ZM172.575 20.2957C173.413 22.3373 173.773 24.499 173.773 26.7808V26.9009C173.773 29.1826 173.294 31.3443 172.455 33.2658C171.617 35.3074 170.419 37.1088 168.863 38.5499C167.306 40.1111 165.509 41.312 163.474 42.1527C161.318 42.9933 159.043 43.4737 156.648 43.4737C154.253 43.4737 151.977 42.9933 149.941 42.1527C147.906 41.312 146.109 40.1111 144.552 38.67C142.996 37.1088 141.798 35.4275 140.96 33.3859C140.122 31.3443 139.643 29.1826 139.643 26.9009V26.7808C139.643 24.499 140.122 22.3373 140.96 20.2957C141.798 18.2542 142.996 16.4528 144.552 15.0116C146.109 13.4504 147.906 12.2495 149.941 11.4088C151.977 10.5682 154.253 10.0878 156.767 10.0878C159.282 10.0878 161.438 10.5682 163.593 11.4088C165.629 12.2495 167.426 13.4504 168.982 15.0116C170.539 16.5729 171.737 18.2542 172.575 20.2957ZM101.92 27.021C100.962 26.3004 99.8841 25.6999 98.6866 25.2196C97.489 24.7392 96.2915 24.2588 95.2137 23.8985C94.2556 23.5383 93.4174 23.2981 92.5791 22.9378C91.7408 22.6976 90.9025 22.3373 90.3037 21.977C89.5852 21.6168 89.1062 21.2565 88.7469 20.7761C88.3877 20.2957 88.1482 19.8154 88.1482 19.335C88.1482 18.3742 88.5074 17.6537 89.3457 17.0532C90.0642 16.4528 91.2618 16.0925 92.6988 16.0925C94.0161 16.0925 95.4532 16.3327 97.01 16.9331C98.5668 17.4135 100.124 18.2542 101.68 19.0948L104.555 13.9308C102.878 12.85 100.962 11.8892 98.9261 11.2888C96.8902 10.6883 94.8544 10.328 92.8186 10.328C91.2618 10.328 89.705 10.5682 88.3877 11.0486C86.9506 11.5289 85.7531 12.1294 84.795 12.9701C83.7173 13.8107 82.9987 14.8915 82.4 15.9724C81.8012 17.1733 81.5617 18.4943 81.5617 20.0555V20.1756C81.5617 21.7368 81.9209 23.0579 82.5197 24.0186C83.1185 25.0995 83.9568 25.9401 84.795 26.6607C85.7531 27.3812 86.8309 27.9817 88.0284 28.342C89.226 28.8223 90.4235 29.1826 91.5013 29.5429C92.4593 29.7831 93.2976 30.1434 94.2556 30.3836C95.0939 30.6237 95.9322 30.984 96.531 31.2242C97.2495 31.5845 97.7285 31.9448 98.0878 32.4251C98.447 32.9055 98.6866 33.3859 98.6866 33.9863V34.1064C98.6866 35.1873 98.2075 36.0279 97.3692 36.6284C96.531 37.2289 95.3334 37.5891 93.6569 37.5891C91.9803 37.5891 90.3037 37.2289 88.5074 36.6284C86.7111 35.9078 84.9148 34.9471 83.2382 33.7462L80.0049 38.67C82.0407 40.2312 84.1963 41.4321 86.5914 42.2728C88.9864 43.1134 91.2618 43.4737 93.5371 43.4737C95.1126 43.4669 96.6813 43.2652 98.2075 42.8732C99.6446 42.3929 100.962 41.7924 101.92 40.9518C102.998 40.1111 103.836 39.0303 104.435 37.8293C105.034 36.5083 105.393 35.0672 105.393 33.3859V33.2658C105.393 31.8247 105.034 30.5037 104.435 29.5429C103.596 28.5822 102.878 27.6214 101.92 27.021ZM67.4307 42.8732H74.7357V10.8084H67.4307V42.8732ZM63.2393 21.2565C63.2393 33.2658 54.0182 42.513 40.7254 42.513H27.9117C30.5463 40.7116 32.7019 38.4298 34.2587 35.6677H40.8452C49.707 35.6677 55.575 29.663 55.575 21.2565C55.575 12.85 49.8268 6.72521 40.8452 6.72521H32.4624V12.9701C31.2648 11.4088 29.8278 10.0878 28.1512 9.00698C27.1932 8.28643 26.1154 7.68596 25.0376 7.20559V0H40.8452C54.0182 0.120093 63.2393 9.36726 63.2393 21.2565Z" fill="#D7D6DB"/>
</svg>
