<svg width="64" height="54" viewBox="0 0 64 54" fill="none" xmlns="http://www.w3.org/2000/svg">
<path d="M21.5037 9.45537C22.3578 10.3582 22.3578 11.6973 21.5037 12.6001C20.5994 13.4557 19.2632 13.4557 18.359 12.6001C17.5049 11.7002 17.5049 10.356 18.359 9.45537C19.2005 8.63597 20.6835 8.63597 21.5037 9.45537Z" fill="white"/>
<path d="M55.4372 40.6221C55.5472 32.6828 55.3715 23.6687 50.9334 15.5832C53.3193 14.7705 56.574 13.8145 60.1602 13.2129C60.956 13.0785 61.6159 12.5226 61.8824 11.7616C62.1489 11.0005 61.9821 10.1545 61.4446 9.55361C56.1865 3.66648 46.2776 0.920384 37.9965 2.87956C29.5464 -1.52969 20.7973 -0.239325 15.4652 2.51637C12.2917 4.15591 10.0985 6.4111 9.24962 8.81394H5.53648C2.48404 8.8132 0 11.2972 0 14.3497C0 17.4021 2.48404 19.8862 5.53648 19.8862H11.0944C14.5765 19.8566 17.4805 19.9467 20.1107 20.1844C20.6223 26.4702 22.5254 32.406 30.2373 35.251C30.9659 35.5182 31.7779 35.3898 32.384 34.9063C32.9908 34.4228 33.3001 33.6587 33.2005 32.891C32.7605 29.485 32.8136 26.4842 33.3658 23.7949C39.0411 27.0297 42.8657 32.6275 45.2368 41.1389C41.4823 42.9098 38.7517 46.3262 37.9153 50.4505C37.7832 51.1016 37.95 51.7771 38.3708 52.2923C38.7916 52.8076 39.4205 53.1051 40.0856 53.1051H61.7857C62.4508 53.1051 63.0798 52.8068 63.5005 52.2916C63.9213 51.7763 64.0874 51.1001 63.956 50.449C63.0251 45.87 59.7667 42.1746 55.4372 40.6221ZM54.8813 9.79943C52.3405 10.4365 50.1192 11.1577 48.4546 11.7542C47.2144 10.1375 45.3792 8.1909 43.5522 6.65544C43.5448 6.6488 43.5382 6.64142 43.5301 6.63477C47.5459 6.64806 51.6687 7.79153 54.8813 9.79943ZM43.2658 48.6759C44.3915 46.7433 46.2429 45.278 48.493 44.6298C49.6313 44.3013 50.3104 43.1335 50.0306 41.9804C47.0749 29.7773 41.6048 22.3444 32.8144 18.5855C32.2511 18.3441 31.6096 18.3463 31.0471 18.5965C30.4861 18.8453 30.052 19.3155 29.8512 19.8965C28.8598 22.757 28.4066 25.8685 28.4856 29.3292C25.8059 27.215 24.6706 23.8555 24.4188 18.0842C24.3716 17.002 23.5493 16.1132 22.4744 15.9818C19.171 15.5795 15.5346 15.4112 11.073 15.457H5.53648C4.92526 15.457 4.42919 14.9609 4.42919 14.3497C4.42919 13.7385 4.92526 13.2424 5.53648 13.2424H11.073C12.2962 13.2424 13.2876 12.251 13.2876 11.0278C13.2876 9.56764 14.9397 7.7716 17.4982 6.45023C22.3083 3.96471 29.8402 3.38301 36.6131 7.17587C51.7743 15.6888 51.1579 31.5726 50.9822 42.2491C50.9652 43.3121 51.7049 44.2364 52.745 44.4541C55.2615 44.9783 57.3698 46.5403 58.6077 48.6759H43.2658Z" fill="white"/>
</svg>
