<svg width="43" height="48" viewBox="0 0 43 48" fill="none" xmlns="http://www.w3.org/2000/svg">
<path d="M30.5907 26.5099L25.9272 26.4247C25.9272 26.4247 24.3163 26.6767 24.2317 28.1207C24.1478 29.5646 24.9916 37.2104 24.9916 37.2104C24.9916 37.2104 28.6118 44.5161 33.614 47.9988L33.525 48C38.5287 44.5189 42.1532 37.2143 42.1532 37.2143C42.1532 37.2143 43.0041 29.5717 42.9198 28.1281C42.8344 26.6842 41.2255 26.4286 41.2255 26.4286L36.5593 26.5118L36.0333 22.5184L30.8478 22.5188L30.5907 26.5099Z" fill="#270EC5"/>
<path d="M33.3056 1.43494e-07C30.2533 -0.000785832 30.0828 3.22751 30.0828 3.22751L30.9055 15.8199L31.8382 16.7543L31.7242 20.8479L35.4173 20.849L35.3087 16.7547L36.2403 15.8207L37.0704 3.22947C37.0704 3.22947 36.9023 0.00196348 33.8519 0.00235529L33.3056 1.43494e-07Z" fill="#270EC5"/>
<path d="M8.96452 47.4137C12.0176 47.4137 12.1881 44.1878 12.1881 44.1878L11.3643 31.5966L10.4323 30.6614L10.5444 26.5667L6.85126 26.5655L6.96139 30.6598L6.02782 31.5926L5.19772 44.1846C5.19772 44.1846 5.36547 47.4133 8.41857 47.4141L8.96452 47.4137Z" fill="#270EC5"/>
<path d="M8.36524 24.5515L5.99214 24.5495L6.04818 20.982L1.80873 20.9251C1.80873 20.9251 -5.14625e-08 20.81 0 19.1125C0.00195963 17.4137 1.58769 1.33157 1.58769 1.33157C1.58769 1.33157 2.88927 -1.10132 3.90553 1.16433L4.4115 10.3938L6.48596 10.6957L7.0711 1.61777C7.0711 1.61777 7.35407 0.201299 8.59843 0.201691L8.80067 0.201692C10.0454 0.202477 10.328 1.61777 10.328 1.61777L10.908 10.6969L12.9801 10.395L13.4928 1.16511C14.5118 -1.09936 15.811 1.33589 15.811 1.33589C15.811 1.33589 17.3881 17.4181 17.3869 19.1168C17.3869 20.8152 15.5786 20.929 15.5786 20.929L11.3392 20.9836L11.3944 24.5511L9.01975 24.5507L8.36524 24.5515Z" fill="#270EC5"/>
</svg>
