<svg width="635" height="389" viewBox="0 0 635 389" fill="none" xmlns="http://www.w3.org/2000/svg">
<path fill-rule="evenodd" clip-rule="evenodd" d="M508.032 240.603C578.025 232.024 631.301 182.888 630.195 124.622C628.993 61.35 564.12 11.2713 485.296 12.7681C452.149 13.3975 421.814 23.0469 397.876 38.7238C373.361 23.967 342.681 15.4762 309.534 16.1056C262.628 16.9963 221.351 35.9502 195.868 64.4871C186.73 63.1958 177.293 62.6065 167.646 62.7897C88.8223 64.2865 25.8968 116.792 27.0982 180.064C28.1017 232.908 73.5187 276.549 134.383 288.627C164.757 329.18 234.576 356.714 315.313 355.181C420.868 353.177 505.89 302.232 508.032 240.603Z" fill="#E3FFC8"/>
<path d="M329.038 166.647L307.217 146.658C307.217 146.658 298.5 141.09 292.044 147.59C285.592 154.093 257.551 193.934 257.551 193.934C257.551 193.934 244.139 243.821 253.327 281.362L252.899 280.994C291.289 285.48 339.148 266.022 339.148 266.022C339.148 266.022 375.235 233.312 380.886 226.105C386.533 218.891 379.954 210.921 379.954 210.921L357.414 191.721L371.654 170.553L346.992 148.778L329.038 166.647Z" fill="#FFC900"/>
<path d="M453.147 52.1108C438.635 39.2891 424.29 53.8995 424.29 53.8995L375.411 117.137L375.93 125.49L358.226 144.445L375.784 159.96L392.433 140.066L400.779 139.544L457.512 83.2529C457.512 83.2529 470.244 67.2242 455.736 54.4163L453.147 52.1108Z" fill="#FFC900"/>
<path d="M477.508 101.816L482.943 183.116C483.813 196.134 481.255 209.153 475.525 220.874L441.212 291.058C438.351 299.181 513.88 325.782 516.741 317.658L536.122 245.601C538.555 236.55 541.797 227.735 545.809 219.264L574.188 159.33C574.188 159.33 593.087 126.018 596.804 113.884C599.771 104.199 591.601 95.7742 587.125 103.085C580.231 114.349 560.382 145.523 560.382 145.523C560.382 145.523 581.145 102.679 587.046 87.1119C590.105 79.0415 580.3 72.3237 575.084 78.7501C565.813 90.1686 542.6 129.018 542.6 129.018C542.6 129.018 562.103 82.3072 565.439 64.5639C566.721 57.7426 553.89 54.9778 550.376 62.3996C543.329 77.2769 524.204 119.04 524.204 119.04C524.204 119.04 536.139 79.921 539.16 67.0052C541.093 58.7476 531.678 51.2751 524.303 62.8106C515.115 77.1817 501.522 127.126 501.522 127.126C501.522 127.126 497.058 94.651 489.225 88.0522C482.988 82.7968 475.621 89.3509 477.508 101.816Z" fill="#FFC900"/>
<g style="mix-blend-mode:multiply">
<path d="M410.916 59.0709C392.057 63.4915 395.667 83.6309 395.667 83.6309L418.955 160.081L426.064 164.498L431.29 189.911L454.104 184.571L447.505 159.482L451.924 152.379L438.85 73.5289C438.85 73.5289 433.147 53.8623 414.287 58.278L410.916 59.0709Z" fill="#250DC5"/>
<path d="M447.707 199.343L462.368 195.92L467.179 217.999L493.448 212.212C493.448 212.212 504.786 210.303 507.24 220.771C509.684 231.249 523.134 332.714 523.134 332.714C523.134 332.714 518.611 349.601 509.059 337.102L492.593 280.921L479.343 282.063L488.85 338.889C488.85 338.889 489.149 348.033 481.462 349.833L480.213 350.125C472.523 351.923 468.732 343.605 468.732 343.605L452.026 288.459L439.663 293.321L449.838 350.978C446.816 366.417 435.271 353.282 435.271 353.282C435.271 353.282 402.284 256.395 399.836 245.918C397.381 235.446 408.386 232.125 408.386 232.125L434.494 225.651L428.996 203.732L443.665 200.296L447.707 199.343Z" fill="#250DC5"/>
</g>
<path d="M71.0362 274.403C68.9207 287.628 76.7312 294.611 83.4328 289.053C91.8485 282.074 96.8786 247.617 96.8786 247.617C96.8786 247.617 110.983 300.678 120.675 315.963C128.454 328.232 138.565 320.332 136.57 311.559C133.45 297.839 121.027 256.275 121.027 256.275C121.027 256.275 141.104 300.67 148.506 316.485C152.197 324.375 165.917 321.483 164.604 314.238C161.187 295.393 140.747 245.744 140.747 245.744C140.747 245.744 165.212 287.061 175.016 299.212C180.532 306.051 191.054 298.952 187.854 290.375C181.682 273.831 159.864 228.283 159.864 228.283C159.864 228.283 180.8 261.441 188.069 273.42C192.787 281.195 201.577 272.28 198.489 261.99C194.62 249.096 174.715 213.673 174.715 213.673L144.907 149.959C140.693 140.954 137.305 131.587 134.78 121.97L114.678 45.4166C111.689 36.7845 30.8414 64.7696 33.8295 73.402L69.8889 148.017C75.911 160.478 78.5356 174.305 77.5005 188.121L71.0362 274.403Z" fill="#FFC900"/>
<g style="mix-blend-mode:multiply">
<path d="M236.928 176.675L215.592 179.812L131.013 192.25L133.254 207.489L145.444 205.696L194.279 347.199L239.235 340.588L260.571 337.451L305.527 330.84L311.558 181.268L323.751 179.475L321.511 164.236L236.928 176.675Z" fill="#250DC5"/>
<path d="M141.743 175.123C135.072 129.754 166.55 87.4163 211.923 80.744C257.285 74.0733 299.63 105.554 306.302 150.924C306.556 152.65 306.749 154.371 306.893 156.088L312.618 155.246C312.466 153.527 312.264 151.803 312.012 150.084C310.265 138.208 306.245 127.024 300.056 116.849C294.087 107.022 286.358 98.5435 277.09 91.6523C267.823 84.7611 257.478 79.8 246.345 76.9092C234.823 73.9152 222.958 73.2803 211.082 75.0267C199.202 76.7737 188.022 80.7937 177.844 86.9826C168.021 92.955 159.542 100.684 152.651 109.952C145.76 119.219 140.799 129.564 137.907 140.694C134.914 152.219 134.279 164.084 136.026 175.963C136.279 177.687 136.582 179.391 136.932 181.082L142.656 180.24C142.304 178.557 141.997 176.85 141.743 175.123Z" fill="#250DC5"/>
</g>
<path d="M347.502 102.389C347.502 102.389 339.746 101.03 339.746 84.8071C339.746 101.03 331.989 102.389 331.989 102.389C331.989 102.389 339.746 103.747 339.746 119.971C339.746 103.747 347.502 102.389 347.502 102.389Z" fill="#2100FF"/>
<path d="M610.197 193.401C610.197 193.401 602.44 192.042 602.44 175.82C602.44 192.042 594.684 193.401 594.684 193.401C594.684 193.401 602.44 194.76 602.44 210.983C602.44 194.76 610.197 193.401 610.197 193.401Z" fill="#2100FF"/>
<path d="M394.043 313.372C394.043 313.372 386.286 312.013 386.286 295.791C386.286 312.013 378.529 313.372 378.529 313.372C378.529 313.372 386.286 314.73 386.286 330.954C386.286 314.73 394.043 313.372 394.043 313.372Z" fill="white"/>
<path d="M63.0886 178.922C63.0886 178.922 55.3316 177.563 55.3316 161.34C55.3316 177.563 47.5751 178.922 47.5751 178.922C47.5751 178.922 55.3316 180.28 55.3316 196.504C55.3316 180.28 63.0886 178.922 63.0886 178.922Z" fill="white"/>
<path d="M340.263 330.954C340.263 330.954 334.574 329.915 334.574 317.509C334.574 329.915 328.886 330.954 328.886 330.954C328.886 330.954 334.574 331.993 334.574 344.399C334.574 331.993 340.263 330.954 340.263 330.954Z" fill="white"/>
<path d="M373.358 340.262C373.358 340.262 361.464 338.183 361.464 313.372C361.464 338.183 349.571 340.262 349.571 340.262C349.571 340.262 361.464 342.339 361.464 367.152C361.464 342.339 373.358 340.262 373.358 340.262Z" fill="white"/>
<path d="M47.5752 146.861C47.5752 146.861 35.6811 144.782 35.6811 119.971C35.6811 144.782 23.7878 146.861 23.7878 146.861C23.7878 146.861 35.6811 148.938 35.6811 173.751C35.6811 148.938 47.5752 146.861 47.5752 146.861Z" fill="white"/>
<path d="M321.647 89.4612C321.647 89.4612 313.89 86.4491 313.89 75.499C313.89 86.4491 306.133 89.4612 306.133 89.4612C306.133 89.4612 313.891 92.4733 313.89 103.423C313.891 92.4733 321.648 89.4612 321.647 89.4612Z" fill="#2100FF"/>
<path d="M509.877 33.6126C504.131 33.2941 503.672 23.7874 503.672 23.7874C503.672 23.7874 503.212 33.2941 497.466 33.6126C503.212 33.932 503.672 43.4378 503.672 43.4378C503.672 43.4378 504.131 33.931 509.877 33.6126Z" fill="white"/>
<path d="M534.698 42.9208C530.868 42.7029 530.562 36.1982 530.562 36.1982C530.562 36.1982 530.255 42.7029 526.425 42.9208C530.255 43.1393 530.562 49.6433 530.562 49.6433C530.562 49.6433 530.868 43.1386 534.698 42.9208Z" fill="white"/>
<path d="M332.286 129.64C324.488 129.327 323.864 119.971 323.864 119.971C323.864 119.971 323.239 129.327 315.441 129.64C323.239 129.954 323.864 139.309 323.864 139.309C323.864 139.309 324.488 129.953 332.286 129.64Z" fill="#2100FF"/>
<path d="M530.562 18.098C530.562 18.098 520.738 20.3935 520.738 36.1981C520.738 20.3935 510.911 18.098 510.911 18.098C510.911 18.098 520.738 15.8025 520.738 0C520.738 15.8025 530.562 18.098 530.562 18.098Z" fill="white"/>
<path d="M595.001 226.851C590.544 226.673 590.188 221.326 590.188 221.326C590.188 221.326 589.832 226.673 585.376 226.851C589.833 227.029 590.188 232.376 590.188 232.376C590.188 232.376 590.544 227.029 595.001 226.851Z" fill="#2100FF"/>
<path d="M297.143 75.8528C292.685 75.6749 292.329 70.3279 292.329 70.3279C292.329 70.3279 291.974 75.6749 287.517 75.8528C291.975 76.0317 292.329 81.3787 292.329 81.3787C292.329 81.3787 292.685 76.0317 297.143 75.8528Z" fill="#2100FF"/>
<path d="M45.8242 193.755C41.3667 193.577 41.0109 188.23 41.0109 188.23C41.0109 188.23 40.6551 193.577 36.1986 193.755C40.6561 193.934 41.0109 199.281 41.0109 199.281C41.0109 199.281 41.3667 193.934 45.8242 193.755Z" fill="white"/>
</svg>
