<svg width="1224" height="603" viewBox="0 0 1224 603" fill="none" xmlns="http://www.w3.org/2000/svg">
<path fill-rule="evenodd" clip-rule="evenodd" d="M40.7093 303.624L94.1455 293.781C106.02 291.594 116.659 298.383 118.97 309.622L151.324 466.972C153.635 478.211 146.463 488.281 134.588 490.469L81.1517 500.312C69.277 502.499 58.6378 495.71 56.3268 484.471L23.9728 327.121C21.6618 315.881 28.8346 305.811 40.7093 303.624Z" fill="white"/>
<path fill-rule="evenodd" clip-rule="evenodd" d="M295.838 179.844C334.59 143.543 374.339 142.054 424.806 132.757C460.43 126.195 492.348 146.562 498.703 177.47L555.323 452.833C562.256 486.551 540.737 516.761 505.113 523.323C454.646 532.619 417.208 545.348 366.323 522.642L190.575 447.114L162.843 312.243L295.838 179.844Z" fill="white"/>
<path fill-rule="evenodd" clip-rule="evenodd" d="M664.949 147.81L721.569 423.173C737.168 499.038 613.061 524.815 596.884 446.14L540.265 170.777C524.666 94.9118 649.35 71.9448 664.949 147.81Z" fill="white"/>
<path fill-rule="evenodd" clip-rule="evenodd" d="M831.195 117.187L887.815 392.55C903.414 468.416 778.73 491.383 763.13 415.517L706.511 140.154C690.912 64.289 815.596 41.3219 831.195 117.187Z" fill="white"/>
<path fill-rule="evenodd" clip-rule="evenodd" d="M923.544 41.8512L1039.32 20.5246C1095.73 10.1348 1151.89 43.5328 1162.87 96.9196L1203.31 293.607C1214.29 346.994 1176.03 400.701 1119.63 411.091L1003.85 432.417C968.227 438.979 936.309 418.612 929.376 384.894L872.756 109.531C866.401 78.6232 887.919 48.4132 923.544 41.8512Z" fill="white"/>
</svg>
