<svg width="27" height="11" viewBox="0 0 27 11" fill="none" xmlns="http://www.w3.org/2000/svg">
<path d="M26.7426 4.41722H25.0426C24.7095 1.92795 22.5771 0 19.998 0C17.9336 0 16.1562 1.23606 15.3561 3.00466C14.8382 2.51278 14.14 2.20875 13.3712 2.20875C12.6024 2.20875 11.9044 2.51278 11.3868 3.00466C10.5867 1.23578 8.80926 0 6.74547 0C4.16574 0 2.03308 1.92795 1.69999 4.41722H0V5.77278H1.69972C2.03308 8.26205 4.16574 10.19 6.7452 10.19C9.55427 10.19 11.8402 7.90435 11.8402 5.095C11.8402 4.25067 12.5268 3.56431 13.3709 3.56431C14.2149 3.56431 14.9024 4.25067 14.9024 5.095C14.9024 7.90435 17.1883 10.19 19.998 10.19C22.5771 10.19 24.7095 8.26205 25.0426 5.77278H26.7426V4.41722ZM6.7452 8.83416C4.68252 8.83416 3.00466 7.15712 3.00466 5.09472C3.00466 3.03232 4.68224 1.35501 6.7452 1.35501C8.80732 1.35501 10.4846 3.03232 10.4846 5.09472C10.4846 7.15712 8.80732 8.83416 6.7452 8.83416ZM19.998 8.83416C17.9358 8.83416 16.258 7.15712 16.258 5.09472C16.258 3.03232 17.9356 1.35501 19.998 1.35501C22.0604 1.35501 23.7379 3.03232 23.7379 5.09472C23.7379 7.15712 22.0601 8.83416 19.998 8.83416Z" fill="white"/>
</svg>
