<svg width="73" height="40" viewBox="0 0 73 40" fill="none" xmlns="http://www.w3.org/2000/svg">
<path d="M69.6575 19.8478L61.8249 18.7832L57.2621 10.8744C56.0454 8.74516 53.764 7.45239 51.3306 7.45239H42.7375C41.901 7.45239 41.2166 8.1368 41.2166 8.9733V32.2432C41.2166 33.0797 41.901 33.7641 42.7375 33.7641H53.6119C53.9161 37.2622 56.8059 39.9998 60.38 39.9998C63.9541 39.9998 66.8438 37.2622 67.148 33.7641H69.2012C70.8742 33.7641 72.2431 32.3953 72.2431 30.7223V22.8136C72.2431 21.2926 71.1024 20.0759 69.6575 19.8478ZM56.1975 18.555H46.4637C46.3116 18.555 46.1595 18.4029 46.1595 18.2508V12.0151C46.1595 11.863 46.3116 11.7109 46.4637 11.7109H51.3306C52.2431 11.7109 53.0796 12.2432 53.6119 13.0037L56.5017 18.0987C56.5777 18.3269 56.4256 18.555 56.1975 18.555ZM60.38 36.8059C58.4028 36.8059 56.8059 35.209 56.8059 33.2318C56.8059 31.2546 58.4028 29.6576 60.38 29.6576C62.3572 29.6576 63.9541 31.2546 63.9541 33.2318C63.9541 35.209 62.3572 36.8059 60.38 36.8059Z" fill="#CDCFFF"/>
<path d="M36.806 0H1.52091C0.684408 0 0 0.684408 0 1.52091V32.2432C0 33.0797 0.684408 33.7641 1.52091 33.7641H4.94295C5.24713 37.2622 8.13685 39.9999 11.711 39.9999C15.2851 39.9999 18.1748 37.2622 18.479 33.7641H36.882C37.7185 33.7641 38.4029 33.0797 38.4029 32.2432V1.52091C38.3269 0.684408 37.6425 0 36.806 0ZM11.711 36.806C9.73381 36.806 8.13685 35.209 8.13685 33.2318C8.13685 31.2546 9.73381 29.6577 11.711 29.6577C13.6882 29.6577 15.2851 31.2546 15.2851 33.2318C15.2851 35.209 13.6882 36.806 11.711 36.806Z" fill="#CDCFFF"/>
</svg>
