<svg width="329" height="285" viewBox="0 0 329 285" fill="none" xmlns="http://www.w3.org/2000/svg">
<path fill-rule="evenodd" clip-rule="evenodd" d="M204.391 284.753C281.342 284.753 329 211.603 329 134.656C329 57.7094 269.492 0 192.541 0C115.59 0 0.0615234 70.2773 0.0615234 147.224C0.0615234 224.17 127.44 284.753 204.391 284.753ZM212.041 192.394C216.738 197.256 222.96 199.687 230.707 199.687C248.59 199.687 257.532 190.787 257.532 172.986V152.961H236.146V172.121C236.146 177.478 234.498 180.156 231.201 180.156C229.553 180.156 228.317 179.538 227.493 178.302C226.669 176.983 226.257 174.923 226.257 172.121V118.843C226.257 116.288 226.586 114.351 227.246 113.033C227.987 111.714 229.306 111.055 231.201 111.055C233.014 111.055 234.292 111.632 235.033 112.785C235.775 113.939 236.146 116.041 236.146 119.09V134.789H257.284V116.494C257.284 108.418 254.894 102.237 250.115 97.9515C245.335 93.6661 239.03 91.5234 231.201 91.5234C222.219 91.5234 215.626 94.2018 211.423 99.5585C207.22 104.915 205.118 112.868 205.118 123.416V172.368C205.118 180.857 207.426 187.532 212.041 192.394ZM106.967 198.699V112.909H94.3584V92.5124H140.838V112.909H128.229V198.699H106.967ZM146.831 92.5124H175.634C183.381 92.5124 188.985 94.4078 192.446 98.1987C195.989 101.99 197.761 108.17 197.761 116.741V121.439C197.761 131.575 194.135 137.632 186.883 139.61C191.333 140.764 194.465 143.442 196.278 147.645C198.091 151.848 198.997 157.411 198.997 164.333C198.997 175.624 197.308 184.194 193.929 190.045C190.55 195.814 184.452 198.699 175.634 198.699H146.831V92.5124ZM171.926 132.44C173.739 132.44 174.975 131.781 175.634 130.462C176.293 129.062 176.623 127.125 176.623 124.653V114.022C176.623 110.56 175.098 108.83 172.049 108.83H167.599V132.44H171.926ZM169.7 180.033C175.222 180.033 177.983 177.395 177.983 172.121V158.894C177.983 155.68 177.488 153.249 176.499 151.601C175.593 149.953 173.945 149.129 171.555 149.129H167.599V179.909L169.7 180.033Z" fill="black"/>
</svg>
