<svg width="647" height="318" viewBox="0 0 647 318" fill="none" xmlns="http://www.w3.org/2000/svg">
<path d="M30.4795 138.59V27.6542H14.2019V1.27881H74.2057V27.6542H57.9281V138.59H30.4795Z" fill="black"/>
<path d="M81.9431 138.59V1.27881H109.232V50.3529H122.158V1.27881H149.447V138.59H122.158V76.2487H109.232V138.59H81.9431Z" fill="black"/>
<path d="M161.58 138.59V1.27881H216.477V27.814H189.507V54.5091H215.36V80.4049H189.507V111.895H218.232V138.59H161.58Z" fill="black"/>
<path d="M264.748 1.27881H301.932C311.932 1.27881 319.167 3.72985 323.635 8.63194C328.21 13.534 330.497 21.5266 330.497 32.6095V38.6839C330.497 51.7916 325.816 59.6243 316.454 62.1819C322.199 63.6738 326.242 67.1373 328.582 72.5722C330.923 78.0071 332.093 85.2004 332.093 94.152C332.093 108.752 329.912 119.835 325.55 127.401C321.188 134.861 313.315 138.59 301.932 138.59H264.748V1.27881ZM297.144 52.9106C299.485 52.9106 301.081 52.058 301.932 50.3529C302.783 48.5413 303.208 46.037 303.208 42.84V29.0928C303.208 24.617 301.24 22.3791 297.304 22.3791H291.559V52.9106H297.144ZM294.272 114.453C301.4 114.453 304.964 111.043 304.964 104.223V87.1186C304.964 82.9625 304.325 79.8187 303.049 77.6874C301.878 75.5561 299.751 74.4904 296.665 74.4904H291.559V114.293L294.272 114.453Z" fill="black"/>
<path d="M341.112 138.59V1.27881H396.009V27.814H369.039V54.5091H394.892V80.4049H369.039V111.895H397.765V138.59H341.112Z" fill="black"/>
<path d="M403.208 138.59L416.454 1.27881H462.893L475.979 138.59H449.966L448.051 116.371H431.455L429.859 138.59H403.208ZM433.529 94.4717H445.977L439.913 24.617H438.636L433.529 94.4717Z" fill="black"/>
<path d="M516.25 139.869C506.249 139.869 498.217 136.726 492.153 130.438C486.195 124.151 483.216 115.519 483.216 104.542V41.2415C483.216 27.6009 485.929 17.3171 491.355 10.3903C496.781 3.46343 505.292 0 516.888 0C526.995 0 535.134 2.77074 541.305 8.31223C547.475 13.8537 550.561 21.8463 550.561 32.2898V55.9477H523.272V35.6467C523.272 31.7037 522.793 28.9862 521.836 27.4943C520.878 26.0024 519.229 25.2564 516.888 25.2564C514.441 25.2564 512.739 26.1089 511.782 27.814C510.931 29.5191 510.505 32.0234 510.505 35.327V104.223C510.505 107.846 511.037 110.51 512.101 112.215C513.165 113.814 514.761 114.613 516.888 114.613C521.144 114.613 523.272 111.149 523.272 104.223V79.4458H550.88V105.342C550.88 128.36 539.337 139.869 516.25 139.869Z" fill="black"/>
<path d="M559.918 138.59V1.27881H587.207V50.3529H600.133V1.27881H627.422V138.59H600.133V76.2487H587.207V138.59H559.918Z" fill="black"/>
<path d="M33.034 299.72C23.0334 299.72 15.0009 296.576 8.93673 290.289C2.97891 284.001 0 275.369 0 264.393V201.092C0 187.452 2.71293 177.168 8.13881 170.241C13.5647 163.314 22.0759 160.782 33.6724 160.782C43.7794 160.782 51.9182 162.621 58.0888 168.163C64.2594 173.704 67.3447 181.697 67.3447 192.14V215.798H40.0557V195.497C40.0557 191.554 39.577 188.837 38.6195 187.345C37.662 185.853 36.0129 185.107 33.6724 185.107C31.2254 185.107 29.5232 185.96 28.5656 187.665C27.7145 189.37 27.289 191.874 27.289 195.178V264.073C27.289 267.696 27.8209 270.361 28.8848 272.066C29.9487 273.664 31.5446 274.463 33.6724 274.463C37.9279 274.463 40.0557 271 40.0557 264.073V239.296H67.6639V265.192C67.6639 288.211 56.1206 299.72 33.034 299.72Z" fill="black"/>
<path d="M109.416 299.72C98.3519 299.72 89.9471 296.363 84.2021 289.649C78.457 282.829 75.5845 273.291 75.5845 261.036V195.657C75.5845 183.828 78.457 174.93 84.2021 168.962C89.9471 162.888 99.1599 160.782 110.224 160.782C121.289 160.782 128.886 162.888 134.631 168.962C140.376 174.93 143.248 183.828 143.248 195.657V261.036C143.248 273.398 140.376 282.936 134.631 289.649C128.886 296.363 120.481 299.72 109.416 299.72ZM109.416 274.463C111.863 274.463 113.512 273.398 114.364 271.266C115.215 269.135 115.64 266.151 115.64 262.315V195.178C115.64 192.194 115.215 189.796 114.364 187.984C113.619 186.066 112.023 185.107 109.576 185.107C105.001 185.107 102.714 188.57 102.714 195.497V262.475C102.714 266.418 103.193 269.402 104.15 271.426C105.108 273.451 106.863 274.463 109.416 274.463Z" fill="black"/>
<path d="M274.03 298.441V161.129H328.927V187.665H301.957V214.36H327.81V240.255H301.957V271.746H330.682V298.441H274.03Z" fill="black"/>
<path d="M371.713 299.72C361.712 299.72 353.68 296.576 347.616 290.289C341.658 284.001 338.679 275.369 338.679 264.393V201.092C338.679 187.452 341.392 177.168 346.818 170.241C352.244 163.314 360.755 159.851 372.351 159.851C382.458 159.851 390.597 162.621 396.768 168.163C402.938 173.704 406.024 181.697 406.024 192.14V215.798H378.735V195.497C378.735 191.554 378.256 188.837 377.299 187.345C376.341 185.853 374.692 185.107 372.351 185.107C369.904 185.107 368.202 185.96 367.245 187.665C366.394 189.37 365.968 191.874 365.968 195.178V264.073C365.968 267.696 366.5 270.361 367.564 272.066C368.628 273.664 370.224 274.463 372.351 274.463C376.607 274.463 378.735 271 378.735 264.073V239.296H406.343V265.192C406.343 288.211 394.8 299.72 371.713 299.72Z" fill="black"/>
<path d="M427.19 298.441V187.505H410.912V161.129H470.916V187.505H454.638V298.441H427.19Z" fill="black"/>
<path d="M477.377 298.441V161.129H503.868V298.441H477.377Z" fill="black"/>
<path d="M527.417 298.441L510.501 160.97H536.672L546.726 254.482L555.663 160.97H581.835L564.919 298.441H527.417Z" fill="black"/>
<path d="M589.615 298.441V161.129H644.512V187.665H617.542V214.36H643.395V240.255H617.542V271.746H646.267V298.441H589.615Z" fill="black"/>
<path d="M169.22 161.113L181.328 162.537L166.596 288.222L154.489 286.798L169.22 161.113Z" fill="black"/>
<path d="M215.934 305.201L214.513 317.329L169.386 312.022L170.807 299.894L215.934 305.201Z" fill="black"/>
<path d="M165.68 289.232L166.011 292.065L154.375 293.431L154.043 290.597L165.68 289.232Z" fill="black"/>
<path d="M166.04 293.42L166.785 296.174L155.478 299.244L154.732 296.491L166.04 293.42Z" fill="black"/>
<path d="M166.906 296.286L168.354 298.743L158.264 304.708L156.816 302.252L166.906 296.286Z" fill="black"/>
<path d="M168.102 298.599L170.413 300.266L163.564 309.788L161.254 308.121L168.102 298.599Z" fill="black"/>
<path d="M189.096 144.693L201.195 143.2L216.649 268.798L204.55 270.291L189.096 144.693Z" fill="black"/>
<path d="M259.627 243.106L268.349 251.637L236.607 284.202L227.884 275.671L259.627 243.106Z" fill="black"/>
<path d="M216.701 269.748L217.693 272.421L206.712 276.513L205.72 273.839L216.701 269.748Z" fill="black"/>
<path d="M218.276 274.188L220.03 276.436L210.798 283.662L209.044 281.414L218.276 274.188Z" fill="black"/>
<path d="M221.49 276.408L224.1 277.55L219.412 288.305L216.802 287.163L221.49 276.408Z" fill="black"/>
<path d="M224.559 277.251L227.28 276.408L230.74 287.62L228.019 288.463L224.559 277.251Z" fill="black"/>
</svg>
