<svg width="115" height="56" viewBox="0 0 115 56" fill="none" xmlns="http://www.w3.org/2000/svg">
<path d="M5.38778 24.4575V4.88021H2.51043V0.225675H13.1171V4.88021H10.2398V24.4575H5.38778Z" fill="#B9FF76"/>
<path d="M14.4848 24.4575V0.225675H19.3086V8.88594H21.5936V0.225675H26.4174V24.4575H21.5936V13.4558H19.3086V24.4575H14.4848Z" fill="#B9FF76"/>
<path d="M28.562 24.4575V0.225675H38.266V4.90842H33.4986V9.61938H38.0685V14.1893H33.4986V19.7465H38.5763V24.4575H28.562Z" fill="#B9FF76"/>
<path d="M46.7988 0.225675H53.3716C55.1394 0.225675 56.4182 0.658218 57.2081 1.5233C58.0167 2.38839 58.4211 3.79886 58.4211 5.7547V6.82666C58.4211 9.13982 57.5936 10.5221 55.9387 10.9734C56.9542 11.2367 57.6688 11.8479 58.0826 12.807C58.4963 13.7662 58.7032 15.0356 58.7032 16.6153C58.7032 19.1917 58.3176 21.1476 57.5466 22.4828C56.7755 23.7993 55.3839 24.4575 53.3716 24.4575H46.7988V0.225675ZM52.5253 9.33729C52.9391 9.33729 53.2212 9.18684 53.3716 8.88594C53.5221 8.56623 53.5973 8.12429 53.5973 7.5601V5.1341C53.5973 4.34423 53.2494 3.94931 52.5535 3.94931H51.538V9.33729H52.5253ZM52.0176 20.1979C53.2776 20.1979 53.9076 19.5961 53.9076 18.3925V15.3741C53.9076 14.6406 53.7948 14.0859 53.5691 13.7097C53.3622 13.3336 52.9861 13.1455 52.4407 13.1455H51.538V20.1697L52.0176 20.1979Z" fill="#B9FF76"/>
<path d="M60.2974 24.4575V0.225675H70.0014V4.90842H65.2341V9.61938H69.804V14.1893H65.2341V19.7465H70.3118V24.4575H60.2974Z" fill="#B9FF76"/>
<path d="M71.2739 24.4575L73.6153 0.225675H81.8242L84.1374 24.4575H79.5393L79.2008 20.5364H76.267L75.9849 24.4575H71.2739ZM76.6337 16.6717H78.8341L77.7621 4.34424H77.5364L76.6337 16.6717Z" fill="#B9FF76"/>
<path d="M91.2561 24.6832C89.4883 24.6832 88.0684 24.1284 86.9965 23.0188C85.9433 21.9092 85.4167 20.3859 85.4167 18.4489V7.27801C85.4167 4.87081 85.8963 3.05601 86.8554 1.83361C87.8145 0.611202 89.319 0 91.3689 0C93.1555 0 94.5942 0.488962 95.6849 1.46688C96.7757 2.44481 97.3211 3.85528 97.3211 5.69828V9.87326H92.4973V6.29068C92.4973 5.59485 92.4127 5.11529 92.2434 4.852C92.0741 4.58872 91.7827 4.45707 91.3689 4.45707C90.9364 4.45707 90.6355 4.60752 90.4662 4.90842C90.3158 5.20932 90.2405 5.65127 90.2405 6.23426V18.3925C90.2405 19.0319 90.3346 19.502 90.5226 19.8029C90.7107 20.085 90.9928 20.2261 91.3689 20.2261C92.1212 20.2261 92.4973 19.6149 92.4973 18.3925V14.02H97.3775V18.5899C97.3775 22.6521 95.337 24.6832 91.2561 24.6832Z" fill="#B9FF76"/>
<path d="M98.9751 24.4575V0.225675H103.799V8.88594H106.084V0.225675H110.908V24.4575H106.084V13.4558H103.799V24.4575H98.9751Z" fill="#B9FF76"/>
<path d="M5.83933 52.8925C4.07155 52.8925 2.65168 52.3377 1.57972 51.2281C0.526573 50.1186 0 48.5953 0 46.6582V35.4873C0 33.0801 0.479557 31.2653 1.43867 30.0429C2.39779 28.8205 3.90229 28.3737 5.95217 28.3737C7.73876 28.3737 9.17743 28.6983 10.2682 29.6762C11.359 30.6541 11.9043 32.0646 11.9043 33.9076V38.0826H7.08054V34.5C7.08054 33.8042 6.99591 33.3246 6.82665 33.0613C6.6574 32.798 6.3659 32.6664 5.95217 32.6664C5.51962 32.6664 5.21872 32.8168 5.04947 33.1177C4.89902 33.4186 4.82379 33.8606 4.82379 34.4436V46.6018C4.82379 47.2412 4.91782 47.7114 5.10589 48.0123C5.29395 48.2944 5.57604 48.4354 5.95217 48.4354C6.70442 48.4354 7.08054 47.8242 7.08054 46.6018V42.2294H11.9608V46.7993C11.9608 50.8614 9.92028 52.8925 5.83933 52.8925Z" fill="#B9FF76"/>
<path d="M19.3412 52.8925C17.3854 52.8925 15.8997 52.3001 14.8842 51.1153C13.8686 49.9117 13.3609 48.2285 13.3609 46.0658V34.5282C13.3609 32.4407 13.8686 30.8704 14.8842 29.8173C15.8997 28.7453 17.5282 28.3737 19.4841 28.3737C21.4399 28.3737 22.7828 28.7453 23.7983 29.8173C24.8138 30.8704 25.3216 32.4407 25.3216 34.5282V46.0658C25.3216 48.2473 24.8138 49.9305 23.7983 51.1153C22.7828 52.3001 21.2971 52.8925 19.3412 52.8925ZM19.3412 48.4354C19.7738 48.4354 20.0653 48.2473 20.2157 47.8712C20.3662 47.4951 20.4414 46.9685 20.4414 46.2915V34.4436C20.4414 33.917 20.3662 33.4939 20.2157 33.1742C20.0841 32.8357 19.802 32.6664 19.3694 32.6664C18.5608 32.6664 18.1564 33.2776 18.1564 34.5V46.3197C18.1564 47.0155 18.2411 47.5421 18.4103 47.8994C18.5796 48.2567 18.8899 48.4354 19.3412 48.4354Z" fill="#B9FF76"/>
<path d="M48.4395 52.6668V28.435H58.1435V33.1177H53.3761V37.8287H57.946V42.3986H53.3761V47.9558H58.4538V52.6668H48.4395Z" fill="#B9FF76"/>
<path d="M65.7067 52.8925C63.9389 52.8925 62.519 52.3377 61.4471 51.2281C60.3939 50.1186 59.8673 48.5953 59.8673 46.6582V35.4873C59.8673 33.0801 60.3469 31.2653 61.306 30.0429C62.2651 28.8205 63.7696 28.2093 65.8195 28.2093C67.6061 28.2093 69.0448 28.6983 70.1355 29.6762C71.2263 30.6541 71.7717 32.0646 71.7717 33.9076V38.0826H66.9479V34.5C66.9479 33.8042 66.8633 33.3246 66.694 33.0613C66.5247 32.798 66.2333 32.6664 65.8195 32.6664C65.387 32.6664 65.0861 32.8168 64.9168 33.1177C64.7664 33.4186 64.6912 33.8606 64.6912 34.4436V46.6018C64.6912 47.2412 64.7852 47.7114 64.9732 48.0123C65.1613 48.2944 65.4434 48.4354 65.8195 48.4354C66.5718 48.4354 66.9479 47.8242 66.9479 46.6018V42.2294H71.8281V46.7993C71.8281 50.8614 69.7876 52.8925 65.7067 52.8925Z" fill="#B9FF76"/>
<path d="M75.5132 52.6668V33.0895H72.6358V28.435H83.2425V33.0895H80.3652V52.6668H75.5132Z" fill="#B9FF76"/>
<path d="M84.3846 52.6668V28.435H89.0673V52.6668H84.3846Z" fill="#B9FF76"/>
<path d="M93.2299 52.6668L90.2398 28.4068H94.8661L96.6433 44.9092L98.223 28.4068H102.849L99.8591 52.6668H93.2299Z" fill="#B9FF76"/>
<path d="M104.225 52.6668V28.435H113.929V33.1177H109.161V37.8287H113.731V42.3986H109.161V47.9558H114.239V52.6668H104.225Z" fill="#B9FF76"/>
<rect x="29.9121" y="28.4324" width="2.15488" height="22.3324" transform="rotate(6.69625 29.9121 28.4324)" fill="#B9FF76"/>
<rect x="38.1694" y="53.8599" width="2.15488" height="8.03182" transform="rotate(96.6963 38.1694 53.8599)" fill="#B9FF76"/>
<rect x="29.2866" y="51.0415" width="0.503419" height="2.07103" transform="rotate(83.3195 29.2866 51.0415)" fill="#B9FF76"/>
<rect x="29.3501" y="51.7809" width="0.503419" height="2.07103" transform="rotate(74.8305 29.3501 51.7809)" fill="#B9FF76"/>
<rect x="29.5029" y="52.2867" width="0.503419" height="2.07103" transform="rotate(59.4463 29.5029 52.2867)" fill="#B9FF76"/>
<rect x="29.7144" y="52.6947" width="0.503419" height="2.07103" transform="rotate(35.7703 29.7144 52.6947)" fill="#B9FF76"/>
<rect x="33.4258" y="25.5347" width="2.15488" height="22.3324" transform="rotate(-7.02633 33.4258 25.5347)" fill="#B9FF76"/>
<rect x="45.8931" y="42.9016" width="2.15488" height="8.03182" transform="rotate(44.3149 45.8931 42.9016)" fill="#B9FF76"/>
<rect x="38.3052" y="47.603" width="0.503419" height="2.07103" transform="rotate(69.5969 38.3052 47.603)" fill="#B9FF76"/>
<rect x="38.5837" y="48.3866" width="0.503419" height="2.07103" transform="rotate(51.9947 38.5837 48.3866)" fill="#B9FF76"/>
<rect x="39.1511" y="48.7788" width="0.503419" height="2.07102" transform="rotate(23.5863 39.1511 48.7788)" fill="#B9FF76"/>
<rect x="39.6943" y="48.9274" width="0.503419" height="2.07103" transform="rotate(-17.1754 39.6943 48.9274)" fill="#B9FF76"/>
</svg>
