<svg width="297" height="86" viewBox="0 0 297 86" fill="none" xmlns="http://www.w3.org/2000/svg">
<path d="M0 86V0H60.8984V86H0ZM52.0861 77.3366V8.66281H8.76922V77.3366H52.0861Z" fill="#D7D6DB"/>
<path d="M101.363 38.5748H97.5948C92.6569 31.6946 87.7395 24.8566 82.844 17.1169V38.5748H78.5874V8.64258H82.3546C87.2931 15.4806 92.2099 22.2767 97.0629 29.9749V8.64258H101.32V38.5748H101.363Z" fill="#D7D6DB"/>
<path d="M111.239 26.7447C112.453 22.8223 113.666 19.1723 114.751 14.5581C115.965 19.1726 117.05 22.8223 118.178 26.7447H111.239ZM113.24 8.66365L102.725 38.5748H107.238L109.877 30.4153H119.03L121.413 38.5748H127.224L117.625 8.64258H113.368L113.24 8.66365Z" fill="#D7D6DB"/>
<path d="M132.163 38.5742V12.6695H124.18V8.66309H145.296V12.6695H137.314V38.5742H132.099H132.163Z" fill="#D7D6DB"/>
<path d="M147.063 38.5748V8.64258H152.235V38.5748H147.063Z" fill="#D7D6DB"/>
<path d="M168.263 34.7568C162.836 34.7568 160.92 28.8626 160.92 23.1362C160.92 17.4098 163.048 12.3548 168.263 12.3548C173.479 12.3548 175.586 17.6199 175.586 23.1362C175.586 28.6531 173.691 34.7568 168.263 34.7568ZM168.263 38.9519C176.203 38.9519 181.141 31.9884 181.141 23.0525C181.141 14.6625 175.671 7.99219 168.263 7.99219C160.856 7.99219 155.385 14.6625 155.385 23.0525C155.385 32.1137 160.324 39.0989 168.263 39.0989V38.9519Z" fill="#D7D6DB"/>
<path d="M207.025 38.5748H203.257C198.319 31.6946 193.402 24.8566 188.506 17.1169V38.5748H184.25V8.64258H188.017C192.955 15.4806 197.872 22.2767 202.725 29.9749V8.64258H206.982V38.5748H207.025Z" fill="#D7D6DB"/>
<path d="M216.965 26.7441C218.179 22.8217 219.392 19.1718 220.477 14.5575C221.691 19.1721 222.776 22.8217 223.905 26.7441H216.88H216.965ZM218.966 8.66309L208.472 38.5953H212.985L215.624 30.4356H224.777L227.161 38.5953H232.972L223.287 8.66309H219.03H218.966Z" fill="#D7D6DB"/>
<path d="M234.483 8.64258H239.656V34.5473H249.937V38.5748H234.483V8.64258Z" fill="#D7D6DB"/>
<path d="M98.1481 63.6187V75.973C95.4091 77.1126 92.4786 77.7383 89.5066 77.8188C80.5663 77.8188 74.925 70.9808 74.925 62.1714C74.925 54.0114 80.5663 46.8594 89.6764 46.8594C92.3123 46.8737 94.8808 47.6786 97.0415 49.1665L95.3598 52.7114C93.6779 51.7204 91.7635 51.1786 89.8048 51.1385C84.2488 51.1385 80.481 55.4596 80.481 62.2554C80.481 69.0513 84.7379 73.5403 89.2936 73.5403C90.5496 73.5938 91.7997 73.3412 92.9331 72.806V63.6187H98.1481Z" fill="#D7D6DB"/>
<path d="M116.774 51.3895H108.089V59.5913H116.603V63.6188H108.089V73.2884H118.327V77.3155H102.874V47.3418H116.753V51.369L116.774 51.3895Z" fill="#D7D6DB"/>
<path d="M132.823 73.54C127.395 73.54 125.501 67.6456 125.501 61.9197C125.501 56.1933 127.629 51.138 132.823 51.138C138.017 51.138 140.167 56.4028 140.167 61.9197C140.167 67.436 138.251 73.54 132.823 73.54ZM132.823 77.7352C140.762 77.7352 145.701 70.771 145.701 61.8357C145.701 53.4457 140.23 46.7754 132.823 46.7754C125.416 46.7754 119.946 53.4457 119.946 61.8357C119.946 70.855 124.883 77.8188 132.823 77.8188V77.7352Z" fill="#D7D6DB"/>
<path d="M170.711 63.6187V75.973C167.972 77.1126 165.041 77.7383 162.069 77.8188C153.129 77.8188 147.488 70.9808 147.488 62.1714C147.488 54.0114 153.129 46.8594 162.24 46.8594C164.875 46.8737 167.444 47.6786 169.604 49.1665L167.923 52.7114C166.241 51.7204 164.326 51.1786 162.367 51.1385C156.812 51.1385 153.044 55.4596 153.044 62.2554C153.044 69.0513 157.301 73.5403 161.856 73.5403C163.112 73.5938 164.362 73.3412 165.496 72.806V63.6187H170.711Z" fill="#D7D6DB"/>
<path d="M180.694 51.3894H182.993C185.415 51.1532 187.572 52.8961 187.812 55.2828C187.843 55.5927 187.841 55.905 187.804 56.2141C188.187 59.0975 186.125 61.7406 183.2 62.1179C183.089 62.1319 182.978 62.143 182.866 62.1504L180.737 62.2762V51.3686L180.694 51.3894ZM193.892 77.295L187.868 64.8983C191.142 63.1071 193.159 59.6948 193.125 56.0045C193.125 50.1941 189.528 47.3628 183.717 47.3628H175.607V77.295H180.822V66.0095H183.164L188.059 77.295H193.998H193.892Z" fill="#D7D6DB"/>
<path d="M202.47 65.4646C203.683 61.5423 204.897 57.8923 205.982 53.2775C207.196 57.8923 208.281 61.5209 209.409 65.4646H202.385H202.47ZM204.471 47.3418L193.977 77.2737H198.511L201.15 69.1137H210.303L212.687 77.2737H218.498L208.813 47.3418H204.556H204.471Z" fill="#D7D6DB"/>
<path d="M228.311 47.3418H220.201V77.2737H225.416V66.0096H227.758C233.235 66.0459 237.706 61.6991 237.743 56.3008C237.744 56.2019 237.743 56.1029 237.74 56.0043C237.655 50.1939 234.058 47.3418 228.311 47.3418ZM227.565 62.1291L225.437 62.2549V51.369H227.778C230.202 51.1562 232.342 52.9198 232.559 55.308C232.585 55.6031 232.581 55.8995 232.546 56.1931C232.938 59.087 230.876 61.7457 227.939 62.1317C227.794 62.1507 227.648 62.1639 227.502 62.1715L227.565 62.1291Z" fill="#D7D6DB"/>
<path d="M261.793 77.2951H256.578V62.8847H245.765V77.2951H240.593V47.3418H245.765V58.8359H256.578V47.4252H261.793V77.2737V77.2951Z" fill="#D7D6DB"/>
<path d="M266.774 77.2951V47.3418H271.946V77.2737H266.774V77.2951Z" fill="#D7D6DB"/>
<path d="M295.361 52.7955C293.756 51.7954 291.914 51.2244 290.018 51.1387C284.717 51.1387 280.865 55.4591 280.865 62.255C280.865 69.0508 285.123 73.5401 290.146 73.5401C291.992 73.5354 293.799 73.0197 295.361 72.051L296.787 75.7638C294.742 77.0715 292.371 77.797 289.933 77.8611C280.993 77.8611 275.353 71.0231 275.353 62.2131C275.353 54.054 280.951 46.9014 290.018 46.9014C292.525 46.978 294.953 47.7806 297 49.2088L295.361 52.7955Z" fill="#D7D6DB"/>
</svg>
