<svg width="271" height="52" viewBox="0 0 271 52" fill="none" xmlns="http://www.w3.org/2000/svg">
<path fill-rule="evenodd" clip-rule="evenodd" d="M52.6489 25.7312H50.9875C48.0311 25.7312 45.6295 27.8884 45.6295 30.768C45.6295 33.1072 46.3682 35.8048 49.51 35.8048C52.281 35.8048 52.8343 33.6476 52.8343 31.4861V26.0882C52.8329 26.0882 53.0183 25.7312 52.6489 25.7312ZM136.828 52H131.009C126.833 51.5147 123.216 49.9613 123.216 46.2409C123.216 43.5433 126.355 41.5653 128.943 41.2041C128.943 41.2041 129.682 41.0249 128.943 41.0249C128.019 40.8429 123.032 40.4846 121.369 40.8429C121.369 40.8429 121 40.8429 120.814 40.4846C120.63 40.1234 119.706 37.605 119.521 37.4258C119.337 37.0647 119.705 36.8855 119.705 36.8855C123.4 36.3451 126.724 34.5463 128.202 34.0059C129.126 33.8267 128.202 33.6476 128.202 33.6476C123.031 32.746 117.856 29.3289 117.856 23.3906C117.856 14.9339 125.061 11.1557 131.895 11.1557C135.036 11.1557 136.883 11.696 138.545 11.8752C138.545 11.8752 138.729 12.0558 138.916 11.696C138.916 11.1557 139.468 9.71658 139.468 9.71658C140.21 7.55797 141.315 6.65784 144.642 6.65784C145.381 6.65784 146.12 6.65784 146.673 6.83843C146.673 6.83843 147.044 6.65785 147.044 7.19821C146.857 7.37738 145.747 11.696 145.747 11.8752C145.564 12.4156 145.38 12.0558 145.38 12.0558C144.825 11.696 144.641 11.5154 143.349 11.696C142.607 11.696 142.239 12.235 142.239 12.9559C142.239 14.2158 148.149 16.0147 148.149 22.8517C148.149 32.0279 139.467 34.0059 131.894 35.8062C131.894 35.8062 131.155 35.9854 131.894 35.9854C136.881 36.5257 147.226 37.7842 147.226 44.0837C147.231 49.3871 141.156 51.4314 136.828 52ZM64.4717 37.4258H65.9491C66.3185 37.4258 66.3185 37.7842 66.3185 37.7842V40.6638C66.3185 41.2041 65.7652 41.0249 65.7652 41.0249H53.9425C53.9425 41.0249 53.757 41.0249 53.757 40.6638C53.5731 39.9442 53.2037 39.2247 53.2037 38.6857C53.0198 37.9662 52.6489 38.6857 52.6489 38.6857C50.2473 40.4846 47.4763 41.9237 44.152 41.9237C38.61 41.9237 34.3615 38.5066 34.3615 32.9266C34.3615 26.0896 38.7954 22.3127 44.3374 22.3127L52.8343 21.953V21.5946V20.6945C52.8343 18.3553 51.5408 17.276 48.7698 17.276C45.2601 17.276 43.5987 18.5359 41.9358 20.5139C41.9358 20.5139 41.9358 20.6931 41.5664 20.6931C41.197 20.5139 38.2421 19.4332 38.2421 19.4332C38.2421 19.4332 37.8727 19.4332 38.0581 19.0734C38.2435 18.7136 41.9372 10.0778 41.9372 10.0778C41.9372 10.0778 41.9372 9.718 42.1212 9.89859C42.6745 10.0778 44.8922 10.7987 45.4455 10.7987C45.8149 10.9779 45.6295 11.3377 45.6295 11.3377L45.2601 12.0572C45.0761 12.7767 45.4441 12.417 45.4441 12.417C47.8457 11.5168 50.2473 11.1571 52.6489 11.1571C59.6684 11.1571 64.2877 14.0366 64.2877 21.0528V36.8869C64.2862 36.8855 64.2862 37.4258 64.4717 37.4258ZM65.2104 13.3143C70.0122 12.0544 74.0767 8.99564 76.109 4.677C76.109 4.677 76.109 4.49782 76.4783 4.49782C76.8477 4.49782 79.2493 5.03818 79.6187 5.03818C79.9881 5.21736 79.8027 5.39795 79.8027 5.39795C79.6187 6.83844 79.4333 8.45669 79.4333 9.71658V11.8752C79.4333 12.235 79.8027 12.0558 79.8027 12.0558H84.7899C85.1593 12.0558 84.9738 12.4156 84.9738 12.4156C84.9738 12.4156 84.2351 16.0147 84.2351 16.3744C84.0511 16.7342 83.8657 16.7342 83.8657 16.7342H79.8012C79.4304 16.7342 79.4319 16.9148 79.4319 16.9148V33.649C79.4319 35.627 81.0947 35.9854 82.0189 35.9854C82.9416 35.9854 83.127 35.9854 83.8657 35.627C83.8657 35.627 84.2351 35.2658 84.2351 35.627C84.4191 35.9854 85.3432 38.3246 85.5286 38.6857C85.7126 38.8649 85.3432 39.0441 85.3432 39.0441C81.4641 41.7445 81.0947 41.9237 75.9221 41.9237C70.1962 41.9237 68.1639 39.2261 68.1639 34.1893V16.9134C68.1639 16.9134 68.1639 16.7328 67.7945 16.7328H65.209C65.209 16.7328 65.0235 16.7328 65.0235 16.373V13.674C65.025 13.4949 65.2104 13.3143 65.2104 13.3143ZM149.445 26.4494C149.445 17.0925 157.02 11.1557 166.997 11.1557C176.97 11.1557 184.73 17.0925 184.73 26.4494C184.73 36.1659 176.97 41.9222 166.997 41.9222C157.018 41.9222 149.445 36.1659 149.445 26.4494ZM160.9 22.3113C160.9 26.63 162.747 37.4258 169.028 37.4258C172.352 37.4258 173.275 34.0059 173.275 30.768C173.275 26.4494 171.431 15.6549 164.963 15.6549C160.9 15.6535 160.9 20.1513 160.9 22.3113ZM219.829 41.0235H204.311C204.311 41.0235 204.127 41.0235 204.127 40.8415V37.7828C204.127 37.4244 204.495 37.4244 204.495 37.4244H206.341C206.528 37.4244 206.528 37.2452 206.528 37.2452V20.8722C206.528 19.0734 204.865 18.3524 203.201 18.3524C201.17 18.3524 199.693 19.2526 198.214 20.5111C198.214 20.5111 198.03 20.6902 198.03 20.8708V37.2452C198.03 37.2452 198.03 37.4244 198.214 37.4244H200.248C200.248 37.4244 200.432 37.4244 200.432 37.7828V40.8415C200.432 41.0235 200.248 41.0235 200.248 41.0235H184.73C184.73 41.0235 184.546 41.2027 184.546 40.6624V37.7828C184.546 37.4244 184.73 37.4244 184.73 37.4244H186.39C186.761 37.4244 186.577 37.2452 186.577 37.2452V17.9927C186.577 17.9927 186.761 17.6329 186.39 17.6329L184.73 18.1733C184.73 18.1733 184.546 18.3525 184.546 17.9941V14.9354C184.546 14.5756 184.73 14.7562 184.73 14.7562L197.846 11.3377C197.846 11.3377 198.214 11.1585 198.214 11.5168V15.6563C198.214 16.1952 198.401 15.8355 198.401 15.8355C201.541 13.4963 204.681 11.1571 208.928 11.1571C216.872 11.1571 217.982 16.3744 217.982 19.6138V37.2481C217.982 37.2481 217.798 37.4272 218.166 37.4272H219.829C219.829 37.4272 220.012 37.4273 220.012 37.7856V40.6652C220.012 41.2027 219.829 41.0235 219.829 41.0235ZM235.53 11.3348L222.414 14.7533C222.414 14.7533 222.23 14.7534 222.23 15.1131V17.9927C222.23 18.3525 222.598 18.1719 222.598 18.1719C222.598 18.1719 223.524 17.9927 224.261 17.8121C224.632 17.8121 224.445 18.1719 224.445 18.351V37.2452C224.445 37.2452 224.632 37.4244 224.261 37.4244H222.414C222.414 37.4244 222.043 37.4244 222.043 37.7828V40.8415C222.043 41.2027 222.414 41.0235 222.414 41.0235H237.748C238.116 41.0235 237.932 40.6624 237.932 40.6624V37.7828C237.932 37.4244 237.561 37.4244 237.561 37.4244H236.084C235.713 37.4244 235.9 37.2452 235.9 37.2452V11.514C235.9 11.1542 235.53 11.3348 235.53 11.3348ZM230.913 2.33921C233.498 2.33921 236.452 3.05875 236.452 6.11749C236.452 9.71659 231.467 11.1557 228.327 11.1557C225.738 11.1557 224.077 9.89576 224.077 7.37738C224.077 4.49782 228.14 2.33921 230.913 2.33921ZM104.003 25.7312H102.524C99.3836 25.7312 97.1674 27.8884 97.1674 30.768C97.1674 33.1072 97.9061 35.8048 100.863 35.8048C103.819 35.8048 104.372 33.6476 104.372 31.4861V26.0882C104.372 26.0882 104.372 25.7312 104.003 25.7312ZM116.011 37.4258H117.305C117.858 37.4258 117.858 37.7842 117.858 37.7842V40.6638C117.858 41.2041 117.305 41.0249 117.305 41.0249H105.482C105.482 41.0249 105.296 41.0249 105.112 40.6638C104.929 39.9442 104.743 39.2247 104.743 38.6857C104.559 37.9662 104.19 38.6857 104.19 38.6857C101.603 40.4846 99.0171 41.9237 95.6914 41.9237C89.9654 41.9237 85.7169 38.5066 85.7169 32.9266C85.7169 26.0896 90.3348 22.1321 95.8768 22.1321L104.19 21.9515C104.19 21.9515 104.374 21.9515 104.374 21.5932V20.6931C104.374 18.3539 103.08 17.2746 100.309 17.2746C96.7995 17.2746 95.1366 18.5344 93.4737 20.5125C93.4737 20.5125 93.2897 20.6916 93.1043 20.5125C92.735 20.5125 89.5946 19.4332 89.5946 19.4332C89.5946 19.4332 89.4106 19.4332 89.5946 19.0734C89.7785 18.7136 93.2897 10.0778 93.2897 10.0778C93.2897 10.0778 93.2897 9.718 93.6591 9.89859C94.0285 10.0778 96.4301 10.7987 96.7995 10.7987C97.1688 10.9779 96.9834 11.3377 96.9834 11.3377C96.9834 11.3377 96.9834 11.6974 96.7995 12.0572C96.4301 12.7767 96.9834 12.417 96.9834 12.417C99.3851 11.5168 101.787 11.1571 104.188 11.1571C111.208 11.1571 115.827 14.0366 115.827 21.0528V36.8869C115.826 36.8855 115.64 37.4258 116.011 37.4258ZM128.202 18.8928C128.202 22.1307 130.049 30.9472 134.668 30.9472C137.071 30.9472 137.992 29.8665 137.992 26.9897C137.992 23.7504 135.96 14.9339 131.342 14.9339C129.126 14.9339 128.202 16.0132 128.202 18.8928ZM133.005 42.4626C132.452 43.003 132.082 44.981 132.082 46.2409C132.082 47.6814 132.821 49.2996 134.668 49.2996C136.147 49.2996 137.071 48.5801 137.071 47.1424C137.071 44.442 135.407 43.5433 133.376 42.2848C133.376 42.2834 133.19 42.2834 133.005 42.4626ZM256.219 25.7312H254.742C251.602 25.7312 249.384 27.8884 249.384 30.768C249.384 33.1072 250.123 35.8048 253.079 35.8048C256.035 35.8048 256.59 33.6476 256.59 31.4861V26.0882C256.59 26.0882 256.59 25.7312 256.219 25.7312ZM268.226 37.4258H269.705C270.073 37.4258 270.073 37.7842 270.073 37.7842V40.6638C270.073 41.2041 269.518 41.0249 269.518 41.0249H257.695C257.695 41.0249 257.511 41.0249 257.328 40.6638C257.144 39.9442 256.957 39.2247 256.957 38.6857C256.773 37.9662 256.402 38.6857 256.402 38.6857C253.816 40.4846 251.231 41.9237 247.906 41.9237C242.18 41.9237 237.931 38.5066 237.931 32.9266C237.931 26.0896 242.548 22.1321 248.09 22.1321L256.402 21.9515C256.402 21.9515 256.589 21.9515 256.589 21.5932V20.6931C256.589 18.3539 255.295 17.2746 252.523 17.2746C249.015 17.2746 247.352 18.5344 245.687 20.5125C245.687 20.5125 245.503 20.6916 245.319 20.5125C244.949 20.5125 241.992 19.4332 241.992 19.4332C241.992 19.4332 241.624 19.4332 241.808 19.0734C241.992 18.7136 245.503 10.0778 245.503 10.0778C245.503 10.0778 245.503 9.718 245.874 9.89859C246.242 10.0778 248.644 10.7987 249.015 10.7987C249.384 10.9751 249.384 11.3348 249.384 11.3348L249.016 12.0544C248.645 12.7739 249.2 12.4141 249.2 12.4141C251.602 11.514 254.003 11.1543 256.403 11.1543C263.426 11.1543 268.042 14.0338 268.042 21.05V36.8841C268.042 36.8855 268.042 37.4258 268.226 37.4258ZM13.671 18.1733V32.7474C13.671 35.2658 14.5952 37.4258 17.5501 37.4258C21.2453 37.4258 22.9082 35.2658 22.9082 28.608C22.9082 17.9941 17.3662 17.4537 15.5193 17.4537L14.0404 17.6329C14.0404 17.6329 13.671 17.8135 13.671 18.1733ZM13.855 13.8546C16.626 12.235 18.6582 11.1557 21.4292 11.1557C28.6341 11.1557 34.3601 16.9134 34.3601 25.3701C34.3601 33.6476 29.0035 41.9222 19.7663 41.9222C17.9195 41.9222 15.5179 41.7431 13.855 40.8415C13.855 40.8415 13.671 40.8415 13.671 41.0235V46.2395C13.671 46.2395 13.671 46.6007 14.0404 46.6007H17.3647C17.3647 46.6007 17.7341 46.6007 17.7341 46.9618V49.8386C17.7341 50.0206 17.3647 50.1997 17.3647 50.1997H0.554779C0.554779 50.1997 0 50.1997 0 49.8386V49.8103V49.7821V49.7525V49.7229V49.6904V49.6552V49.6199V49.5846V49.5465V49.5056V49.4647V49.4209V49.3772V49.3335V49.2869V49.2432V49.1938V49.1444V49.095V49.0457V48.9935V48.9441V48.8891V48.8397V48.7847V48.7325V48.6774V48.6252V48.5702V48.5152V48.4602V48.408V48.3529V48.2979V48.2401V48.1879V48.1328V48.0778V48.0256V47.9734V47.9212V47.869V47.8168V47.7646V47.7152V47.6658V47.6165V47.5727V47.5234V47.4796V47.4331V47.3893V47.3484V47.3075V47.2666V47.2285V47.1904V47.1551V47.1227V47.0902V47.0578V47.0295V47.0013V46.9759C0 46.6148 0.369369 46.6148 0.369369 46.6148H1.84685C2.21622 46.6148 2.21622 46.2536 2.21622 46.2536V18.0068C2.21622 17.647 1.84685 17.8276 1.84685 17.8276L0.369369 18.1874C0.369369 18.1874 0 18.1874 0 17.8276V17.8079V17.7867V17.7627V17.7373V17.7091V17.6795V17.647V17.6132V17.5751V17.5384V17.4975V17.4565V17.4128V17.3677V17.3211V17.2746V17.2252V17.1758V17.1236V17.0714V17.0164V16.9628V16.9077V16.8513V16.7949V16.737V16.6792V16.6213V16.5621V16.5042V16.445V16.3871V16.3279V16.2686V16.2094V16.1515V16.0923V16.0344V15.9766V15.9201V15.8637V15.8087V15.7536V15.7V15.6464V15.5956V15.5448V15.4969V15.4475V15.4009V15.3558V15.3135V15.2711V15.2316V15.1935V15.1583V15.123V15.092V15.0623V15.0341V15.0073V14.9847V14.965V14.9466C0 14.5869 0.369369 14.5869 0.369369 14.5869L13.3002 11.349C13.3002 11.349 13.6696 11.1698 13.6696 11.5281V13.6867C13.671 14.0338 13.855 13.8546 13.855 13.8546ZM262.871 3.95887C262.871 1.79884 264.718 0 266.934 0C269.152 0 271 1.79884 271 3.95887C271 6.29807 269.153 8.09692 266.934 8.09692C264.718 8.09692 262.871 6.29807 262.871 3.95887ZM270.444 3.95887C270.444 2.16002 268.965 0.540363 266.933 0.540363C264.9 0.540363 263.237 2.16002 263.237 3.95887C263.237 5.9383 264.9 7.55656 266.933 7.55656C268.965 7.55656 270.444 5.9383 270.444 3.95887ZM268.965 6.29808H268.226L266.933 4.13947H266.01V6.29808H265.455V1.80026H267.302C267.67 1.80026 268.225 1.80025 268.411 1.98084C268.779 2.16002 268.963 2.70039 268.963 3.06016C268.963 3.78111 268.411 4.14088 267.486 4.14088L268.965 6.29808ZM266.749 3.77828C267.487 3.77828 268.411 3.95746 268.411 3.05733C268.411 2.33779 267.857 2.15862 267.302 2.15862H266.008V3.77828H266.749Z" fill="#D7D6DB"/>
</svg>
