<svg width="64" height="61" viewBox="0 0 64 61" fill="none" xmlns="http://www.w3.org/2000/svg">
<path d="M58.2087 18.6277H42.3716L37.4844 3.95251C36.685 1.55165 34.5321 0 32.0002 0C29.4682 0 27.3153 1.55165 26.5159 3.95322L21.6287 18.6277H5.79161C3.24115 18.6277 1.08394 20.1943 0.295286 22.6194C-0.493364 25.0437 0.328769 27.5792 2.39052 29.0803L15.1963 38.4023L10.349 53.1088C9.55177 55.5282 10.3625 58.0659 12.415 59.5748C14.4383 61.0623 17.1091 61.1172 19.2022 59.6168L32.0002 50.4522L44.7974 59.6168C46.867 61.1001 49.5314 61.0851 51.5846 59.5748C53.6371 58.0659 54.4485 55.5275 53.6506 53.1088L48.8033 38.4023L61.6091 29.0803C63.6715 27.58 64.4937 25.0437 63.7043 22.6194C62.9164 20.1943 60.7592 18.6277 58.2087 18.6277ZM59.0949 25.6244L45.0296 35.864C44.278 36.4111 43.966 37.3793 44.2574 38.2613L49.592 54.4475C49.909 55.41 49.26 55.9792 49.0534 56.1316C48.8489 56.2841 48.1087 56.7308 47.2859 56.1423L33.244 46.0858C32.501 45.5536 31.4993 45.5536 30.7563 46.0858L16.7137 56.1416C15.8902 56.7294 15.1507 56.2812 14.9469 56.1309C14.7403 55.9785 14.0913 55.4085 14.4083 54.4468L19.743 38.2606C20.0343 37.3786 19.7223 36.4104 18.9707 35.8633L4.90536 25.6244C4.08537 25.0273 4.28057 24.186 4.35965 23.9423C4.43873 23.6987 4.77713 22.9022 5.79161 22.9022H23.1704C24.0909 22.9022 24.908 22.3137 25.198 21.4403L30.571 5.30326C30.8895 4.34862 31.7451 4.27453 31.9994 4.27453C32.2538 4.27453 33.1101 4.34862 33.4278 5.30326L38.8009 21.4403C39.0923 22.3137 39.9095 22.9022 40.8299 22.9022H58.2087C59.2232 22.9022 59.5609 23.6973 59.6407 23.9416C59.7205 24.186 59.9149 25.0273 59.0949 25.6244Z" fill="white"/>
<path d="M30.4827 13.733C29.6584 12.8645 29.6584 11.5672 30.4827 10.6981C31.2949 9.90728 32.7047 9.90728 33.5176 10.6981C34.3419 11.5694 34.3419 12.8617 33.5176 13.733C32.6463 14.5573 31.354 14.5573 30.4827 13.733Z" fill="white"/>
<path d="M30.4827 22.2824C29.6584 21.414 29.6584 20.1167 30.4827 19.2475C31.2949 18.4567 32.7261 18.4567 33.5176 19.2682C34.3269 20.0796 34.3576 21.3948 33.5176 22.2817C32.6321 23.1202 31.3426 23.096 30.4827 22.2824Z" fill="white"/>
<path d="M14.282 25.659C15.0956 26.5189 15.1198 27.8084 14.282 28.6939C13.4107 29.5182 12.1184 29.5182 11.2471 28.6939C10.4228 27.8255 10.4228 26.5282 11.2471 25.659C12.0372 24.8682 13.4912 24.8682 14.282 25.659Z" fill="white"/>
<path d="M20.6939 30.8316C19.8084 31.6694 18.5189 31.6452 17.659 30.8316C16.8148 29.9418 16.8455 28.6317 17.6797 27.7967C18.4705 27.0059 19.8804 27.0059 20.6932 27.7967C21.5175 28.668 21.5175 29.961 20.6939 30.8316Z" fill="white"/>
<path d="M20.6938 49.1688C21.518 50.0401 21.518 51.3324 20.6938 52.2037C19.8225 53.028 18.5301 53.028 17.6589 52.2037C16.8346 51.3352 16.8346 50.0379 17.6589 49.1688C18.471 48.378 19.903 48.378 20.6938 49.1688Z" fill="white"/>
<path d="M24.9683 42.7576C25.7926 43.6289 25.7926 44.9213 24.9683 45.7926C24.097 46.6168 22.8047 46.6168 21.9334 45.7926C21.1091 44.9241 21.1091 43.6268 21.9334 42.7576C22.7455 41.9669 24.1775 41.9669 24.9683 42.7576Z" fill="white"/>
<path d="M52.7528 25.659C53.5771 26.5303 53.5771 27.8226 52.7528 28.6939C51.8672 29.5317 50.5778 29.5075 49.7179 28.6939C48.8737 27.8041 48.9043 26.494 49.7385 25.659C50.5079 24.8682 51.962 24.8682 52.7528 25.659Z" fill="white"/>
<path d="M46.341 27.7967C47.1653 28.668 47.1653 29.9603 46.341 30.8316C45.4555 31.6694 44.166 31.6452 43.3061 30.8316C42.4747 29.9553 42.4762 28.648 43.3268 27.7967C44.1183 27.0059 45.5282 27.0059 46.341 27.7967Z" fill="white"/>
<path d="M43.3059 49.1688C44.096 48.378 45.528 48.378 46.3409 49.1688C47.1544 50.0287 47.1787 51.3181 46.3409 52.2037C45.4696 53.028 44.1772 53.028 43.3059 52.2037C42.4817 51.3352 42.4817 50.0379 43.3059 49.1688Z" fill="white"/>
<path d="M42.0668 45.7926C41.1955 46.6168 39.9032 46.6168 39.0319 45.7926C38.2076 44.9241 38.2076 43.6268 39.0319 42.7576C39.8441 41.9669 41.2753 41.9669 42.0668 42.7576C42.8904 43.6289 42.8904 44.922 42.0668 45.7926Z" fill="white"/>
<path d="M31.9999 27.177C28.4642 27.177 25.5881 30.053 25.5881 33.5888C25.5881 37.1245 28.4642 40.0006 31.9999 40.0006C35.5357 40.0006 38.4117 37.1245 38.4117 33.5888C38.4117 30.053 35.5357 27.177 31.9999 27.177ZM31.9999 35.7261C30.8216 35.7261 29.8627 34.7671 29.8627 33.5888C29.8627 32.4104 30.8216 31.4515 31.9999 31.4515C33.1783 31.4515 34.1372 32.4104 34.1372 33.5888C34.1372 34.7671 33.1783 35.7261 31.9999 35.7261Z" fill="white"/>
</svg>
