<svg width="1447" height="745" viewBox="0 0 1447 745" fill="none" xmlns="http://www.w3.org/2000/svg">
<mask id="mask0_2399_490" style="mask-type:alpha" maskUnits="userSpaceOnUse" x="0" y="0" width="1447" height="745">
<path d="M0 0H1447V745H0V0Z" fill="#270EC5"/>
</mask>
<g mask="url(#mask0_2399_490)">
<g style="mix-blend-mode:multiply">
<path d="M1034.11 97.8651L1034.11 97.8642C1034.58 97.5347 1035.03 97.2152 1035.46 96.9127C1036.96 95.8515 1038.16 94.9998 1038.77 94.6598C1038.77 94.6585 1038.78 94.6573 1038.78 94.6561L1041.26 93.2529L1041.69 90.9827L1041.69 90.9819C1041.78 90.4773 1041.86 90.0439 1041.81 89.4443C1041.75 88.8372 1041.55 87.9756 1040.94 86.7253C1039.7 84.1871 1036.89 80.2135 1030.71 73.7757C1030.71 73.7756 1030.71 73.7754 1030.71 73.7753C1030.71 73.7753 1030.71 73.7752 1030.71 73.7752L1028.1 71.0641L1025.03 73.2945L1025.03 73.2983C1024.69 73.5399 1016.97 79.178 1012.82 82.9212C1012.16 83.5166 1011.02 84.1404 1009.8 84.7327C1008.51 85.3521 1006.95 86.0224 1005.31 86.6887C1002.03 88.022 998.352 89.3707 995.802 90.3052C992.326 91.5816 989.236 92.7228 987.22 93.6126L987.215 93.6149C983.35 95.3025 974.805 97.8453 969.156 99.4318L968.102 99.7277L967.499 98.8145C962.445 91.1653 950.468 73.6659 941.424 65.1719C938.929 62.8281 936.835 61.3245 934.99 60.4777C930.037 58.2039 922.456 53.4586 916.572 47.9317C913.654 45.191 911.672 42.7375 910.433 40.6579C909.224 38.6274 908.622 36.7824 908.754 35.3134C908.873 33.9866 909.466 32.1493 910.275 30.1059C911.103 28.0144 912.221 25.549 913.495 22.9041C916.043 17.6136 919.255 11.5193 922.104 6.11599L1034.11 97.8651ZM1034.11 97.8651L1034.07 97.8971C1030.39 100.493 1025.81 103.72 1021.1 106.648C1016.36 109.599 1011.58 112.19 1007.51 113.537L1007.51 113.538C1003.11 114.994 1000.07 116.59 997.649 118.35C995.251 120.092 993.515 121.963 991.761 123.853L991.741 123.875L1034.11 97.8651ZM815.143 272.14L815.413 272.928L815.439 273.004C818.316 281.311 821.288 289.892 825.835 294.162C829.18 297.305 833.352 298.118 837.249 296.404C840.532 294.969 845.611 290.286 858.231 278.254C869.678 267.335 885.363 252.379 893.015 248.4C905.954 241.676 922.828 220.004 931.902 208.349L815.143 272.14ZM815.143 272.14C813.503 267.409 808.792 260.896 803.801 254.003M815.143 272.14L803.801 254.003M803.801 254.003L803.754 253.938C798.262 246.345 792.589 238.502 788.974 230.483C785.706 223.249 781.447 219.913 775.654 216.388L775.614 216.364C772.495 214.458 768.972 212.306 765.387 208.939C762.121 205.872 756.066 204.992 750.215 204.143L803.801 254.003ZM922.166 5.99928L922.105 6.11503L750.43 202.658C746.678 202.111 742.969 201.53 739.676 200.395C736.401 199.266 733.659 197.629 731.759 195.051L731.758 195.05C729.267 191.675 729.029 187.035 730.622 180.767C732.212 174.516 735.524 167.028 739.618 158.271L739.619 158.269L739.875 157.72C741.88 153.421 743.837 149.224 744.497 146.854C745.782 142.271 748.39 137.422 751.466 132.724C754.532 128.041 758.004 123.596 760.974 119.794L760.984 119.78L760.985 119.779L762.648 117.647L762.65 117.644C764.129 115.736 767.252 112.578 771.297 108.791C775.314 105.029 780.164 100.717 785.036 96.5239C794.831 88.0932 804.551 80.2861 807.784 78.3394L807.786 78.3383C810.208 76.876 813.346 73.782 816.281 70.2879C819.244 66.761 822.135 62.664 824.029 59.0656L824.029 59.0652C825.031 57.1608 827.413 53.9128 830.604 49.9635C833.765 46.0508 837.637 41.5501 841.536 37.1786C845.434 32.8079 849.351 28.5768 852.599 25.2043C855.882 21.7955 858.399 19.3531 859.536 18.4812L859.539 18.4788C860.525 17.7194 862.346 16.3745 864.66 14.6722C867.996 12.2186 873.146 8.42833 877.868 4.82037C882.539 1.25155 886.935 -2.24648 888.652 -4.07513C890.922 -6.49192 897.484 -14.1275 903.469 -21.1464C906.47 -24.6655 909.337 -28.0433 911.468 -30.5571C912.533 -31.8141 913.415 -32.8551 914.036 -33.5899L914.765 -34.4509L914.965 -34.6877L915.021 -34.7535L915.037 -34.7722L915.042 -34.7781L915.042 -34.7783L915.042 -34.7782L915.048 -34.786L916.667 -36.7029L939.049 -32.8374L937.926 -28.3325C937.926 -28.3321 937.926 -28.3318 937.926 -28.3314C936.888 -24.1923 934.652 -18.8313 931.788 -12.8328C928.95 -6.88852 925.539 -0.409884 922.166 5.99928ZM750.469 202.664L750.431 202.659L936.283 202.81C935.303 203.977 933.8 205.906 931.915 208.332L930.731 207.411L930.73 207.412L930.728 207.415C926.189 213.244 919.734 221.536 912.805 229.207C905.837 236.921 898.535 243.841 892.324 247.069L892.323 247.069C888.306 249.159 882.337 254.022 876.051 259.603C869.718 265.225 862.916 271.713 857.196 277.168C850.88 283.19 846.48 287.345 843.25 290.175C839.989 293.032 838.053 294.415 836.648 295.029L836.645 295.031C833.349 296.48 829.811 295.839 826.862 293.069C824.801 291.134 823.015 288.127 821.364 284.449C819.727 280.801 818.287 276.644 816.844 272.476L816.832 272.443L816.83 272.437L816.563 271.654L816.56 271.648C815.678 269.102 814.006 266.165 811.986 263.063C809.955 259.945 807.506 256.562 805.016 253.123C799.488 245.48 793.892 237.742 790.341 229.866L790.341 229.865C786.898 222.245 782.356 218.71 776.433 215.106L776.428 215.103C773.298 213.191 769.885 211.107 766.414 207.846C764.513 206.061 761.899 204.993 759.158 204.26C756.416 203.527 753.363 203.084 750.469 202.664Z" stroke="#FFF4CC" stroke-width="3"/>
</g>
<g style="mix-blend-mode:multiply">
<path d="M1346.29 460.09L1346.29 460.09C1405.76 418.737 1413.12 362.469 1390.3 329.653L1390.3 329.652C1390.3 329.653 1390.27 329.613 1390.21 329.531C1390.01 329.275 1389.49 328.609 1388.64 327.523C1387.54 326.131 1385.96 324.109 1383.95 321.548C1379.93 316.425 1374.22 309.145 1367.37 300.428C1353.68 282.994 1335.47 259.812 1317.28 236.653C1299.08 213.493 1280.9 190.355 1267.27 173.007C1260.46 164.333 1254.78 157.107 1250.81 152.049L1246.19 146.178L1244.98 144.632L1244.67 144.235L1244.59 144.135L1244.58 144.119C1244.57 144.116 1244.57 144.113 1244.57 144.11C1227.47 123.024 1199.24 117.093 1179.83 130.595L1159.63 144.645C1149.9 151.406 1143.63 163.691 1141.74 176.46C1139.84 189.244 1142.39 202.118 1149.77 210.097C1155.17 215.925 1167.59 230.879 1182.24 252.249C1183.51 245.198 1185.72 238.377 1189.04 231.95L1189.04 231.946C1189.86 230.385 1191.01 229.096 1192.37 228.148L1346.29 460.09ZM1346.29 460.09C1336.87 466.635 1324.58 470.75 1310.26 465.725C1295.84 460.669 1279.06 446.256 1261 414.943L1261 414.943L1261 414.943L1261 414.941L1260.99 414.935L1260.98 414.906C1260.96 414.881 1260.94 414.841 1260.91 414.789C1260.85 414.683 1260.76 414.525 1260.65 414.315C1260.41 413.897 1260.07 413.275 1259.65 412.469C1258.79 410.857 1257.59 408.512 1256.21 405.586C1253.45 399.732 1249.98 391.572 1247.12 382.341L1247.12 382.34C1245.37 376.7 1243.48 371.13 1241.5 365.637M1346.29 460.09L1241.5 365.637M1241.5 365.637C1259.08 377.53 1278.93 385.77 1298.93 388.741L1298.93 388.741C1300.05 388.907 1301.15 388.878 1302.2 388.698L1311.21 401.655C1311.21 401.655 1311.21 401.655 1311.21 401.655C1313.36 404.755 1317.84 404.727 1320.98 402.548C1324.12 400.37 1325.7 396.178 1323.55 393.078L1323.55 393.078L1313.02 377.94C1318.21 371.668 1322.09 358.499 1316.72 324.978M1241.5 365.637L1244.25 192.082C1246.97 190.192 1250.54 189.605 1253.89 190.838L1253.89 190.838C1262.4 193.97 1270.16 201.79 1277.07 212.032C1284.01 222.313 1290.23 235.235 1295.6 248.876C1306.34 276.159 1313.77 306.54 1316.72 324.978M1316.72 324.978C1316.72 324.978 1316.72 324.978 1316.72 324.978L1315.24 325.215L1316.72 324.978ZM1296.99 364.311C1296.93 364.356 1296.86 364.409 1296.78 364.469C1296.47 364.703 1296.02 365.047 1295.51 365.445C1295.12 365.744 1294.72 366.059 1294.39 366.334C1294.34 366.372 1294.3 366.411 1294.25 366.452C1265.54 359.886 1237.86 340.961 1220.13 316.226C1215.74 307.499 1211.23 299.132 1206.68 291.18C1200.06 273.116 1200.37 255.853 1207.75 241.622L1207.75 241.62C1210.41 236.459 1208.39 230.111 1203.23 227.436L1203.23 227.434C1199.64 225.58 1195.47 225.987 1192.37 228.147L1296.99 364.311ZM1247.15 209.185C1242.47 207.466 1240.07 202.275 1241.79 197.602L1247.15 209.185Z" stroke="#FFF4CC" stroke-width="3"/>
</g>
<g style="mix-blend-mode:multiply">
<path d="M1340.51 594.326L1340.53 594.341L1340.55 594.356C1362.2 608.085 1374.12 618.151 1391.28 637.195L1391.3 637.216L1391.32 637.235C1393.15 639.122 1393.12 642.227 1391.28 644.404L1370.59 668.908L1312.75 620.068L1333.45 595.564C1335.29 593.388 1338.34 592.838 1340.51 594.326ZM1219.11 878.631L1219.11 878.639L1219.1 878.648C1217.44 881.021 1213.55 881.429 1211.21 879.46L1132.12 812.663C1130.8 811.55 1130.13 810.139 1130.06 808.802C1130 807.487 1130.51 806.136 1131.78 805.053L1131.83 805.01L1131.88 804.962L1307.84 626.256L1365.84 675.237L1219.11 878.631Z" stroke="#FFF4CC" stroke-width="3"/>
</g>
<g style="mix-blend-mode:multiply">
<path d="M-71.5288 99.5498L-71.8566 99.31L-72.2607 99.2683L-87.6781 97.6787L-97.6008 87.671L-49.3359 40.9528L-49.3358 40.9527L-39.3005 31.2372L-39.3004 31.2371L8.99008 -15.5058L18.9305 -5.47529L20.2159 9.77644L20.2507 10.1888L20.492 10.525L133.179 167.541L133.248 167.638L133.332 167.723L138.692 173.129L135.601 189.875L135.458 190.647L136.011 191.204C140.335 195.563 139.162 200.524 137.862 203.438L137.444 204.376L138.167 205.105L143.733 210.719L128.528 225.434L122.937 219.794L122.229 219.08L121.299 219.464C118.321 220.695 113.252 221.751 108.916 217.38L108.375 216.834L107.615 216.955L90.5853 219.672L85.2123 214.25L85.1285 214.166L85.0325 214.096L-71.5288 99.5498Z" stroke="#FFF4CC" stroke-width="3"/>
</g>
<g style="mix-blend-mode:multiply">
<path d="M459.682 834.224L459.705 834.248L459.729 834.271C467.344 841.605 468.607 852.459 462.912 861.448L462.912 861.449C457.199 870.477 446.691 873.914 436.764 870.047L140.07 754.53C130.148 750.666 124.803 741.067 126.7 730.545C128.586 720.085 136.954 712.974 147.536 712.722L147.569 712.721L147.602 712.719L325.972 700.546L326.922 700.482L327.267 699.594L334.949 679.869C338.609 670.473 336.643 659.632 330.097 651.633C320.551 639.967 318.238 624.038 324.238 610.127C332.49 590.988 354.369 581.271 374.028 588L374.514 586.581L374.028 588C384.491 591.58 392.783 599.054 397.416 609.068C402.049 619.084 402.393 630.265 398.381 640.568C397.377 643.145 394.489 644.415 391.929 643.418C389.374 642.423 388.104 639.534 389.108 636.956C392.12 629.223 391.874 620.816 388.393 613.295C384.917 605.773 378.683 600.152 370.821 597.462C356.035 592.401 339.639 599.714 333.441 614.092C328.929 624.558 330.639 636.524 337.807 645.284L338.968 644.334L337.807 645.284C346.666 656.111 349.177 670.781 344.23 683.484L336.528 703.259L336.183 704.145L336.838 704.836L459.682 834.224ZM440.379 860.729L440.38 860.729C443.598 861.98 446.521 861.828 448.966 860.812C451.377 859.81 453.23 858.008 454.446 856.086C455.662 854.165 456.498 851.718 456.373 849.108C456.247 846.468 455.141 843.764 452.647 841.391L452.6 841.344C452.546 841.29 452.496 841.239 452.448 841.19C452.447 841.188 452.445 841.187 452.443 841.185L328.598 710.816L328.112 710.305L327.408 710.353L147.985 722.65L147.967 722.651L147.948 722.653C147.887 722.659 147.817 722.662 147.74 722.663L147.731 722.663C144.276 722.721 141.624 723.967 139.742 725.831C137.886 727.669 136.847 730.038 136.444 732.275C136.04 734.513 136.187 737.094 137.287 739.463C138.402 741.864 140.454 743.953 143.67 745.206L440.379 860.729Z" stroke="#FFF4CC" stroke-width="3"/>
</g>
<g style="mix-blend-mode:multiply">
<path d="M794.642 620.571C794.642 641.368 789.308 661.4 779.146 679.088C777.238 670.996 772.929 661.09 768.267 652.227C763.375 642.926 757.958 634.516 754.279 630.379C759.951 623.274 763.399 614.085 763.399 604.136C763.399 601.96 763.22 599.823 762.892 597.726L790.526 589.765C793.27 599.812 794.642 610.168 794.642 620.571ZM727.576 536.486C728.71 545.624 728.647 555.027 728.228 563.248C726.794 563.082 725.342 563 723.891 563C714.315 563 705.513 566.549 698.671 572.446C670.467 546.49 646.88 534.577 630.15 529.149C621.688 526.404 614.993 525.322 610.357 524.917C609.333 524.828 608.411 524.771 607.593 524.737C627.567 510.32 651.598 502.5 676.571 502.5C691.184 502.5 705.501 505.204 719.236 510.567C723.902 517.758 726.388 526.919 727.576 536.486ZM558.5 620.571C558.5 587.882 572.125 556.485 596.008 534.25H597.068V533.833C603.529 531.943 611.196 532.418 619.535 534.605C628.259 536.894 637.585 541.022 646.795 546.068C664.614 555.83 681.818 568.926 693.107 578.391C687.647 585.455 684.382 594.398 684.382 604.136C684.382 608.009 684.879 611.77 685.878 615.343C642.794 631.754 578.305 648.744 562.657 651.723C559.886 641.581 558.5 631.123 558.5 620.571ZM772.305 689.592C748.813 722.183 710.707 740.322 670.801 738.367C700.334 711.682 711.642 685.123 723.074 645.32C723.343 645.324 723.607 645.324 723.859 645.324H723.891C733.179 645.324 741.702 641.936 748.442 636.379C753.641 643.251 759.291 651.887 763.792 660.961C768.578 670.609 772.005 680.629 772.305 689.49V689.592ZM730.517 515.628C757.617 529.508 778.224 553.129 788.165 582.063L760.933 589.883C756.799 578.172 747.673 568.978 736.223 565.022C736.686 559.087 736.7 550.226 735.79 540.884C734.956 532.321 733.335 523.253 730.517 515.628ZM688.8 622.929C693.966 633.512 703.523 641.478 714.969 644.224C702.031 683.112 691.847 713.041 659.482 737.247C616.004 730.952 579.53 700.799 565.082 659.519C577.19 657.081 601.255 650.746 625.595 643.665C650.336 636.467 675.508 628.456 688.8 622.929Z" stroke="#FFF4CC" stroke-width="3"/>
<path d="M755.3 604.151C755.3 622.491 741.168 637.23 723.89 637.23C706.612 637.23 692.48 622.491 692.48 604.151C692.48 585.812 706.612 571.073 723.89 571.073C741.168 571.073 755.3 585.812 755.3 604.151Z" stroke="#FFF4CC" stroke-width="3"/>
</g>
<g style="mix-blend-mode:multiply">
<path d="M545.515 149.929L570.943 195.418L559.239 231.84L512.074 254.003C504.854 256.832 496.878 257.082 489.494 254.709L448.469 241.527L486.548 123.02L527.573 136.202C534.957 138.575 541.294 143.424 545.515 149.929Z" stroke="#FFF4CC" stroke-width="3"/>
<path d="M304.667 99.9384C310.355 82.2369 329.316 72.498 347.017 78.1858L399.993 95.2082L361.914 213.715L308.938 196.693C291.237 191.005 281.498 172.044 287.186 154.343L304.667 99.9384Z" stroke="#FFF4CC" stroke-width="3"/>
<path d="M465.608 120.908L430.218 231.045L416.335 226.584L451.724 116.447L465.608 120.908Z" stroke="#FFF4CC" stroke-width="3"/>
<path d="M432.129 110.152L396.739 220.289L382.856 215.828L418.245 105.69L432.129 110.152Z" stroke="#FFF4CC" stroke-width="3"/>
<path d="M604.163 206.983L592.978 241.791L574.91 235.985L586.094 201.177L604.163 206.983Z" stroke="#FFF4CC" stroke-width="3"/>
</g>
<g style="mix-blend-mode:multiply">
<g style="mix-blend-mode:multiply">
<path d="M136.295 371.221L144.924 380.332L-13.6877 530.546L-22.3165 521.435L136.295 371.221Z" stroke="#FFF4CC" stroke-width="3"/>
</g>
<g style="mix-blend-mode:multiply">
<path d="M169.928 360.21L238.656 389.703L233.708 401.234L164.98 371.742L169.928 360.21Z" stroke="#FFF4CC" stroke-width="3"/>
</g>
<g style="mix-blend-mode:multiply">
<path d="M157.003 357.079L156.843 372.757L159.721 372.786L159.88 357.108L157.003 357.079Z" fill="#FFF4CC"/>
</g>
<g style="mix-blend-mode:multiply">
<path d="M146.968 360.353L153.196 374.744L155.837 373.602L149.609 359.21L146.968 360.353Z" fill="#FFF4CC"/>
</g>
<g style="mix-blend-mode:multiply">
<path d="M151.726 376.073L140.945 364.689L138.853 366.67L149.634 378.054L151.726 376.073Z" fill="#FFF4CC"/>
</g>
</g>
</g>
</svg>
