<svg width="706" height="956" viewBox="0 0 706 956" fill="none" xmlns="http://www.w3.org/2000/svg">
<path d="M145.633 545.135C174.825 495.709 220.736 481.022 273.673 504.394L273.058 505.642L291.587 513.822L460.755 170.552L418.405 151.855C390.613 139.585 377.248 107.848 390.782 80.3864L414.773 31.7046C427.691 5.49129 461.263 -7.04445 490.378 5.80976L673.013 86.4407C700.806 98.7106 714.17 130.448 700.636 157.91L676.645 206.591C663.727 232.805 630.156 245.34 601.04 232.486L560.013 214.373L391.46 556.395L407.341 563.406C460.279 586.777 477.893 629.51 456.642 682.441L350.908 942.768C348.447 947.761 344.663 952.17 338.847 954.162C333.032 956.154 326.508 956.313 321.214 953.976L12.8517 817.838C7.55792 815.501 3.49447 810.667 1.36961 805.17C-0.75524 799.672 0.382009 794.095 2.84264 789.102L145.633 545.135Z" fill="white"/>
</svg>
