<svg width="128" height="120" viewBox="0 0 128 120" fill="none" xmlns="http://www.w3.org/2000/svg">
<path d="M64.8059 120C64.4432 120 64.097 119.987 63.8338 119.974C63.6249 119.992 63.4092 120 63.1931 120C55.5718 120 50.4759 116.402 45.9789 113.225C42.7557 110.951 39.7159 108.805 36.1547 108.213C34.4057 107.924 32.6659 107.777 30.9848 107.777C27.9559 107.777 25.5622 108.246 23.8146 108.587C22.7391 108.797 21.8118 108.977 21.0951 108.977C20.3444 108.977 19.4324 108.81 19.0523 107.514C18.751 106.492 18.5349 105.502 18.3264 104.548C17.8046 102.164 17.4262 100.709 16.5325 100.571C6.97363 99.0984 1.3258 96.9289 0.200782 94.3014C0.0864584 94.039 0.0193091 93.7584 0.00240983 93.4727C-0.018792 93.0953 0.100488 92.7233 0.337315 92.4283C0.574141 92.1333 0.911796 91.9362 1.28537 91.8748C8.87651 90.6265 15.6263 86.6199 21.3481 79.9623C25.7806 74.8082 27.9573 69.8837 28.191 69.3399C28.2014 69.3149 28.2128 69.2904 28.2253 69.2663C29.3282 67.0316 29.5476 65.1006 28.8795 63.5284C27.6478 60.6279 23.5686 59.3355 20.8699 58.4804C20.1987 58.2684 19.5638 58.0676 19.058 57.8671C16.6657 56.9234 12.7312 54.9296 13.2553 52.1777C13.6371 50.171 16.2951 48.7734 18.4432 48.7734C19.0397 48.7734 19.5682 48.8779 20.0132 49.0865C22.4406 50.2222 24.6243 50.7978 26.5024 50.7978C28.8381 50.7978 29.9661 49.9098 30.2389 49.6574C30.1682 48.3837 30.0913 47.1103 30.0083 45.8373C29.46 37.1283 28.7762 26.2902 31.5524 20.075C39.8616 1.47078 57.4831 0.024083 62.6843 0.024083C63.5428 0.0168866 64.4013 0.00885908 65.2597 0C70.4752 0 88.1334 1.44839 96.4477 20.0638C99.2239 26.283 98.5394 37.1304 97.9895 45.8485L97.9636 46.2657C97.8882 47.4495 97.8186 48.5699 97.7598 49.656C98.0166 49.8921 99.0489 50.7062 101.149 50.7886C102.94 50.7201 104.997 50.1472 107.263 49.0879C107.963 48.7595 108.739 48.6914 109.265 48.6914C110.061 48.6914 110.871 48.846 111.546 49.1272L111.582 49.1411C113.504 49.8226 114.763 51.1845 114.791 52.6152C114.815 53.949 113.822 55.9425 108.94 57.8678C108.44 58.0655 107.802 58.2677 107.129 58.4811C104.427 59.3372 100.352 60.6289 99.1199 63.5277C98.4507 65.0999 98.6709 67.0303 99.7741 69.2643C99.7864 69.2887 99.7969 69.3135 99.8088 69.3392C100.148 70.1343 108.37 88.8552 126.714 91.8731C127.088 91.9348 127.425 92.132 127.662 92.4269C127.899 92.7218 128.018 93.0936 127.998 93.471C127.98 93.7595 127.911 94.0426 127.795 94.3072C126.677 96.9201 121.03 99.0865 111.468 100.561C110.571 100.7 110.193 102.148 109.676 104.519C109.462 105.498 109.244 106.458 108.947 107.467C108.669 108.416 108.05 108.88 107.056 108.88H106.906C106.259 108.88 105.342 108.762 104.186 108.536C102.165 108.144 99.8981 107.778 97.0156 107.778C95.3349 107.778 93.5954 107.925 91.8444 108.214C88.2869 108.806 85.2475 110.949 82.03 113.22C77.5242 116.402 72.4266 120 64.8059 120Z" fill="#D7D6DB"/>
</svg>
