<svg width="80" height="80" viewBox="0 0 80 80" fill="none" xmlns="http://www.w3.org/2000/svg">
<path d="M21.2617 62.6392L7.46852 76.4324C6.39081 77.5101 4.64551 77.5101 3.5678 76.4324C2.49009 75.3547 2.49009 73.6094 3.5678 72.5317L17.361 58.7385C18.4387 57.6607 20.184 57.6607 21.2617 58.7385C22.3394 59.8162 22.3385 61.5615 21.2617 62.6392Z" fill="white"/>
<path d="M0.294208 56.4092C-0.389935 55.0474 0.159954 53.3904 1.51996 52.7062C2.89377 52.023 4.53975 52.5729 5.2239 53.9329L5.52275 54.5278C5.89976 55.281 6.87816 55.4226 7.45748 54.846L11.2405 51.0639C10.275 47.4363 13.0474 44.137 16.5518 44.137C19.5937 44.137 22.0691 46.6115 22.0691 49.6542C22.0691 53.1494 18.7789 55.9347 15.1403 54.9655L11.3573 58.7476C8.11679 61.9881 2.63445 61.1008 0.589382 56.9996L0.294208 56.4092Z" fill="white"/>
<path d="M25.1515 72.5409C24.5639 73.1284 24.7349 74.1114 25.4669 74.4756L26.0618 74.7735C27.4246 75.4549 27.9772 77.1119 27.2958 78.4747C26.6071 79.8485 24.9455 80.3846 23.5947 79.7087L22.9997 79.4108C18.9013 77.3593 18.0084 71.8834 21.2517 68.6401L25.0347 64.858C24.0682 61.2295 26.8407 57.9302 30.3451 57.9302C33.3869 57.9302 35.8623 60.4047 35.8623 63.4475C35.8623 66.9427 32.5722 69.728 28.9336 68.7588L25.1515 72.5409Z" fill="white"/>
<path d="M79.2283 0.841926C78.5147 0.100772 77.4499 -0.177851 76.4586 0.113645C73.6135 0.957789 70.9477 1.84515 68.373 2.75734H41.3797C36.816 2.75734 33.1038 6.46955 33.1038 11.0333V23.0002C28.3985 27.2145 24.1456 31.8187 19.9488 36.8532C19.0357 37.9493 19.1083 39.5604 20.1189 40.57L39.4294 59.8805C40.4335 60.8847 42.0464 60.9674 43.1498 60.046C48.0409 55.9531 52.4455 51.5945 56.4557 46.8956H68.9661C73.5298 46.8956 77.242 43.1834 77.242 38.6197V10.8788C78.1441 8.52934 79.0204 6.12932 79.8582 3.63643C80.1846 2.65895 79.9418 1.58124 79.2283 0.841926ZM38.6211 18.4135V11.0333C38.6211 9.51233 39.8579 8.27462 41.3797 8.27462H55.081C49.3301 11.0884 43.8349 14.4126 38.6211 18.4135ZM41.5287 54.1766L25.8146 38.4624C38.7701 23.3221 51.6308 14.0779 72.8135 7.03967C65.9574 25.6476 56.4345 41.1585 41.5287 54.1766ZM71.7248 23.5547V38.6197C71.7248 40.1406 70.488 41.3783 68.9661 41.3783H60.9026C64.5964 36.4109 68.4677 30.147 71.7248 23.5547Z" fill="white"/>
</svg>
