<svg width="254" height="73" viewBox="0 0 254 73" fill="none" xmlns="http://www.w3.org/2000/svg">
<path d="M0 43.4801H6.41628C6.67316 45.4439 7.42907 46.8447 8.68367 47.6832C9.93752 48.5213 11.5541 48.9406 13.5319 48.9406C15.4134 48.9406 16.9969 48.5534 18.2835 47.7788C19.57 47.0045 20.2131 45.8832 20.2131 44.4142C20.2131 43.2331 19.8427 42.2909 19.1033 41.5882C18.3636 40.8858 17.2303 40.3428 15.7026 39.9597L9.14192 38.2349C6.37586 37.5164 4.32566 36.3393 2.99133 34.7025C1.65625 33.066 0.988902 31.0263 0.988902 28.5834C0.988902 27.2421 1.27848 26.0048 1.85764 24.8711C2.43642 23.7377 3.25224 22.7635 4.30582 21.9491C5.35903 21.135 6.64155 20.5001 8.15302 20.0451C9.66448 19.5901 11.3612 19.3628 13.2423 19.3628C14.9467 19.3628 16.5346 19.5584 18.006 19.9495C19.4774 20.3407 20.7555 20.9435 21.8411 21.7575C22.9266 22.5719 23.8149 23.6177 24.5065 24.8951C25.1977 26.1726 25.624 27.673 25.7849 29.3974H19.3687C19.2727 28.4874 19.0353 27.7212 18.6576 27.0983C18.2794 26.4758 17.809 25.977 17.2464 25.6016C16.6831 25.2265 16.0484 24.967 15.341 24.8233C14.6329 24.6795 13.9012 24.6076 13.146 24.6076C11.3612 24.6076 9.95774 24.9583 8.93686 25.6596C7.91526 26.3609 7.40519 27.3172 7.40519 28.5283C7.40519 29.8032 7.8028 30.7712 8.60025 31.4324C9.39622 32.0943 10.5997 32.6398 12.2093 33.07L17.9277 34.5485C20.7879 35.3009 22.9531 36.4371 24.4234 37.9572C25.8937 39.4773 26.6291 41.6137 26.6291 44.366C26.6291 45.8989 26.3156 47.2723 25.6887 48.4856C25.061 49.6992 24.1728 50.7289 23.0233 51.575C21.8734 52.4212 20.4983 53.0681 18.8986 53.5147C17.2986 53.9617 15.5417 54.1854 13.6285 54.1854C11.7467 54.1854 10.0103 53.9898 8.41834 53.5987C6.8264 53.2075 5.42738 52.585 4.2213 51.7305C3.01558 50.8766 2.04211 49.7707 1.3031 48.4137C0.562987 47.0567 0.12862 45.4121 0 43.4801Z" fill="#D7D6DB"/>
<path d="M40.9678 41.2982V19.3628H47.4843V41.5672C47.4843 43.768 48.0516 45.5004 49.1866 46.7634C50.322 48.0272 52.0243 48.6587 54.2946 48.6587C56.5978 48.6587 58.3202 48.035 59.4634 46.788C60.6066 45.541 61.1781 43.8008 61.1781 41.5672V19.3628H67.5968V41.2982C67.5968 43.271 67.2874 45.0518 66.6694 46.6412C66.0505 48.231 65.1679 49.5842 64.0209 50.7007C62.874 51.8177 61.4822 52.6776 59.8471 53.2808C58.2116 53.8836 56.3608 54.1854 54.2946 54.1854C52.2202 54.1854 50.3668 53.8836 48.7339 53.2808C47.1007 52.6776 45.7037 51.8255 44.5448 50.7253C43.3848 49.6248 42.4991 48.2798 41.8867 46.69C41.2746 45.1006 40.9678 43.3034 40.9678 41.2982Z" fill="#D7D6DB"/>
<path fill-rule="evenodd" clip-rule="evenodd" d="M83.9839 19.3628V52.137H90.4965V40.3731H97.9147C101.13 40.3731 103.708 39.491 105.651 37.7263C107.593 35.9616 108.565 33.3463 108.565 29.8796C108.565 26.2409 107.691 23.5783 105.945 21.8921C104.198 20.2059 101.505 19.3628 97.8654 19.3628H83.9839ZM98.5762 35.0801H90.4967V24.6808H98.5762C99.7836 24.6808 100.62 24.9199 101.085 25.3985C101.551 25.877 101.783 26.6652 101.783 27.7628V31.8098C101.783 32.892 101.534 33.7075 101.036 34.2567C100.538 34.8058 99.718 35.0801 98.5762 35.0801Z" fill="#D7D6DB"/>
<path d="M122.903 52.137V19.3628H145.436V24.6802H129.16V32.7265H143.225V38.0206H129.16V46.8433H145.436V52.137H122.903Z" fill="#D7D6DB"/>
<path fill-rule="evenodd" clip-rule="evenodd" d="M163.871 19.3628V52.137H170.256V39.5497H174.337L181.371 52.137H188.452L180.794 39.0321C183.051 38.4202 184.811 37.3262 186.076 35.7501C187.34 34.1736 187.972 32.0838 187.972 29.4796C187.972 26.0448 187.116 23.4998 185.403 21.8448C183.691 20.1901 181.05 19.3628 177.482 19.3628H163.871ZM178.322 34.3976H170.257V24.6808H178.322C179.442 24.6808 180.222 24.9199 180.663 25.3985C181.103 25.877 181.323 26.6652 181.323 27.7628V31.1273C181.323 33.3078 180.322 34.3976 178.322 34.3976Z" fill="#D7D6DB"/>
<path d="M208.436 39.8466L200.742 7.05306L206.88 5.55387L210.039 19.02L222.844 15.8921L219.685 2.42643L225.823 0.927246L233.516 33.7212L227.379 35.22L224.087 21.1893L211.282 24.3167L214.574 38.3478L208.436 39.8466Z" fill="#D7D6DB"/>
<path d="M205.295 72.6208L251.952 68.1902L251.496 62.3789L204.839 66.8096L205.295 72.6208Z" fill="#D7D6DB"/>
<path d="M239.812 44.897C240.417 42.7172 242.674 41.4413 244.854 42.0463C247.033 42.6516 248.31 44.9092 247.705 47.0886C247.099 49.2683 244.842 50.5443 242.663 49.9393C240.483 49.3339 239.207 47.0763 239.812 44.897Z" fill="#D7D6DB"/>
<path d="M254 16.9241L249.513 33.7006L243.758 32.0413L248.245 15.2651L254 16.9241Z" fill="#D7D6DB"/>
</svg>
