<svg width="636" height="379" viewBox="0 0 636 379" fill="none" xmlns="http://www.w3.org/2000/svg">
<g clip-path="url(#clip0_2372_930)">
<rect width="636" height="379" fill="white"/>
<path opacity="0.7" fill-rule="evenodd" clip-rule="evenodd" d="M67.5722 178.376C95.2866 141.177 134.704 129.361 185.403 144.196C217.623 153.625 227.804 150.218 246.646 122.469C267.071 92.3616 286.88 62.4519 319.491 42.7879C389.629 0.506362 484.179 16.6321 536.761 81.5402C588.344 145.201 585.567 238.838 530.327 298.69C465.912 368.484 367.587 374.197 294.387 313.729C262.023 287.005 241.075 283.988 208.795 311.47C174.559 340.621 134.618 340.842 99.9828 320.531C51.3236 292.009 43.1051 250.34 52.1199 213.081C55.0407 200.973 62.2938 189.912 67.5722 178.376Z" fill="#FFE999"/>
<g style="mix-blend-mode:multiply">
<path d="M232.115 108.812C233.24 107.7 234.079 106.845 234.441 106.556L236.067 105.236L236.105 103.466C236.133 102.214 236.18 100.118 227.693 93.8103L225.295 92.0301L223.191 94.1747C223.023 94.3445 219.053 98.4065 216.971 101.03C216.029 102.22 210.844 105.174 208.059 106.759C206.173 107.834 204.461 108.815 203.347 109.547C201.327 110.865 196.671 113.148 193.528 114.628C189.86 110.693 181.125 101.612 174.941 97.4907C173.223 96.3458 171.769 95.62 170.486 95.2729C167.472 94.458 162.694 92.4779 158.821 89.8969C154.993 87.3463 153.529 85.1774 153.439 83.9955C153.241 81.4269 156.047 72.9159 158.307 66.0737C160.991 57.9284 163.77 49.5091 164.183 44.3094L164.47 40.6333L149.632 40.5626L148.62 42.2698C148.518 42.4394 138.439 59.4413 136.303 62.6474C134.763 64.9582 127.691 72.251 124.292 75.7538C123.117 76.9653 122.181 77.9329 121.674 78.4792C119.154 81.1813 106.517 100.655 104.808 105.848C103.358 110.246 99.8097 116.263 97.5129 118.235C93.9971 121.246 77.7633 140.433 74.9175 145.725L74.1595 147.126C71.453 152.118 67.7448 158.951 67.1176 164.793C66.9689 166.202 66.2148 168.898 65.4234 171.758C62.3801 182.708 60.5482 190.769 64.68 194.765C67.7357 197.724 72.4552 197.709 76.9045 197.613C80.3866 197.536 83.9905 197.457 86.1873 198.921C88.6085 200.535 90.8742 201.442 92.8787 202.248C96.5886 203.731 99.3883 205.254 101.992 209.139C104.883 213.457 108.959 217.472 112.9 221.358C116.472 224.877 119.844 228.202 121.259 230.79L121.492 231.222C123.981 235.782 126.551 240.5 129.618 242.544C131.868 244.043 134.371 244.109 136.468 242.733C138.236 241.579 140.73 238.363 146.89 230.142C152.476 222.682 160.131 212.463 164.189 209.405C171.055 204.234 178.749 189.986 182.884 182.332C183.743 180.739 184.428 179.472 184.883 178.698C185.763 177.212 186.861 175.64 188.036 173.959C190.325 170.672 192.914 166.944 194.944 162.579C196.568 159.114 198.073 155.669 199.561 152.258C200.805 149.412 202.04 146.594 203.324 143.803C204.572 141.082 205.65 138.254 206.629 135.68C207.771 132.69 208.847 129.865 209.722 128.553L210.145 127.918C211.83 125.356 213.287 123.144 217.974 120.666C222.632 118.206 228.339 112.55 232.115 108.812Z" fill="#FFBD9E"/>
</g>
<g style="mix-blend-mode:multiply">
<path d="M491.032 96.2888L470.595 81.3508L437.403 87.7152C432.375 89.02 427.953 92.0242 424.888 96.2179L408.051 119.254L473.907 167.388L490.744 144.351C493.809 140.158 495.329 135.032 495.046 129.846L491.032 96.2888Z" fill="#FFBD9E"/>
<path d="M353.278 194.194C345.945 204.227 348.134 218.306 358.167 225.639L387.689 247.216C397.722 254.55 411.801 252.361 419.134 242.327L440.711 212.806L374.855 164.672L353.278 194.194Z" fill="#FFBD9E"/>
<path d="M464.997 174.812L403.683 129.998L397.044 139.081L458.358 183.895L464.997 174.812Z" fill="#FFBD9E"/>
<path d="M451.719 192.979L390.405 148.165L383.766 157.248L445.08 202.062L451.719 192.979Z" fill="#FFBD9E"/>
<path d="M504.311 78.1216L483.873 63.1836L475.574 74.538L496.012 89.4761L504.311 78.1216Z" fill="#FFBD9E"/>
</g>
<g style="mix-blend-mode:multiply">
<g style="mix-blend-mode:multiply">
<path d="M436.484 323.357L440.402 327.449L498.685 271.653L494.768 267.561L436.484 323.357Z" fill="#FFBD9E"/>
</g>
<g style="mix-blend-mode:multiply">
<path d="M435.38 295.714L423.773 321.571L428.941 323.891L440.548 298.034L435.38 295.714Z" fill="#FFBD9E"/>
</g>
<g style="mix-blend-mode:multiply">
<path d="M433.312 331.765L432.508 326.109L431.47 326.257L432.274 331.912L433.312 331.765Z" fill="#FFBD9E"/>
</g>
<g style="mix-blend-mode:multiply">
<path d="M429.6 332.129L431.185 326.641L430.178 326.35L428.593 331.838L429.6 332.129Z" fill="#FFBD9E"/>
</g>
<g style="mix-blend-mode:multiply">
<path d="M425.848 330.47L429.737 326.285L428.968 325.572L425.08 329.757L425.848 330.47Z" fill="#FFBD9E"/>
</g>
<g style="mix-blend-mode:multiply">
<path d="M423.117 325.958L428.823 325.689L428.774 324.642L423.068 324.911L423.117 325.958Z" fill="#FFBD9E"/>
</g>
<g style="mix-blend-mode:multiply">
<path d="M436.551 330.657L434.254 325.426L433.294 325.847L435.592 331.078L436.551 330.657Z" fill="#FFBD9E"/>
</g>
<g style="mix-blend-mode:multiply">
<path d="M434.787 324.939L438.737 329.065L439.496 328.339L435.545 324.213L434.787 324.939Z" fill="#FFBD9E"/>
</g>
</g>
<g style="mix-blend-mode:multiply">
<g style="mix-blend-mode:multiply">
<path d="M308.973 144.696L311.825 149.591L381.54 108.97L378.688 104.076L308.973 144.696Z" fill="#FFBD9E"/>
</g>
<g style="mix-blend-mode:multiply">
<path d="M277.129 134.382L299.93 151.216L303.295 146.659L280.494 129.825L277.129 134.382Z" fill="#FFBD9E"/>
</g>
<g style="mix-blend-mode:multiply">
<path d="M303.499 152.135L304.862 146.587L303.844 146.337L302.481 151.885L303.499 152.135Z" fill="#FFBD9E"/>
</g>
<g style="mix-blend-mode:multiply">
<path d="M307.331 151.809L306.321 146.186L305.289 146.371L306.299 151.995L307.331 151.809Z" fill="#FFBD9E"/>
</g>
<g style="mix-blend-mode:multiply">
<path d="M306.953 145.837L309.829 150.773L310.736 150.244L307.86 145.309L306.953 145.837Z" fill="#FFBD9E"/>
</g>
</g>
<g style="mix-blend-mode:multiply">
<g style="mix-blend-mode:multiply">
<path d="M221.018 286.015L225.051 282.037L168.387 224.597L164.354 228.576L221.018 286.015Z" fill="#FFBD9E"/>
</g>
<g style="mix-blend-mode:multiply">
<path d="M218.937 319.423L229.58 293.155L224.33 291.028L213.687 317.295L218.937 319.423Z" fill="#FFBD9E"/>
</g>
<g style="mix-blend-mode:multiply">
<path d="M229.583 289.469L223.871 289.528L223.882 290.576L229.594 290.518L229.583 289.469Z" fill="#FFBD9E"/>
</g>
<g style="mix-blend-mode:multiply">
<path d="M228.316 285.839L223.12 288.214L223.556 289.168L228.752 286.792L228.316 285.839Z" fill="#FFBD9E"/>
</g>
<g style="mix-blend-mode:multiply">
<path d="M222.625 287.689L226.692 283.677L225.954 282.93L221.888 286.941L222.625 287.689Z" fill="#FFBD9E"/>
</g>
</g>
<g style="mix-blend-mode:multiply">
<path d="M333.854 316.052C362.965 289.674 363.232 258.624 348.399 242.256C348.095 241.921 257.772 153.249 257.772 153.249C246.956 142.949 230.996 141.592 221.182 150.487L211.37 159.38C201.506 168.318 201.165 188.293 210.653 196.212C214.056 199.05 222.279 206.71 232.16 217.909C232.18 213.432 232.865 209.032 234.397 204.821C234.679 204.054 235.131 203.396 235.697 202.883C236.989 201.71 238.87 201.277 240.625 201.914C243.145 202.833 244.445 205.62 243.531 208.139C240.478 216.52 241.57 226.015 246.459 235.372C249.453 239.323 252.455 243.501 255.416 247.883C266.814 260.129 283.281 268.475 299.423 269.912C299.603 269.624 300.904 268.37 301.053 268.217C302.644 265.379 299.832 248.961 290.252 227.121C279.841 203.38 268.7 189.664 263.08 188.383C260.464 187.789 258.826 185.184 259.42 182.571C259.65 181.563 260.179 180.699 260.893 180.054C262.029 179.025 263.627 178.547 265.233 178.913C283.271 183.021 301.767 226.438 307.432 245.611C312.873 264.018 311.188 270.788 308.863 273.977L315.952 281.8C316.911 282.858 316.617 284.693 315.291 285.89C313.967 287.091 312.113 287.204 311.154 286.145L305.087 279.451C304.483 279.704 303.824 279.848 303.128 279.835C291.575 279.618 279.67 276.175 268.96 270.37C270.817 273.884 272.605 277.475 274.284 281.139C278.649 290.685 284.034 297.735 284.034 297.735C307.732 328.799 324.449 324.576 333.854 316.052Z" fill="#FFBD9E"/>
</g>
<g style="mix-blend-mode:multiply">
<path d="M280.962 269.758L362.021 261.962L366.966 270.29C370.275 275.862 376.492 279.202 383.111 279.055C388.021 278.946 392.566 281.558 394.938 285.898C398.195 291.856 396.311 299.414 390.636 303.112C387.615 305.08 384.033 305.708 380.533 304.886C377.033 304.066 374.096 301.906 372.257 298.808C371.42 297.399 369.605 296.934 368.202 297.767C366.797 298.601 366.337 300.417 367.174 301.826C369.845 306.325 374.119 309.46 379.204 310.652C384.29 311.844 389.5 310.929 393.885 308.072C402.132 302.699 404.886 291.707 400.153 283.046C396.714 276.752 390.097 272.97 382.965 273.128C378.479 273.228 374.268 271.001 372.052 267.27L367.119 258.963L412.887 191.404C415.964 187.269 415.746 181.899 412.297 178.037C408.831 174.155 403.517 173.319 399.054 175.969L274.109 250.176C269.646 252.826 267.803 257.914 269.554 262.815C271.293 267.692 275.858 270.481 280.962 269.758ZM275.152 260.818C274.53 259.077 274.728 256.709 277.142 255.273L402.093 181.062C404.508 179.628 406.684 180.587 407.914 181.966C409.145 183.345 409.857 185.615 408.162 187.858C408.131 187.898 408.102 187.94 408.074 187.982L362.056 255.954L280.356 263.836C280.307 263.841 280.256 263.847 280.206 263.854C277.427 264.268 275.773 262.558 275.152 260.818Z" fill="#270EC5"/>
</g>
<g style="mix-blend-mode:multiply">
<g style="mix-blend-mode:multiply">
<path d="M143.849 330.328L169.83 336.794L173.422 322.361L147.441 315.895L143.849 330.328Z" fill="#2400FF"/>
</g>
<g style="mix-blend-mode:multiply">
<path d="M110.605 258.73L132.969 295.913C136.222 301.322 141.491 305.217 147.616 306.741L175.577 313.7C185.142 316.081 194.827 310.256 197.208 300.69L225.228 188.107C228.402 175.353 221.542 162.665 208.788 159.491L155.92 146.333C143.165 143.159 130.252 150.925 127.078 163.68L107.905 240.716C106.381 246.842 107.352 253.321 110.605 258.73ZM127.708 242.272C129.114 241.424 130.733 241.228 132.211 241.596C133.688 241.964 135.026 242.896 135.872 244.304L155.386 276.75C157.08 279.567 156.171 283.22 153.354 284.914C150.541 286.609 146.882 285.698 145.19 282.883L125.676 250.436C123.982 247.619 124.891 243.966 127.708 242.272Z" fill="#270EC5"/>
</g>
</g>
<g style="mix-blend-mode:multiply">
<g style="mix-blend-mode:multiply">
<path d="M219.57 82.4238L214.227 84.3081L241.065 160.4L246.407 158.515L219.57 82.4238Z" fill="#270EC5"/>
</g>
<g style="mix-blend-mode:multiply">
<path d="M245.214 92.8029L226.434 71.5763L222.191 75.3302L240.971 96.5568L245.214 92.8029Z" fill="#270EC5"/>
</g>
<g style="mix-blend-mode:multiply">
<path d="M213.215 76.0703L218.7 77.6672L218.993 76.6607L213.508 75.0638L213.215 76.0703Z" fill="#2400FF"/>
</g>
<g style="mix-blend-mode:multiply">
<path d="M214.412 72.5378L218.761 76.2422L219.44 75.4441L215.092 71.7397L214.412 72.5378Z" fill="#2400FF"/>
</g>
<g style="mix-blend-mode:multiply">
<path d="M217.469 69.8019L219.681 75.0687L220.647 74.6628L218.435 69.3959L217.469 69.8019Z" fill="#2400FF"/>
</g>
<g style="mix-blend-mode:multiply">
<path d="M222.706 69.1719L220.6 74.4823L221.575 74.8687L223.68 69.5583L222.706 69.1719Z" fill="#2400FF"/>
</g>
<g style="mix-blend-mode:multiply">
<path d="M212.89 79.4781L218.603 79.5394L218.615 78.4912L212.902 78.4299L212.89 79.4781Z" fill="#2400FF"/>
</g>
<g style="mix-blend-mode:multiply">
<path d="M218.828 80.2257L213.44 82.1257L213.79 83.1156L219.177 81.2156L218.828 80.2257Z" fill="#2400FF"/>
</g>
</g>
<g style="mix-blend-mode:multiply">
<g style="mix-blend-mode:multiply">
<path d="M265.774 111.423L260.225 110.285L244.016 189.326L249.565 190.464L265.774 111.423Z" fill="#270EC5"/>
</g>
<g style="mix-blend-mode:multiply">
<path d="M289.638 85.3718L265.979 100.978L269.099 105.707L292.757 90.1007L289.638 85.3718Z" fill="#2400FF"/>
</g>
<g style="mix-blend-mode:multiply">
<path d="M263.602 102.704L267.48 106.899L268.25 106.187L264.372 101.992L263.602 102.704Z" fill="#2400FF"/>
</g>
<g style="mix-blend-mode:multiply">
<path d="M261.568 105.457L266.432 108.453L266.982 107.561L262.118 104.564L261.568 105.457Z" fill="#2400FF"/>
</g>
<g style="mix-blend-mode:multiply">
<path d="M266.271 109.157L260.675 108.01L260.464 109.038L266.06 110.185L266.271 109.157Z" fill="#2400FF"/>
</g>
</g>
<g style="mix-blend-mode:multiply">
<g style="mix-blend-mode:multiply">
<path d="M523.333 94.291L519.49 90.1288L460.209 144.864L464.052 149.026L523.333 94.291Z" fill="#270EC5"/>
</g>
<g style="mix-blend-mode:multiply">
<path d="M556.654 97.4746L530.752 85.9692L528.452 91.1465L554.354 102.652L556.654 97.4746Z" fill="#2400FF"/>
</g>
<g style="mix-blend-mode:multiply">
<path d="M527.069 85.8446L526.938 91.5555L527.986 91.5795L528.117 85.8685L527.069 85.8446Z" fill="#2400FF"/>
</g>
<g style="mix-blend-mode:multiply">
<path d="M523.398 86.991L525.6 92.2628L526.568 91.8587L524.365 86.5869L523.398 86.991Z" fill="#2400FF"/>
</g>
<g style="mix-blend-mode:multiply">
<path d="M525.059 92.74L521.184 88.5431L520.412 89.2551L524.288 93.4521L525.059 92.74Z" fill="#2400FF"/>
</g>
</g>
<g style="mix-blend-mode:multiply">
<path d="M352.432 169.649L447.937 124.943L452.327 123.683L455.622 114.461C459.316 113.399 460.231 110.274 460.436 108.408L465.359 106.994L461.885 94.3292L456.962 95.7434C455.835 94.2612 453.466 92.0774 449.772 93.1395L442.266 87.0214L437.879 88.2821L333.591 100.977L325.714 97.4856L317.277 99.9076L327.156 135.916L329.165 143.238L339.044 179.247L347.481 176.823L352.432 169.649Z" fill="#270EC5"/>
</g>
<g style="mix-blend-mode:multiply">
<path d="M538.555 321.225C524.644 321.144 516.234 319.942 502.857 316.123C501.015 315.669 499.947 313.801 500.214 311.932L502.778 293.991L544.83 300.001L542.266 317.942C541.999 319.811 540.45 321.306 538.555 321.225ZM571.51 160.028L516.188 152.122C514.133 151.828 511.996 153.43 511.89 155.512L502.965 291.348L545.017 297.358L574.5 164.46C575.195 162.271 573.753 160.349 571.51 160.028Z" fill="#FFBD9E"/>
</g>
<g style="mix-blend-mode:multiply">
<path d="M520.009 225.38L506.798 229.186C506.997 230.248 507.108 231.332 507.108 232.438C507.108 236.82 505.515 240.847 502.926 243.878C505.951 246.903 513.122 259.352 514.255 266.604C514.255 266.67 514.277 266.736 514.3 266.825C519.345 258.682 522 249.322 522 239.586C522 234.784 521.336 230.004 520.009 225.38ZM492.216 192.609V192.631C495.398 199.63 495.726 210.849 495.248 215.887C500.448 217.502 504.586 221.684 506.267 227.039L519.367 223.278C514.897 209.691 505.117 198.694 492.216 192.609ZM488.986 191.215C482.878 188.803 476.506 187.586 470 187.586C458.339 187.586 447.142 191.458 438.048 198.561C438.269 198.645 454.809 196.516 479.603 219.538C482.524 216.838 486.374 215.201 490.579 215.201C491.42 215.201 492.26 215.267 493.079 215.4V215.378C493.508 207.879 493.347 197.758 488.986 191.215ZM478.099 221.153C468.278 212.842 447.054 197.284 434.817 201.371C434.795 201.371 434.773 201.371 434.773 201.393C434.729 201.393 434.706 201.415 434.684 201.415C424.063 211.218 418 225.114 418 239.586C418 244.432 418.664 249.233 419.991 253.88C425.714 252.926 455.5 245.144 474.846 237.705C474.315 236.045 474.049 234.275 474.049 232.438C474.049 228.124 475.576 224.185 478.099 221.153ZM475.643 239.763C475.62 239.785 475.62 239.785 475.598 239.785C464.444 244.564 430.535 254.172 420.655 256.027C426.873 274.658 443.226 288.289 462.742 291.01C477.366 280.174 481.787 266.703 487.547 249.388C482.259 248.37 477.833 244.697 475.643 239.763ZM501.355 245.516C498.456 248.105 494.694 249.698 490.579 249.698C490.291 249.698 490.003 249.698 489.738 249.676C484.602 267.663 479.637 279.327 466.039 291.232C465.995 291.254 465.951 291.32 465.884 291.364C484.095 292.803 501.643 284.704 512.286 269.812V269.547C512.02 261.565 506.141 251.709 501.355 245.516Z" fill="#270EC5"/>
<path d="M490.579 247.483C498.483 247.483 504.891 240.75 504.891 232.445C504.891 224.14 498.483 217.407 490.579 217.407C482.674 217.407 476.267 224.14 476.267 232.445C476.267 240.75 482.674 247.483 490.579 247.483Z" fill="#2400FF"/>
</g>
<rect x="430" y="52.7417" width="4" height="19" fill="#2400FF"/>
<rect x="119" y="295.586" width="4" height="19" fill="#2400FF"/>
<rect x="108.523" y="281.586" width="4" height="8" transform="rotate(70.1176 108.523 281.586)" fill="#2400FF"/>
<rect x="295.24" y="57.7727" width="4" height="19" transform="rotate(-50.742 295.24 57.7727)" fill="white"/>
<rect x="385" y="338.832" width="4" height="19" transform="rotate(-18.1606 385 338.832)" fill="white"/>
<rect x="418.269" y="341.63" width="4" height="19" transform="rotate(20.2248 418.269 341.63)" fill="white"/>
<rect x="417.568" y="342.586" width="4" height="19" transform="rotate(20.2248 417.568 342.586)" fill="white"/>
<rect x="401.862" y="326.234" width="4" height="33.439" transform="rotate(2.39131 401.862 326.234)" fill="white"/>
<rect x="51" y="194.23" width="4" height="33.439" transform="rotate(-41.3921 51 194.23)" fill="white"/>
<rect x="34" y="209.157" width="4" height="33.439" transform="rotate(-63.2317 34 209.157)" fill="white"/>
<rect x="25" y="233.583" width="4" height="33.439" transform="rotate(-88.1571 25 233.583)" fill="white"/>
<rect x="306.152" y="41.8417" width="4" height="19" transform="rotate(-28.1207 306.152 41.8417)" fill="white"/>
<rect x="319" y="32.6422" width="4" height="19" transform="rotate(-15.3162 319 32.6422)" fill="white"/>
<rect x="448.071" y="39.5857" width="4" height="26.3538" transform="rotate(13.3183 448.071 39.5857)" fill="#2400FF"/>
<rect x="581.62" y="191.405" width="4" height="26.3539" transform="rotate(37.5857 581.62 191.405)" fill="#2400FF"/>
<rect x="112.271" y="289.586" width="4" height="26.3538" transform="rotate(22.9388 112.271 289.586)" fill="#2400FF"/>
<rect x="457.557" y="64.438" width="4" height="12.6035" transform="rotate(42.7606 457.557 64.438)" fill="#2400FF"/>
<rect x="579.631" y="216.114" width="4" height="12.6035" transform="rotate(65.2281 579.631 216.114)" fill="#2400FF"/>
</g>
<defs>
<clipPath id="clip0_2372_930">
<rect width="636" height="379" fill="white"/>
</clipPath>
</defs>
</svg>
