<svg width="295" height="144" viewBox="0 0 295 144" fill="none" xmlns="http://www.w3.org/2000/svg">
<path d="M14.0932 130.153H14.9498C14.0528 133.196 11.8063 134.718 8.21027 134.718C7.12832 134.742 6.05269 134.548 5.04939 134.147C4.04609 133.746 3.13629 133.146 2.37581 132.385C0.791936 130.833 0 128.772 0 126.203C0 123.583 0.851197 121.453 2.55359 119.813C3.34643 119.025 4.29146 118.402 5.33258 117.981C6.37371 117.56 7.4897 117.351 8.61432 117.365C9.95784 117.352 11.2841 117.664 12.477 118.275C13.6515 118.883 14.24 119.623 14.2427 120.496C14.2387 120.831 14.1222 121.156 13.9114 121.419C13.8032 121.561 13.661 121.675 13.4975 121.75C13.3339 121.826 13.1541 121.86 12.974 121.85C12.1013 121.85 11.5625 121.347 11.3578 120.34C11.2823 119.746 11.0258 119.189 10.6224 118.743C10.2777 118.445 9.60424 118.294 8.6022 118.291C6.83247 118.291 5.5018 118.899 4.6102 120.113C3.7186 121.327 3.27684 123.165 3.28492 125.628C3.28492 128.147 3.76574 130.118 4.72737 131.543C5.68901 132.967 7.14224 133.679 9.08706 133.679C11.7107 133.679 13.3794 132.504 14.0932 130.153Z" fill="#D7D6DB"/>
<path d="M27.6166 120.701C28.3054 119.686 29.209 118.837 30.2628 118.214C31.2412 117.661 32.3472 117.375 33.4702 117.385C34.6274 117.34 35.7732 117.63 36.7699 118.222C37.5613 118.676 38.1644 119.4 38.4698 120.262C38.7344 121.067 38.8707 122.387 38.8707 124.197V128.655C38.8405 129.807 38.8767 130.96 38.979 132.107C39.0065 132.298 39.079 132.479 39.1906 132.636C39.3022 132.793 39.4496 132.921 39.6205 133.008C40.2471 133.245 40.9173 133.342 41.585 133.294V134.203H33.2617V133.294H33.6346C34.5888 133.294 35.2102 133.157 35.4949 132.892C35.7692 132.63 35.9425 132.28 35.984 131.902C36.0321 131.528 36.0522 130.446 36.0522 128.655V123.799C36.0841 122.799 36.0048 121.799 35.8156 120.817C35.6545 120.164 35.261 119.591 34.7091 119.208C34.0624 118.772 33.2947 118.552 32.516 118.58C31.5266 118.573 30.562 118.891 29.7696 119.486C28.8584 120.206 28.1245 121.127 27.6247 122.177V128.647C27.6247 130.466 27.6567 131.584 27.7129 132.007C27.7347 132.201 27.8001 132.388 27.9043 132.553C28.0085 132.718 28.1486 132.857 28.3143 132.96C28.655 133.182 29.2805 133.286 30.1826 133.286V134.195H21.9956V133.286H22.3965C23.3387 133.286 23.9521 133.153 24.2368 132.884C24.5191 132.63 24.6977 132.28 24.738 131.902C24.7861 131.524 24.8061 130.438 24.8061 128.631V112.537C24.8061 110.928 24.6538 109.874 24.3451 109.443C24.0363 109.013 23.2986 108.791 22.1319 108.791V107.886C23.8614 107.938 25.5848 107.655 27.2077 107.053H27.6086L27.6166 120.701Z" fill="#D7D6DB"/>
<path d="M65.9511 131.173H66.673C66.5547 133.42 65.451 134.543 63.362 134.543C62.5915 134.586 61.834 134.333 61.2448 133.836C60.674 133.268 60.3154 132.522 60.2285 131.723C59.0927 132.547 57.8768 133.255 56.599 133.836C55.6824 134.267 54.6878 134.507 53.6752 134.543C52.6528 134.564 51.6548 134.231 50.8522 133.599C50.4691 133.305 50.1616 132.924 49.9548 132.488C49.748 132.052 49.6478 131.574 49.6625 131.092C49.6625 129.742 50.328 128.557 51.6548 127.549C53.3551 126.339 55.2036 125.351 57.1555 124.608L60.2285 123.367V122.563C60.2561 121.754 60.1829 120.944 60.0108 120.152C59.8079 119.585 59.4053 119.109 58.8775 118.815C58.1527 118.388 57.3189 118.182 56.478 118.22C54.4939 118.22 53.3902 118.878 53.1671 120.193C52.9439 121.508 52.3901 122.177 51.5055 122.201C50.699 122.201 50.2957 121.824 50.2957 121.06C50.2957 120.297 50.828 119.506 51.9088 118.65C52.9896 117.794 54.6391 117.364 56.8934 117.364C58.5684 117.364 59.8669 117.632 60.7891 118.168C61.5761 118.553 62.217 119.182 62.616 119.96C62.9657 120.945 63.1178 121.989 63.0636 123.033V129.554C63.0636 131.076 63.1402 132.056 63.3015 132.49C63.3742 132.699 63.5159 132.877 63.7035 132.996C63.891 133.114 64.1133 133.165 64.3339 133.141C65.197 133.105 65.7414 132.458 65.9511 131.173ZM60.2285 124.278L58.0669 125.146C54.6552 126.526 52.9493 128.259 52.9493 130.345C52.9126 131.072 53.1451 131.787 53.6026 132.354C53.8113 132.6 54.073 132.796 54.3684 132.928C54.6638 133.059 54.9851 133.123 55.3085 133.113C56.0662 133.076 56.8055 132.867 57.4701 132.502C58.4506 131.987 59.375 131.371 60.2285 130.666V124.278Z" fill="#D7D6DB"/>
<path d="M79.3601 121.494C79.801 120.331 80.5546 119.313 81.5376 118.553C82.3605 117.835 83.4018 117.417 84.492 117.368C84.8717 117.348 85.2513 117.41 85.6053 117.549C85.9593 117.688 86.2796 117.901 86.5448 118.174C86.9988 118.61 87.2671 119.205 87.2934 119.834C87.2948 120.203 87.1501 120.558 86.8909 120.821C86.7724 120.952 86.6274 121.055 86.4656 121.125C86.3039 121.194 86.1291 121.228 85.9531 121.224C85.293 121.224 84.7925 120.737 84.4518 119.761C84.2143 119.101 83.8601 118.774 83.3851 118.774C82.8216 118.774 82.1454 119.157 81.3726 119.931C80.6567 120.584 80.131 121.42 79.8512 122.349C79.5959 123.469 79.4837 124.617 79.5171 125.766V128.647C79.5171 130.376 79.5171 131.468 79.5855 131.911C79.5982 132.114 79.6553 132.31 79.7527 132.488C79.8501 132.666 79.9854 132.82 80.149 132.939C80.4831 133.177 81.0707 133.294 81.92 133.294H82.4755V134.204H73.8901V133.294H74.2926C74.8739 133.34 75.4568 133.227 75.9791 132.967C76.1407 132.868 76.2786 132.735 76.3829 132.577C76.4873 132.419 76.5556 132.24 76.5829 132.052C76.6744 130.92 76.7066 129.783 76.6795 128.647V124.085C76.6795 122.349 76.6795 121.265 76.611 120.813C76.5975 120.612 76.54 120.416 76.4427 120.239C76.3453 120.062 76.2104 119.909 76.0475 119.79C75.7215 119.544 75.1339 119.423 74.2926 119.423H73.8901V118.532C75.5319 118.291 77.1485 117.901 78.7201 117.368C79.15 118.701 79.366 120.094 79.3601 121.494Z" fill="#D7D6DB"/>
<path d="M99.5813 117.379V128.652C99.5813 130.378 99.6083 131.465 99.6625 131.913C99.6779 132.115 99.7374 132.312 99.8369 132.489C99.9364 132.666 100.074 132.82 100.239 132.939C100.572 133.177 101.16 133.294 102.009 133.294H102.415V134.203H93.6509V133.294H94.3247C95.2705 133.294 95.8834 133.161 96.1675 132.891C96.444 132.639 96.621 132.298 96.6668 131.929C96.7115 131.55 96.7358 130.463 96.7358 128.656V123.756C96.7358 121.862 96.6465 120.703 96.4679 120.282C96.4125 120.105 96.3198 119.942 96.1959 119.803C96.0721 119.664 95.9199 119.553 95.7495 119.477C95.2393 119.348 94.7126 119.295 94.1867 119.32H93.6509V118.414C95.5158 118.274 97.3585 117.923 99.1429 117.367L99.5813 117.379ZM95.7413 109.126C95.7381 108.855 95.7904 108.585 95.895 108.334C95.9997 108.083 96.1545 107.855 96.3502 107.665C96.5394 107.471 96.7659 107.318 97.0162 107.212C97.2665 107.107 97.5356 107.053 97.8074 107.053C98.0793 107.053 98.3483 107.107 98.5987 107.212C98.849 107.318 99.0755 107.471 99.2647 107.665C99.4582 107.856 99.6108 108.084 99.7133 108.335C99.8158 108.587 99.8662 108.856 99.8614 109.126C99.8664 109.4 99.8162 109.673 99.7137 109.927C99.6112 110.181 99.4586 110.413 99.2647 110.608C99.0755 110.802 98.849 110.955 98.5987 111.061C98.3483 111.166 98.0793 111.22 97.8074 111.22C97.5356 111.22 97.2665 111.166 97.0162 111.061C96.7659 110.955 96.5394 110.802 96.3502 110.608C96.152 110.415 95.9957 110.185 95.891 109.93C95.7863 109.675 95.7353 109.402 95.7413 109.126Z" fill="#D7D6DB"/>
<path d="M119.998 118.851H115.127V128.592C115.091 129.602 115.157 130.614 115.324 131.611C115.447 132.115 115.745 132.559 116.165 132.864C116.557 133.165 117.037 133.33 117.532 133.334C118.481 133.334 119.303 132.798 119.998 131.727L120.629 132.105C120.255 132.933 119.623 133.619 118.827 134.06C118.092 134.482 117.262 134.709 116.414 134.719C115.51 134.733 114.629 134.439 113.917 133.884C113.256 133.405 112.782 132.713 112.577 131.924C112.357 130.623 112.268 129.304 112.312 127.985V118.851H109.975V117.955C110.524 117.935 111.063 117.805 111.56 117.571C112.057 117.338 112.501 117.007 112.867 116.598C113.722 115.72 114.266 114.486 114.5 112.896H115.131V117.947H120.002L119.998 118.851Z" fill="#D7D6DB"/>
<path d="M136.806 131.093L140.579 122.173C140.905 121.467 141.174 120.737 141.384 119.989C141.384 119.339 140.65 118.999 139.182 118.969V118.069H144.859V118.969C144.147 118.942 143.452 119.192 142.922 119.665C142.519 120.093 142.008 121.029 141.4 122.465L134.177 139.737C133.498 141.387 132.893 142.51 132.361 143.105C132.155 143.372 131.893 143.591 131.592 143.746C131.291 143.9 130.96 143.987 130.622 144.001C129.768 144.001 129.337 143.601 129.337 142.841C129.337 141.947 130.02 141.194 131.387 140.581C131.964 140.357 132.506 140.052 132.997 139.677C133.356 139.286 133.631 138.826 133.802 138.325L135.349 134.509L129.285 121.561C128.75 120.425 128.299 119.705 127.944 119.405C127.59 119.105 126.986 118.953 126.128 118.953V118.053H133.553V118.953C132.248 118.993 131.6 119.261 131.6 119.753C131.775 120.424 132.034 121.07 132.369 121.677L136.806 131.093Z" fill="#D7D6DB"/>
<path d="M153.451 118.97C153.449 118.417 153.669 117.886 154.061 117.491C154.254 117.283 154.49 117.118 154.753 117.007C155.016 116.897 155.3 116.843 155.586 116.85C155.87 116.849 156.15 116.903 156.412 117.009C156.674 117.115 156.913 117.271 157.113 117.468C157.314 117.665 157.473 117.899 157.582 118.157C157.691 118.414 157.747 118.691 157.747 118.97C157.749 119.248 157.694 119.523 157.584 119.779C157.474 120.034 157.312 120.265 157.108 120.457C156.91 120.656 156.673 120.813 156.411 120.919C156.15 121.025 155.869 121.078 155.586 121.074C155.304 121.078 155.023 121.025 154.762 120.916C154.502 120.808 154.267 120.647 154.073 120.445C153.875 120.252 153.717 120.022 153.611 119.769C153.504 119.516 153.449 119.244 153.451 118.97ZM153.451 132.596C153.451 132.248 153.538 131.905 153.705 131.598C153.872 131.291 154.113 131.029 154.408 130.836C154.702 130.643 155.04 130.524 155.392 130.491C155.744 130.457 156.098 130.51 156.425 130.644C156.751 130.778 157.039 130.989 157.262 131.259C157.486 131.529 157.638 131.848 157.706 132.19C157.774 132.532 157.756 132.885 157.652 133.218C157.548 133.551 157.363 133.853 157.112 134.099C156.914 134.298 156.677 134.456 156.416 134.563C156.154 134.67 155.874 134.723 155.59 134.72C155.307 134.723 155.026 134.668 154.765 134.557C154.504 134.447 154.27 134.284 154.077 134.079C153.879 133.885 153.721 133.654 153.613 133.399C153.506 133.145 153.451 132.872 153.451 132.596Z" fill="#D7D6DB"/>
<path d="M201.373 134.721H200.47L195.636 122.003L190.701 134.721H189.875L184.9 121.991C184.332 120.539 183.913 119.669 183.635 119.386C183.357 119.102 182.805 118.951 181.975 118.951V118.053H189.364V118.951C188.786 118.911 188.206 118.989 187.659 119.178C187.513 119.247 187.391 119.357 187.31 119.495C187.228 119.633 187.19 119.792 187.2 119.952C187.2 120.216 187.462 120.982 187.978 122.246L191.269 130.844L196.289 118.053H197.07L201.933 130.844L205.498 121.732C205.756 121.174 205.949 120.589 206.074 119.988C206.074 119.35 205.406 119.003 204.06 118.951V118.053H209.297V118.951C208.778 118.936 208.264 119.061 207.811 119.314C207.444 119.541 207.114 120.056 206.807 120.85L206.376 121.991L201.373 134.721Z" fill="#D7D6DB"/>
<path d="M232.805 131.173H233.527C233.406 133.42 232.303 134.543 230.219 134.543C229.449 134.585 228.691 134.332 228.101 133.836C227.535 133.265 227.179 132.521 227.09 131.723C225.955 132.547 224.74 133.255 223.464 133.836C222.549 134.266 221.555 134.507 220.544 134.543C219.523 134.565 218.526 134.231 217.724 133.599C217.338 133.307 217.027 132.927 216.817 132.491C216.606 132.055 216.503 131.576 216.516 131.092C216.516 129.742 217.18 128.557 218.502 127.549C220.208 126.338 222.063 125.35 224.02 124.608L227.09 123.367V122.563C227.118 121.753 227.044 120.943 226.868 120.152C226.668 119.584 226.267 119.108 225.74 118.815C225.01 118.385 224.17 118.178 223.323 118.22C221.341 118.22 220.239 118.878 220.016 120.193C219.807 121.531 219.251 122.201 218.357 122.201C217.551 122.201 217.148 121.824 217.148 121.06C217.148 120.297 217.68 119.506 218.759 118.65C219.839 117.794 221.482 117.364 223.738 117.364C225.408 117.364 226.706 117.632 227.629 118.168C228.415 118.553 229.056 119.182 229.454 119.96C229.803 120.945 229.955 121.989 229.901 123.033V129.554C229.901 131.076 229.978 132.057 230.139 132.49C230.212 132.699 230.354 132.877 230.541 132.995C230.728 133.113 230.95 133.165 231.17 133.141C232.052 133.105 232.596 132.458 232.805 131.173ZM227.09 124.279L224.926 125.146C221.521 126.526 219.819 128.259 219.819 130.345C219.782 131.072 220.014 131.787 220.471 132.354C220.68 132.6 220.941 132.796 221.236 132.928C221.531 133.059 221.852 133.123 222.175 133.113C222.932 133.076 223.67 132.867 224.334 132.503C225.314 131.987 226.237 131.372 227.09 130.667V124.279Z" fill="#D7D6DB"/>
<path d="M250.251 118.851H245.378V128.591C245.342 129.602 245.408 130.614 245.575 131.611C245.698 132.114 245.994 132.557 246.411 132.864C246.806 133.165 247.289 133.33 247.786 133.333C248.731 133.333 249.555 132.795 250.251 131.727L250.882 132.105C250.505 132.933 249.873 133.618 249.077 134.06C248.342 134.482 247.512 134.709 246.665 134.719C245.762 134.734 244.882 134.439 244.172 133.884C243.51 133.407 243.037 132.713 242.833 131.924C242.611 130.624 242.521 129.304 242.564 127.985V118.851H240.228V117.955C240.777 117.936 241.317 117.805 241.814 117.572C242.312 117.339 242.757 117.008 243.123 116.598C243.975 115.72 244.519 114.486 244.755 112.896H245.382V117.947H250.255L250.251 118.851Z" fill="#D7D6DB"/>
<path d="M272.705 123.464H261.443C261.395 124.231 261.366 124.807 261.366 125.183C261.366 128.001 261.809 130.119 262.694 131.537C263.101 132.217 263.686 132.773 264.385 133.147C265.085 133.521 265.874 133.698 266.667 133.66C269.056 133.66 270.752 132.594 271.755 130.461H272.689C272.281 131.782 271.389 132.9 270.191 133.592C268.996 134.313 267.629 134.702 266.233 134.719C264.836 134.736 263.461 134.38 262.249 133.688C261.02 132.989 259.993 131.987 259.266 130.777C258.455 129.393 258.052 127.809 258.103 126.207C258.103 123.672 258.85 121.564 260.344 119.885C261.034 119.077 261.896 118.431 262.867 117.996C263.837 117.56 264.893 117.345 265.957 117.366C268.071 117.366 269.706 118.008 270.86 119.293C271.952 120.421 272.605 121.899 272.705 123.464ZM269.265 122.664C269.303 122.399 269.325 122.132 269.329 121.864C269.364 121.389 269.299 120.912 269.136 120.464C268.974 120.016 268.719 119.608 268.387 119.265C268.056 118.922 267.656 118.653 267.213 118.475C266.77 118.298 266.294 118.215 265.817 118.233C263.411 118.233 261.985 119.712 261.539 122.668L269.265 122.664Z" fill="#D7D6DB"/>
<path d="M286.593 121.495C287.034 120.331 287.79 119.312 288.775 118.553C289.597 117.836 290.637 117.418 291.727 117.368C292.106 117.348 292.486 117.409 292.841 117.548C293.195 117.687 293.515 117.901 293.78 118.174C294.236 118.609 294.505 119.204 294.529 119.834C294.528 120.203 294.384 120.558 294.126 120.822C294.007 120.952 293.861 121.056 293.699 121.125C293.536 121.195 293.361 121.229 293.184 121.225C292.526 121.225 292.027 120.737 291.686 119.762C291.449 119.101 291.094 118.774 290.619 118.774C290.056 118.774 289.375 119.157 288.586 119.931C287.871 120.585 287.346 121.42 287.068 122.349C286.813 123.469 286.7 124.617 286.73 125.766V128.647C286.73 130.375 286.754 131.463 286.802 131.911C286.814 132.114 286.871 132.311 286.969 132.489C287.066 132.666 287.202 132.82 287.366 132.939C287.696 133.177 288.288 133.294 289.138 133.294H289.689V134.204H281.125V133.294H281.528C282.111 133.34 282.696 133.228 283.219 132.967C283.38 132.867 283.517 132.734 283.621 132.576C283.725 132.418 283.794 132.239 283.823 132.052C283.915 130.92 283.947 129.783 283.92 128.647V124.086C283.92 122.35 283.896 121.259 283.847 120.813C283.835 120.613 283.779 120.417 283.683 120.24C283.587 120.063 283.453 119.909 283.292 119.79C282.957 119.544 282.374 119.423 281.528 119.423H281.125V118.533C282.768 118.291 284.385 117.901 285.957 117.368C286.388 118.701 286.602 120.094 286.593 121.495Z" fill="#D7D6DB"/>
<path d="M153.776 36.57H141.792C141.54 36.5694 141.291 36.6186 141.058 36.7146C140.825 36.8106 140.613 36.9516 140.434 37.1294C140.256 37.3073 140.114 37.5186 140.018 37.7512C139.921 37.9838 139.871 38.2332 139.871 38.485V43.676C139.871 44.185 140.074 44.6731 140.434 45.033C140.794 45.3929 141.283 45.595 141.792 45.595H153.776C154.285 45.595 154.774 45.3929 155.134 45.033C155.494 44.6731 155.696 44.185 155.696 43.676V38.485C155.696 38.2332 155.647 37.9838 155.55 37.7512C155.454 37.5186 155.312 37.3073 155.134 37.1294C154.955 36.9516 154.743 36.8106 154.51 36.7146C154.277 36.6186 154.028 36.5694 153.776 36.57ZM173.358 9.7437C173 9.02105 170.682 4.43224 170.682 4.43224C170.682 4.43224 171.566 3.91033 171.963 3.7136C172.361 3.51688 172.663 3.25994 172.12 2.23619C171.537 1.13215 170.963 1.45332 170.963 1.45332C170.963 1.45332 170.183 1.87888 169.323 2.31649C168.891 1.62819 168.296 1.05683 167.59 0.652831C166.884 0.248832 166.09 0.0246247 165.277 0L162.323 0C161.72 0 161.166 0.0802942 160.921 0.401471C160.734 0.603064 160.505 0.761142 160.25 0.864514C159.995 0.967885 159.72 1.01402 159.446 0.999662H139.192C138.995 0.999662 138.955 0.879221 138.831 0.798927C138.325 0.539036 137.755 0.432847 137.19 0.4935C136.625 0.554154 136.09 0.778989 135.652 1.14018C135.339 1.49749 134.045 3.05519 133.301 3.91033C132.798 4.50187 132.117 4.91574 131.36 5.09065C131.448 4.97813 131.503 4.84294 131.517 4.70081C131.531 4.55868 131.505 4.41543 131.441 4.28771L131.139 3.68952L131.561 2.55335L131.939 2.35262L131.718 1.83071C131.718 1.83071 131.481 1.93509 131.039 2.15188C130.597 2.36868 130.601 2.55335 130.601 2.55335C130.4 3.26797 129.881 3.30812 129.881 3.30812C129.881 3.30812 128.708 1.1201 128.563 0.839074C128.419 0.558044 128.085 -0.317162 124.207 1.75844C120.329 3.83405 121.25 4.63297 121.25 4.63297L122.568 7.18231L122.166 7.50349L123.126 9.42252C122.753 9.62946 122.391 9.85594 122.041 10.101C121.205 10.659 120.285 11.2171 120.285 12.7347V68.4708C120.285 72.6622 121.491 74.5772 126.16 74.5772H168.845C171.602 74.5772 174.242 73.1359 174.242 68.3504V13.2485C174.242 10.5025 173.716 10.4583 173.358 9.7437ZM142.709 5.11072H156.934C157.23 5.09806 157.526 5.14543 157.804 5.24998C158.081 5.35453 158.335 5.5141 158.549 5.71908C158.763 5.92406 158.933 6.17022 159.05 6.44273C159.166 6.71524 159.226 7.00847 159.226 7.30476C159.226 7.60105 159.166 7.89428 159.05 8.16679C158.933 8.4393 158.763 8.68546 158.549 8.89044C158.335 9.09543 158.081 9.255 157.804 9.35955C157.526 9.4641 157.23 9.51147 156.934 9.4988H142.709C142.412 9.51147 142.116 9.4641 141.839 9.35955C141.561 9.255 141.308 9.09543 141.094 8.89044C140.88 8.68546 140.709 8.4393 140.593 8.16679C140.476 7.89428 140.416 7.60105 140.416 7.30476C140.416 7.00847 140.476 6.71524 140.593 6.44273C140.709 6.17022 140.88 5.92406 141.094 5.71908C141.308 5.5141 141.561 5.35453 141.839 5.24998C142.116 5.14543 142.412 5.09806 142.709 5.11072ZM160.732 48.9794C160.732 48.9794 165.49 57.2819 166.49 59.1848C167.804 61.7061 166.004 62.7981 166.004 62.7981C166.004 62.7981 163.593 64.0025 162.411 61.8385C161.395 59.9998 158.075 54.1544 156.898 52.3518C155.379 50.0313 154.74 49.2324 152.703 49.2324H142.656C140.603 49.2324 139.952 50.0353 138.425 52.3518C137.219 54.1544 133.892 59.9797 132.867 61.8385C131.662 63.9985 129.25 62.7981 129.25 62.7981C129.25 62.7981 127.442 61.7181 128.772 59.1848C129.777 57.2698 134.575 48.9794 134.575 48.9794C134.575 48.9794 135.781 47.1407 135.781 45.6191V36.3291C135.781 34.8115 134.575 32.9768 134.575 32.9768C134.575 32.9768 129.777 24.6945 128.776 22.7955C127.446 20.2823 129.255 19.1823 129.255 19.1823C129.255 19.1823 131.666 17.9779 132.871 20.1418C133.896 21.9725 137.239 27.8059 138.429 29.6045C139.956 31.9209 140.607 32.7159 142.66 32.7159H152.707C154.744 32.7159 155.383 31.9129 156.902 29.6045C158.079 27.8059 161.399 21.9765 162.415 20.1418C163.621 17.9859 166.008 19.1823 166.008 19.1823C166.008 19.1823 167.808 20.2622 166.494 22.7955C165.494 24.6945 160.736 32.9768 160.736 32.9768C160.736 32.9768 159.53 34.8115 159.53 36.3291V45.6071C159.534 47.1287 160.732 48.9794 160.732 48.9794Z" fill="#D7D6DB"/>
</svg>
