<svg width="60" height="56" viewBox="0 0 60 56" fill="none" xmlns="http://www.w3.org/2000/svg">
<path d="M60.0002 50C60.0002 51.1047 59.1056 52 58.0002 52C55.4436 52 53.7815 52.832 51.8555 53.796C49.7929 54.8294 47.4555 56 44.0002 56C40.5295 56 38.1801 54.8254 36.1075 53.7894C34.1875 52.8294 32.5295 52 30.0001 52C27.4708 52 25.8128 52.8294 23.8928 53.7894C21.8201 54.8254 19.4707 56 16.0001 56C12.5447 56 10.2074 54.8294 8.1447 53.796C6.21869 52.832 4.55668 52 2.00001 52C0.89467 52 0 51.1047 0 50C0 48.8953 0.89467 48 2.00001 48C5.50202 48 7.85536 49.1787 9.93337 50.22C11.844 51.1747 13.4901 52 16.0001 52C18.5274 52 20.1834 51.1707 22.1034 50.212C24.1761 49.1747 26.5274 48 30.0001 48C33.4728 48 35.8241 49.1747 37.8968 50.212C39.8168 51.1707 41.4728 52 44.0002 52C46.5102 52 48.1562 51.1747 50.0669 50.22C52.1449 49.1787 54.4982 48 58.0002 48C59.1056 48 60.0002 48.8953 60.0002 50Z" fill="white"/>
<path d="M60.0002 39.9998C60.0002 41.1044 59.1056 41.9998 58.0002 41.9998C55.4436 41.9998 53.7815 42.8318 51.8555 43.7958C49.7929 44.8291 47.4555 45.9998 44.0002 45.9998C40.5295 45.9998 38.1801 44.8251 36.1075 43.7891C34.1875 42.8291 32.5295 41.9998 30.0001 41.9998C27.4708 41.9998 25.8128 42.8291 23.8928 43.7891C21.8201 44.8251 19.4707 45.9998 16.0001 45.9998C12.5447 45.9998 10.2074 44.8291 8.1447 43.7958C6.21869 42.8318 4.55668 41.9998 2.00001 41.9998C0.89467 41.9998 0 41.1044 0 39.9998C0 38.8951 0.89467 37.9998 2.00001 37.9998C5.50202 37.9998 7.85536 39.1784 9.93337 40.2198C11.844 41.1744 13.4901 41.9998 16.0001 41.9998C18.5274 41.9998 20.1834 41.1704 22.1034 40.2118C24.1761 39.1744 26.5274 37.9998 30.0001 37.9998C33.4728 37.9998 35.8241 39.1744 37.8968 40.2118C39.8168 41.1704 41.4728 41.9998 44.0002 41.9998C46.5102 41.9998 48.1562 41.1744 50.0669 40.2198C52.1449 39.1784 54.4982 37.9998 58.0002 37.9998C59.1056 37.9998 60.0002 38.8951 60.0002 39.9998Z" fill="white"/>
<path d="M58.0004 27.9998C54.4983 27.9998 52.145 29.1785 50.067 30.2199C48.1563 31.1745 46.5103 31.9999 44.0003 31.9999C41.3543 31.9999 39.7116 31.1159 37.3556 29.9499C37.0123 27.7358 36.7169 25.4752 36.4983 23.1792C46.7423 20.5458 54.0003 11.8931 54.0003 1.99974C54.0003 1.19107 53.5123 0.461735 52.7657 0.152401C52.0177 -0.156934 51.1583 0.0130664 50.5857 0.585735C49.459 1.71174 46.7183 1.98107 43.8163 2.26574C39.3849 2.70041 34.0036 3.22775 30.0036 7.00109C26.0229 3.23241 20.6462 2.70841 16.2182 2.27574C13.3042 1.99174 10.5502 1.72307 9.41349 0.586402C8.84149 0.0144 7.98349 -0.155601 7.23348 0.153067C6.48615 0.461735 6.00015 1.19107 6.00015 1.99974C6.00015 11.8931 13.2582 20.5458 23.5022 23.1798C23.2835 25.4758 22.9882 27.7365 22.6449 29.9505C20.2875 31.1165 18.6462 31.9999 16.0002 31.9999C13.4902 31.9999 11.8442 31.1745 9.93349 30.2199C7.85549 29.1785 5.50214 27.9998 2.00013 27.9998C0.894792 27.9998 0.00012207 28.8952 0.00012207 29.9999C0.00012207 31.1045 0.894792 31.9999 2.00013 31.9999C4.55681 31.9999 6.21881 32.8319 8.14482 33.7959C10.2075 34.8292 12.5448 35.9999 16.0002 35.9999C19.4709 35.9999 21.8202 34.8252 23.8929 33.7892C25.8936 32.7885 27.5809 31.9999 30.0002 31.9999C32.3989 31.9999 34.1069 32.7885 36.1076 33.7892C38.1803 34.8252 40.5296 35.9999 44.0003 35.9999C47.4556 35.9999 49.793 34.8292 51.8557 33.7959C53.7817 32.8319 55.4437 31.9999 58.0004 31.9999C59.1057 31.9999 60.0004 31.1045 60.0004 29.9999C60.0004 28.8952 59.1057 27.9998 58.0004 27.9998ZM33.9923 19.6365C32.9823 19.8211 32.2756 20.7411 32.3576 21.7652C32.5356 23.9738 32.7736 26.1692 33.0649 28.3258C31.2002 27.9145 29.0122 27.8678 26.9362 28.3258C27.2276 26.1698 27.4656 23.9745 27.6436 21.7652C27.7256 20.7405 27.0182 19.8205 26.0089 19.6365C18.0069 18.1765 11.8975 12.4551 10.3702 5.43642C12.0262 5.88576 13.8995 6.06842 15.8309 6.25642C20.5435 6.71643 25.4149 7.19176 28.3976 11.1938C28.7742 11.6998 29.3662 11.9984 29.9969 11.9991C29.9989 11.9991 29.9989 11.9991 30.0009 11.9991C30.6296 11.9991 31.2236 11.7031 31.6002 11.1991C34.6103 7.18643 39.4889 6.70776 44.2076 6.24509C46.1256 6.05776 47.987 5.87509 49.6317 5.43042C48.1076 12.4531 41.9963 18.1765 33.9923 19.6365Z" fill="white"/>
</svg>
