<svg width="636" height="379" viewBox="0 0 636 379" fill="none" xmlns="http://www.w3.org/2000/svg">
<g clip-path="url(#clip0_2372_849)">
<rect width="636" height="379" fill="white"/>
<path opacity="0.6" fill-rule="evenodd" clip-rule="evenodd" d="M370.477 334.916C391.32 334.916 411.165 330.642 429.183 322.924C443.611 351.659 473.35 371.379 507.696 371.379C556.187 371.379 595.496 332.07 595.496 283.579C595.496 266.689 590.727 250.913 582.463 237.524C587.955 234.383 591.657 228.467 591.657 221.687C591.657 213.737 586.569 206.976 579.473 204.482C585.357 195.503 588.779 184.765 588.779 173.228C588.779 141.696 563.217 116.134 531.684 116.134C522.302 116.134 513.448 118.397 505.639 122.407C496.962 103.91 484.6 87.4851 469.498 74.0784C472.651 70.8009 474.59 66.3462 474.59 61.4386C474.59 51.3694 466.428 43.2067 456.359 43.2067C449.1 43.2067 442.832 47.4485 439.899 53.5884C419.162 42.6695 395.541 36.4897 370.477 36.4897C313.932 36.4897 264.732 67.9431 239.421 114.308C224.535 108.067 208.189 104.619 191.038 104.619C176.399 104.619 162.347 107.131 149.29 111.747C149.294 111.451 149.297 111.154 149.297 110.856C149.297 96.5065 144.003 83.3932 135.261 73.3628C138.028 70.1661 139.701 65.9977 139.701 61.4386C139.701 51.3694 131.539 43.2067 121.469 43.2067C113.643 43.2067 106.968 48.1386 104.383 55.0641C100.458 54.2112 96.3826 53.7619 92.2022 53.7619C60.6699 53.7619 35.1079 79.3239 35.1079 110.856C35.1079 139.121 55.6469 162.589 82.6142 167.149C75.2192 179.91 70.0126 194.098 67.5077 209.198C47.927 222.801 35.1079 245.456 35.1079 271.104C35.1079 278.729 36.2408 286.089 38.3474 293.026C29.9414 294.649 23.5927 302.046 23.5927 310.926C23.5927 320.996 31.7554 329.158 41.8245 329.158C47.355 329.158 52.3104 326.696 55.654 322.807C69.3874 337.353 88.8507 346.43 110.434 346.43C119.245 346.43 127.702 344.918 135.56 342.138C152.282 350.415 171.116 355.067 191.038 355.067C229.835 355.067 264.511 337.423 287.48 309.722C293.252 313.591 299.308 317.069 305.611 320.116C301.018 323.427 298.029 328.822 298.029 334.916C298.029 344.985 306.192 353.148 316.261 353.148C326.33 353.148 334.493 344.985 334.493 334.916C334.493 333.36 334.298 331.849 333.931 330.408C345.626 333.352 357.869 334.916 370.477 334.916Z" fill="#EBECFF"/>
<g style="mix-blend-mode:multiply">
<path d="M370.812 80.2924C369.579 79.1702 367.928 78.6965 366.283 78.991C364.624 79.2875 363.235 80.3138 362.462 81.8045L358.277 89.8732C356.806 85.6107 355.977 80.4916 356.603 74.5052C357.481 66.1066 355.344 57.4694 350.584 50.1838C349.646 48.7472 348.68 47.4034 347.702 46.1037L350.264 44.6027C351.736 43.74 352.231 41.851 351.368 40.3845C350.506 38.917 348.617 38.4314 347.14 39.2907L343.72 41.2944C341.823 39.2317 339.864 37.405 337.848 35.8152L339.965 32.5685C340.897 31.1402 340.491 29.2317 339.061 28.3062C337.633 27.3786 335.715 27.7867 334.787 29.2138L332.742 32.349C330.604 31.1357 328.407 30.1963 326.165 29.4766L327.003 25.7521C327.377 24.0908 326.331 22.4441 324.664 22.0747C322.998 21.7043 321.346 22.7529 320.973 24.4131L320.132 28.1567C317.89 27.8858 315.606 27.8499 313.284 28.0458L312.663 24.5212C312.368 22.8453 310.766 21.7278 309.084 22.0258C307.402 22.3158 306.281 23.9226 306.575 25.5982L307.188 29.0803C306.652 29.2161 306.118 29.3278 305.577 29.4875C297.649 31.8305 289.427 40.1156 289.965 49.4178C290.044 50.7982 289.84 52.2059 289.356 53.6019C288.147 57.0925 285.313 62.1167 278.689 66.2292C277.794 66.7853 277.162 67.6952 276.955 68.7254C276.75 69.7476 276.982 70.8193 277.595 71.6737L283.034 79.1968C283.684 80.0956 284.69 80.6647 285.796 80.7585C286.895 80.8504 287.98 80.4636 288.781 79.6862C290.602 77.9059 300.157 68.9391 309.479 67.4231C311.792 67.1883 313.428 66.9238 314.482 66.6125C316.779 65.9336 318.923 64.8264 320.809 63.3576C321.016 63.6443 321.191 63.943 321.335 64.252C321.6 64.8224 321.518 65.5229 321.124 66.0363C317.173 71.1904 305.092 89.7704 315.563 112.535C315.944 113.299 325.106 131.258 345.319 131.814C346.501 131.847 347.521 132.632 347.857 133.768L349.383 138.934C350.936 144.186 350.314 149.713 347.633 154.495C345.028 159.142 340.789 162.484 335.705 163.841C333.329 164.486 330.72 164.855 327.952 164.94C324.552 165.042 321.497 164.265 319.116 162.691C317.111 161.365 315.754 159.675 315.083 157.665C312.519 150.012 314.858 148.834 316.97 147.784C319.393 147.152 320.906 144.871 320.528 142.388C320.161 139.976 318.116 138.31 315.663 138.425C315.147 138.45 314.626 138.519 314.119 138.631C308.668 139.821 298.908 145.529 300.838 158.677C301.229 161.336 302.101 163.935 303.316 166.397L301.972 167.326C300.568 168.296 300.214 170.216 301.185 171.615C301.963 172.736 303.355 173.182 304.601 172.814C304.906 172.723 305.205 172.583 305.483 172.391L306.62 171.605C309.683 175.444 314.673 179.98 322.122 182.5L321.451 184.98C321.007 186.623 321.984 188.313 323.63 188.754C324.202 188.906 324.778 188.889 325.305 188.733C326.302 188.438 327.128 187.648 327.419 186.574L328.121 183.977C332.684 184.69 340.143 185.162 348.147 182.797C350.552 182.086 353.005 181.098 355.443 179.805L357.04 182.391C357.787 183.602 359.239 184.114 360.544 183.728C360.801 183.652 361.052 183.541 361.291 183.395C362.745 182.501 363.2 180.602 362.305 179.154L360.654 176.477C363.371 174.423 366.01 171.9 368.469 168.759C370.37 166.331 371.981 163.672 373.351 160.873L376.698 161.985C377.32 162.193 377.963 162.19 378.549 162.017C379.485 161.74 380.277 161.027 380.609 160.036C381.152 158.421 380.28 156.675 378.66 156.138L375.725 155.162C377.444 150.04 378.338 144.551 378.303 138.94C378.29 136.905 378.185 134.871 377.989 132.842L381.095 132.691C381.348 132.678 381.593 132.637 381.825 132.568C383.16 132.174 384.105 130.91 384.036 129.463C383.956 127.762 382.509 126.452 380.804 126.535L377.116 126.715C376.39 122.86 375.324 119.04 373.941 115.274L380.547 114.758C380.928 114.729 381.302 114.66 381.661 114.554C382.656 114.259 383.545 113.681 384.23 112.867C385.169 111.753 385.61 110.341 385.47 108.894C384.081 94.3318 375.689 84.7222 370.812 80.2924ZM306.866 49.9576C304.624 50.6203 302.271 49.3457 301.61 47.1104C300.95 44.8752 302.232 42.5258 304.474 41.8631C306.717 41.2004 309.07 42.4753 309.731 44.7105C310.391 46.9458 309.109 49.2949 306.866 49.9576ZM379.233 108.678L371.11 109.312C369.698 106.917 368.03 104.659 366.049 102.596C364.714 101.206 363.114 99.2889 361.603 96.8634L367.445 85.6013C371.081 89.1137 377.854 97.0802 379.233 108.678Z" fill="#B9FF76"/>
</g>
<g style="mix-blend-mode:multiply">
<path d="M245.14 285.146C246.799 283.898 248.556 282.183 250.22 280.188L251.505 278.642L250.284 277.054C246.942 272.712 240.576 260.823 253.54 244.208L254.37 243.143L253.94 241.864C252.666 238.072 251.14 233.814 249.406 229.214L248.025 225.548L245.265 228.334C244.928 228.676 244.577 228.916 244.228 229.049C243.277 229.432 242.38 229.016 241.795 228.616C240.149 227.493 239.74 225.763 239.303 223.918C238.716 221.44 238.109 218.876 234.369 217.623C232.152 216.877 230.297 217.423 229.295 219.137C228.212 221.005 228.453 223.78 229.795 224.961L230.276 225.382L230.901 225.524C233.128 226.026 236.892 231.255 236.534 235.31C236.295 237.971 234.361 239.415 230.783 239.616C228.499 239.739 226.6 238.765 225.144 236.724C220.462 230.159 221.593 214.226 223.532 209.492C224.953 206.015 225.135 203.452 224.077 201.881C223.231 200.622 221.577 199.984 219.153 199.982C217.321 199.982 215.417 201.696 215.336 203.439C215.26 204.962 215.162 207.048 214.424 209.983C213.975 211.771 213.1 213.86 211.45 213.582C209.27 213.216 206.946 208.802 207.238 205.579C207.461 203.134 206.786 201.146 205.334 199.974C203.972 198.883 202.045 198.674 199.912 199.334C197.496 200.086 195.884 201.591 195.491 203.461C195.079 205.413 196.055 207.54 198.244 209.447C201.337 212.133 205.805 217.367 205.456 220.776C205.352 221.786 204.835 222.56 203.921 223.077C202.501 223.877 201.846 223.674 201.626 223.613C200.772 223.355 200.267 222.426 199.51 220.925C198.654 219.227 195.583 216.892 193.262 217.268C191.967 217.514 190.958 218.479 190.763 219.799C190.65 220.56 190.392 223.16 191.823 224.627C193.382 226.231 196.384 227.822 200.467 229.902C203.062 231.222 205.511 232.471 206.958 233.593C208.902 235.1 210.382 239.542 210.325 243.708C210.279 246.947 209.329 249.406 207.651 250.635C204.696 252.794 201.324 249.942 196.809 244.643C195.853 243.516 195.124 242.669 194.481 242.051C193.887 241.48 193.242 240.923 192.441 240.234C189.471 237.682 186.103 234.786 183.333 228.375C179.967 220.596 175.88 220.408 170.822 222.528C168.586 223.461 167.281 225.377 167.412 227.523C167.546 229.807 169.314 231.7 172.018 232.458C176.221 233.648 179.193 235.792 179.772 238.062C180.076 239.254 179.689 240.388 178.622 241.437C177.357 242.678 176.068 242.255 172.334 239.423C169.238 237.075 165.382 234.153 160.843 235.159C157.922 235.684 156.19 237.361 155.879 239.974C155.528 242.992 157.361 246.22 158.827 247.206L159.524 247.674L160.361 247.631C161.145 247.589 162.172 247.368 163.542 247.06C169.224 245.777 171.475 246.186 172.152 248.622C172.475 249.781 172.174 250.275 172.076 250.435C171.653 251.134 170.701 251.381 169.332 251.684C167.361 252.104 165.167 252.579 164.523 255.224C164.238 256.372 164.543 257.51 165.355 258.346C166.798 259.83 169.512 260.044 174.151 259.045C180.518 257.67 189.018 260.624 195.854 262.996L197.246 263.478C198.535 263.921 200.309 264.662 200.856 265.959C201.296 266.994 200.84 268.103 200.138 269.584C199.968 269.944 199.799 270.307 199.655 270.653L198.362 273.776L201.728 274.107C202.844 274.216 204.351 274.194 205.464 274.177C207.675 274.145 209.959 274.114 211.384 274.673C212.957 275.292 213.888 276.355 213.933 277.59C214.032 280.436 209.743 282.919 207.181 284.151C198.495 288.312 184.365 285.287 180.173 278.382C178.768 276.068 176.778 274.826 174.824 275.062C173.549 275.216 172.525 276.035 172.16 277.171C171.724 278.574 172.368 280.176 173.94 281.57C175.094 282.595 175.385 283.612 174.807 284.6C172.989 287.685 162.997 289.506 158.945 288.094C157.615 287.632 156.172 286.846 154.774 286.083L154.503 285.933C151.342 284.203 149.103 283.133 147.268 283.933C146.187 284.405 145.427 285.532 144.94 287.378C144.529 288.957 144.587 290.152 145.14 291.06C145.935 292.341 147.509 292.757 149.869 293.254C152.352 293.773 154.308 294.307 155.05 296.02C155.614 297.325 155.318 297.965 155.221 298.178C154.772 299.154 153.531 299.602 151.526 300.226C149.846 300.75 148.102 301.289 146.873 302.458C145.967 303.312 145.757 304.653 146.285 306.094C147.408 309.376 151.514 312.883 154.573 313.175L155.036 313.22L155.482 313.095C157.189 312.623 158.202 310.904 160.203 306.3C161.479 303.359 162.8 300.32 164.771 298.792C165.31 298.375 166.419 297.762 168.636 297.228C173.864 295.969 182.114 295.838 190.314 295.809C191.779 295.805 193.066 295.8 194.099 295.778C200.567 295.64 203.947 298.156 210.815 305.78C211.533 306.58 212.3 307.492 213.11 308.45C217.062 313.143 221.982 318.983 226.806 317.951C227.403 317.822 228.01 317.683 228.619 317.536C231.813 316.767 235.136 315.772 238.4 314.796L241.876 313.747L241.121 311.33C239.736 306.938 235.952 292.057 245.14 285.146ZM240.616 240.147C239.517 240.412 238.413 239.736 238.15 238.642C237.886 237.545 238.563 236.443 239.66 236.179C240.757 235.914 241.863 236.589 242.127 237.684C242.393 238.778 241.715 239.882 240.616 240.147ZM246.334 230.854C247.378 230.602 248.429 231.244 248.68 232.286C248.931 233.327 248.287 234.377 247.243 234.628C246.199 234.88 245.148 234.238 244.897 233.196C244.646 232.155 245.29 231.105 246.334 230.854ZM245.951 241.015C246.711 240.832 247.476 241.299 247.658 242.057C247.841 242.816 247.373 243.579 246.613 243.762C245.853 243.945 245.088 243.478 244.906 242.72C244.723 241.962 245.191 241.198 245.951 241.015ZM241.344 232.15C241.503 232.811 241.094 233.478 240.432 233.638C239.769 233.797 239.101 233.39 238.942 232.728C238.783 232.067 239.192 231.4 239.855 231.241C240.517 231.081 241.185 231.489 241.344 232.15ZM236.841 227.371C235.952 227.585 235.056 227.04 234.842 226.15C234.628 225.263 235.175 224.368 236.066 224.153C236.955 223.939 237.851 224.484 238.066 225.374C238.28 226.263 237.73 227.156 236.841 227.371ZM232.411 221.069C232.136 219.926 232.841 218.776 233.987 218.5C235.132 218.224 236.284 218.927 236.559 220.07C236.834 221.213 236.129 222.363 234.983 222.639C233.838 222.917 232.686 222.212 232.411 221.069ZM240.168 244.943C241.316 244.667 242.47 245.372 242.746 246.517C243.022 247.662 242.315 248.815 241.167 249.092C240.019 249.368 238.865 248.663 238.589 247.518C238.313 246.373 239.02 245.22 240.168 244.943ZM240.108 251.27C240.808 251.102 241.512 251.532 241.681 252.23C241.849 252.928 241.417 253.632 240.717 253.801C240.018 253.969 239.313 253.539 239.145 252.841C238.977 252.143 239.408 251.439 240.108 251.27ZM219.042 203.254C219.705 203.094 220.369 203.5 220.528 204.162C220.688 204.823 220.281 205.487 219.618 205.646C218.957 205.805 218.29 205.4 218.131 204.739C217.974 204.077 218.381 203.413 219.042 203.254ZM217.931 210.339C218.522 210.196 219.115 210.558 219.257 211.148C219.399 211.738 219.036 212.33 218.444 212.473C217.853 212.615 217.26 212.253 217.118 211.663C216.976 211.073 217.342 210.481 217.931 210.339ZM198.889 204.727C198.215 204.89 197.536 204.475 197.374 203.802C197.212 203.129 197.628 202.451 198.302 202.289C198.976 202.127 199.655 202.541 199.817 203.214C199.982 203.886 199.566 204.564 198.889 204.727ZM195.776 221.51C195.252 221.636 194.725 221.315 194.599 220.792C194.473 220.268 194.796 219.744 195.32 219.618C195.845 219.492 196.372 219.814 196.497 220.334C196.623 220.858 196.3 221.384 195.776 221.51ZM163.271 242.971C161.996 243.278 160.713 242.495 160.406 241.222C160.1 239.95 160.886 238.669 162.161 238.362C163.436 238.055 164.719 238.838 165.026 240.11C165.332 241.382 164.546 242.664 163.271 242.971ZM168.924 243.251C168.249 243.413 167.571 242.999 167.409 242.326C167.247 241.653 167.662 240.975 168.337 240.812C169.013 240.649 169.69 241.064 169.852 241.737C170.016 242.41 169.601 243.088 168.924 243.251ZM169.229 257.499C168.273 257.729 167.311 257.142 167.081 256.187C166.851 255.233 167.441 254.272 168.397 254.042C169.353 253.812 170.316 254.399 170.545 255.353C170.775 256.307 170.186 257.269 169.229 257.499ZM177.765 255.444C176.71 255.698 175.647 255.049 175.394 253.996C175.14 252.943 175.791 251.881 176.846 251.627C177.902 251.373 178.965 252.022 179.218 253.075C179.472 254.128 178.821 255.189 177.765 255.444ZM178.241 247.729C177.507 247.906 176.768 247.455 176.591 246.722C176.415 245.989 176.868 245.251 177.602 245.074C178.337 244.898 179.076 245.349 179.252 246.081C179.428 246.814 178.976 247.552 178.241 247.729ZM176.927 229.92C175.913 230.164 174.896 229.541 174.653 228.532C174.409 227.52 175.032 226.505 176.046 226.261C177.057 226.017 178.077 226.64 178.32 227.649C178.563 228.658 177.939 229.677 176.927 229.92ZM184.338 256.714C183.422 256.934 182.499 256.371 182.279 255.456C182.059 254.541 182.624 253.62 183.541 253.4C184.457 253.179 185.38 253.742 185.6 254.657C185.82 255.572 185.255 256.493 184.338 256.714ZM184.164 244.513C183.234 244.738 182.297 244.166 182.073 243.237C181.85 242.308 182.424 241.373 183.354 241.149C184.285 240.925 185.222 241.496 185.445 242.425C185.669 243.354 185.095 244.289 184.164 244.513ZM183.017 236.044C182.55 236.156 182.084 235.871 181.971 235.406C181.859 234.94 182.148 234.473 182.612 234.362C183.078 234.249 183.545 234.534 183.657 235C183.769 235.465 183.483 235.932 183.017 236.044ZM190.549 256.579C189.877 256.74 189.199 256.328 189.036 255.655C188.874 254.983 189.289 254.307 189.963 254.145C190.635 253.983 191.313 254.395 191.475 255.068C191.637 255.741 191.221 256.417 190.549 256.579ZM199.763 261.185C199.496 260.076 200.18 258.96 201.291 258.693C202.402 258.426 203.519 259.107 203.786 260.216C204.053 261.324 203.368 262.44 202.258 262.708C201.147 262.975 200.03 262.293 199.763 261.185ZM205.784 271.509C204.696 271.771 203.602 271.103 203.341 270.017C203.079 268.932 203.75 267.839 204.837 267.577C205.925 267.315 207.019 267.983 207.281 269.069C207.542 270.152 206.872 271.247 205.784 271.509ZM206.514 266.106C205.989 266.232 205.462 265.91 205.336 265.387C205.21 264.864 205.534 264.34 206.058 264.214C206.582 264.087 207.109 264.409 207.235 264.93C207.361 265.453 207.038 265.979 206.514 266.106ZM150.017 291.149C149.031 291.386 148.04 290.781 147.802 289.795C147.565 288.808 148.172 287.819 149.158 287.581C150.144 287.344 151.137 287.948 151.375 288.935C151.612 289.921 151.003 290.911 150.017 291.149ZM151.458 307.686C150.388 307.944 149.314 307.288 149.057 306.221C148.8 305.154 149.458 304.081 150.528 303.824C151.597 303.566 152.671 304.222 152.928 305.289C153.185 306.356 152.527 307.429 151.458 307.686ZM156.845 304.346C156.311 304.474 155.773 304.145 155.645 303.613C155.517 303.081 155.846 302.543 156.38 302.415C156.913 302.286 157.452 302.615 157.58 303.147C157.708 303.68 157.381 304.217 156.845 304.346ZM154.023 290.608C153.846 289.873 154.301 289.132 155.038 288.955C155.774 288.777 156.516 289.23 156.693 289.965C156.87 290.701 156.416 291.441 155.679 291.619C154.942 291.796 154.2 291.343 154.023 290.608ZM159.987 298.133C159.017 298.366 158.043 297.772 157.81 296.804C157.577 295.836 158.173 294.863 159.143 294.63C160.113 294.396 161.087 294.991 161.32 295.959C161.553 296.924 160.957 297.899 159.987 298.133ZM170.164 294.958C169.376 295.148 168.583 294.663 168.393 293.878C168.204 293.092 168.688 292.3 169.478 292.11C170.265 291.92 171.059 292.404 171.248 293.19C171.437 293.976 170.951 294.768 170.164 294.958ZM178.461 287.64C177.905 287.774 177.346 287.433 177.212 286.878C177.079 286.322 177.421 285.765 177.977 285.631C178.534 285.497 179.092 285.838 179.226 286.393C179.36 286.948 179.018 287.506 178.461 287.64ZM177.789 280.69C176.803 280.927 175.812 280.322 175.575 279.338C175.338 278.354 175.945 277.364 176.932 277.127C177.918 276.89 178.909 277.494 179.146 278.479C179.382 279.46 178.776 280.452 177.789 280.69ZM184.046 287.922C183.342 288.091 182.637 287.659 182.468 286.958C182.299 286.258 182.733 285.551 183.435 285.382C184.139 285.212 184.847 285.644 185.015 286.345C185.184 287.046 184.751 287.752 184.046 287.922ZM201.963 291.615C201.25 291.786 200.534 291.349 200.362 290.637C200.191 289.925 200.629 289.21 201.343 289.038C202.057 288.866 202.773 289.303 202.944 290.015C203.116 290.728 202.677 291.443 201.963 291.615ZM211.279 291.895C209.912 292.224 208.537 291.385 208.208 290.021C207.88 288.656 208.722 287.283 210.089 286.954C211.457 286.625 212.832 287.464 213.16 288.828C213.489 290.193 212.646 291.566 211.279 291.895ZM214.108 287.196C213.409 287.364 212.704 286.934 212.536 286.236C212.368 285.537 212.799 284.834 213.499 284.665C214.199 284.497 214.903 284.927 215.072 285.625C215.24 286.323 214.81 287.027 214.108 287.196ZM217.376 226.881C217.827 226.773 218.279 227.049 218.387 227.498C218.495 227.948 218.218 228.4 217.768 228.508C217.318 228.617 216.865 228.34 216.757 227.891C216.649 227.441 216.926 226.99 217.376 226.881ZM202.299 207.251C202.136 206.574 202.554 205.893 203.233 205.729C203.912 205.566 204.594 205.982 204.757 206.66C204.92 207.337 204.502 208.018 203.823 208.181C203.147 208.347 202.463 207.929 202.299 207.251ZM212.685 273.002C211.904 273.19 211.121 272.71 210.934 271.934C210.747 271.155 211.228 270.373 212.007 270.186C212.787 269.998 213.57 270.478 213.757 271.254C213.946 272.03 213.465 272.814 212.685 273.002ZM219.997 290.454C219.159 290.656 218.317 290.142 218.115 289.305C217.914 288.469 218.43 287.628 219.268 287.426C220.106 287.224 220.949 287.738 221.15 288.575C221.351 289.409 220.836 290.252 219.997 290.454ZM218.644 283.638C217.596 283.891 216.542 283.247 216.29 282.201C216.038 281.155 216.684 280.102 217.732 279.85C218.781 279.597 219.835 280.241 220.087 281.287C220.339 282.333 219.693 283.386 218.644 283.638ZM228.296 309.902C227.608 310.068 226.915 309.645 226.749 308.958C226.584 308.271 227.009 307.579 227.697 307.413C228.385 307.247 229.078 307.67 229.244 308.357C229.409 309.044 228.987 309.736 228.296 309.902ZM230.288 305.39C229.371 305.61 228.447 305.048 228.226 304.131C228.006 303.216 228.57 302.292 229.489 302.071C230.408 301.85 231.331 302.413 231.552 303.33C231.772 304.247 231.207 305.168 230.288 305.39ZM211.364 219.693C210.334 219.941 209.3 219.307 209.052 218.279C208.805 217.251 209.438 216.216 210.468 215.968C211.498 215.72 212.535 216.353 212.782 217.381C213.03 218.409 212.395 219.445 211.364 219.693ZM235.503 308.437C235.088 308.537 234.672 308.282 234.572 307.869C234.472 307.454 234.729 307.039 235.143 306.939C235.556 306.84 235.974 307.095 236.074 307.508C236.173 307.92 235.917 308.338 235.503 308.437ZM219.84 234.141C219.016 234.34 218.188 233.834 217.99 233.012C217.792 232.189 218.299 231.362 219.123 231.164C219.948 230.965 220.776 231.47 220.974 232.293C221.172 233.116 220.665 233.943 219.84 234.141ZM354.417 260.371C352.952 259.319 350.624 259.394 343.591 260.729L344.053 263.195L343.586 260.728C339.233 261.554 334.73 262.407 331.291 261.794C327.188 261.061 322.536 256.902 318.035 252.88C314.576 249.79 311.314 246.87 308.689 245.931C306.187 245.037 302.597 246.101 297.809 247.71C291.264 249.893 287.921 250.5 286.648 248.003C286.004 246.742 285.924 245.676 286.404 244.829C287.737 242.482 293.199 242.091 298.014 241.751C299.415 241.652 300.767 241.556 301.967 241.416C308.842 240.621 327.053 245.869 332.453 249.584C335.536 251.702 337.658 250.243 338.241 249.734C340.243 247.991 340.581 244.536 339.054 241.519C337.392 238.242 335.173 238.562 333.211 238.847C331.276 239.132 330.298 239.051 329.626 237.83C328.725 236.189 329.598 234.943 332.05 232.585C333.429 231.258 334.991 229.751 335.756 227.833C336.719 225.439 336.549 223 335.306 221.307C334.315 219.961 332.786 219.295 330.958 219.435C327.986 219.727 327.543 222.613 327.116 225.673C326.958 226.811 326.792 227.987 326.486 229.041C326.114 230.318 323.676 231.671 319.619 232.855C312.349 234.817 305.496 235.399 303.54 234.29C303.648 233.804 304.139 232.515 306.319 229.798C307.343 228.52 307.374 226.718 306.39 225.412C305.392 224.089 303.665 223.647 302.164 224.269C298.028 225.989 296.503 226.149 295.958 226.088C295.397 225.211 295.554 224.166 295.798 223.415C296.789 220.365 300.505 217.176 304.259 216.155C306.107 215.652 310.51 214.131 311.499 210.862C312.035 209.09 311.408 207.166 309.638 205.151C309.264 204.725 308.131 203.43 306.524 203.817L306.112 203.955C305.134 204.378 304.403 205.249 302.374 208.39C300.859 210.735 299.699 212.367 298.496 212.091C297.549 211.873 296.927 211.421 296.596 210.705C295.953 209.322 296.483 206.949 298.169 203.651C299.24 201.562 299.481 198.454 297.865 196.554C297.158 195.729 295.493 194.496 292.121 195.562C290.706 196.017 289.739 196.789 289.153 197.937C287.74 200.747 289.016 205.001 290.836 210.276C291.108 211.059 291.37 211.825 291.608 212.558C293.689 218.978 284.764 228.846 280.285 231.471C279.82 231.741 279.339 232.038 278.849 232.336L278.559 232.513C275.359 234.476 271.729 236.701 269.002 235.777C267.68 235.332 266.692 234.212 265.979 232.358C263.373 225.563 264.936 213.096 269.023 208.109C270.759 205.986 271.228 203.74 270.307 201.946C269.519 200.407 267.834 199.561 265.768 199.686C261.615 199.964 260.898 204.382 260.24 208.256C259.532 212.43 258.852 214.427 256.884 214.44C256.162 214.446 255.631 214.24 255.259 213.812C254.229 212.629 254.626 209.934 255.047 207.078C255.39 204.757 253.837 202.559 251.436 201.964C249.108 201.386 246.895 202.616 246.065 204.945C245.037 207.82 246.845 211.867 249.32 216.861C250.107 218.454 250.855 219.959 251.363 221.294L252.947 225.38C255.439 231.831 263.019 251.471 263.888 260.071C264.805 269.169 257.77 281.03 250.629 286.402C241.465 293.297 245.262 308.265 246.642 312.687L247.367 315.009L249.715 314.356C250.924 314.021 252.133 313.703 253.318 313.418C256.78 312.584 259.586 312.152 261.887 312.101C262.741 312.085 263.523 311.985 264.251 311.809C269.341 310.584 271.531 305.695 274.217 299.701C276.306 295.043 278.675 289.762 282.934 285.075C284.973 282.826 285.895 280.831 285.753 278.971C285.559 276.441 283.381 274.683 281.627 273.264C279.874 271.851 279.133 271.083 279.362 270.279C279.698 269.099 281.645 263.261 286.562 263.916C290.671 264.482 293.422 263.768 296.048 261.463C297.191 260.464 303.173 255.82 309.68 262.043C312.44 264.687 313.805 267.95 315.012 270.831C316.206 273.691 316.793 274.82 317.717 275.459L318.409 275.938L319.251 275.904C321.397 275.816 321.96 274.398 322.688 272.601L322.821 272.262C323.038 271.712 323.26 271.144 323.541 270.687C323.759 270.332 324.046 270.092 324.26 270.089C325.945 270.106 330.662 278.128 333.785 283.437C336.746 288.471 338.292 288.598 339.565 288.214C341.812 287.587 343.1 283.988 343.789 281.023C344.33 278.686 342.141 277.063 338.175 275.051C336.008 273.949 333.722 272.612 333.187 271.027C332.909 270.211 333.034 269.44 333.508 269.065C335.045 267.836 339.46 268.758 342.077 270.352C343.19 271.029 344.113 271.766 344.898 272.408C346.566 273.764 347.444 274.367 348.42 274.493C348.671 274.532 349.742 274.718 349.894 274.748C350.838 275.018 351.837 274.823 352.648 274.231C355.485 272.143 355.718 263.885 355.726 263.535C355.745 262.152 355.346 261.112 354.417 260.371ZM329.922 223.332C331.158 223.035 332.401 223.794 332.698 225.027C332.995 226.26 332.233 227.501 330.998 227.799C329.762 228.096 328.519 227.337 328.222 226.104C327.925 224.871 328.687 223.63 329.922 223.332ZM334.751 240.963C336.195 240.615 337.644 241.5 337.991 242.941C338.338 244.381 337.45 245.828 336.006 246.176C334.563 246.523 333.114 245.639 332.767 244.198C332.42 242.758 333.308 241.311 334.751 240.963ZM332.374 246.443C332.861 246.326 333.351 246.625 333.468 247.111C333.585 247.598 333.285 248.087 332.798 248.204C332.311 248.321 331.821 248.022 331.704 247.536C331.587 247.05 331.887 246.561 332.374 246.443ZM326.456 241.176C327.592 240.902 328.737 241.599 329.011 242.735C329.284 243.871 328.584 245.013 327.446 245.287C326.307 245.561 325.164 244.863 324.891 243.727C324.617 242.591 325.32 241.449 326.456 241.176ZM315.497 235.734C316.471 235.5 317.451 236.098 317.685 237.07C317.919 238.043 317.319 239.021 316.345 239.256C315.37 239.49 314.39 238.892 314.156 237.92C313.92 236.948 314.52 235.97 315.497 235.734ZM293.066 197.617C294.336 197.311 295.613 198.09 295.919 199.358C296.224 200.626 295.441 201.901 294.171 202.207C292.901 202.513 291.623 201.733 291.318 200.466C291.013 199.198 291.796 197.922 293.066 197.617ZM292.348 204.723C293.152 204.53 293.962 205.022 294.155 205.824C294.348 206.626 293.854 207.435 293.048 207.629C292.244 207.823 291.434 207.33 291.241 206.526C291.047 205.724 291.545 204.917 292.348 204.723ZM297.79 229.843C298.643 229.638 299.499 230.16 299.704 231.011C299.909 231.861 299.384 232.716 298.532 232.922C297.68 233.127 296.823 232.604 296.618 231.754C296.414 230.903 296.936 230.048 297.79 229.843ZM293.881 235.809C294.093 236.692 293.55 237.579 292.665 237.792C291.78 238.005 290.892 237.462 290.68 236.58C290.467 235.697 291.011 234.81 291.896 234.597C292.78 234.384 293.668 234.926 293.881 235.809ZM288.157 229.166C289.409 228.864 290.666 229.632 290.967 230.881C291.268 232.13 290.497 233.386 289.246 233.687C287.994 233.989 286.736 233.221 286.436 231.972C286.135 230.725 286.905 229.467 288.157 229.166ZM266.612 203.211C267.873 202.907 269.142 203.682 269.445 204.94C269.748 206.198 268.97 207.466 267.709 207.769C266.448 208.073 265.179 207.298 264.876 206.04C264.573 204.779 265.351 203.514 266.612 203.211ZM263.143 303.162C262.233 303.381 261.317 302.824 261.098 301.914C260.879 301.003 261.442 300.093 262.352 299.873C263.262 299.654 264.178 300.212 264.396 301.12C264.615 302.028 264.053 302.943 263.143 303.162ZM267.143 297.913C266.41 298.089 265.677 297.639 265.501 296.909C265.325 296.178 265.776 295.443 266.506 295.267C267.238 295.091 267.974 295.54 268.15 296.271C268.326 297.001 267.875 297.737 267.143 297.913ZM275.176 268.176C275.461 269.363 274.728 270.559 273.539 270.845C272.349 271.132 271.152 270.401 270.866 269.214C270.58 268.027 271.314 266.831 272.503 266.545C273.693 266.259 274.89 266.989 275.176 268.176ZM262.192 237.553C262.913 237.38 263.637 237.822 263.811 238.541C263.984 239.26 263.54 239.984 262.819 240.158C262.099 240.331 261.374 239.889 261.201 239.17C261.028 238.451 261.472 237.727 262.192 237.553ZM258.34 233.629C258.082 232.557 258.743 231.479 259.817 231.22C260.891 230.962 261.971 231.621 262.229 232.693C262.487 233.764 261.825 234.843 260.751 235.101C259.678 235.36 258.598 234.701 258.34 233.629ZM258.616 221.879C260.17 221.505 261.734 222.459 262.108 224.01C262.481 225.561 261.523 227.123 259.969 227.497C258.415 227.872 256.851 226.917 256.477 225.366C256.104 223.815 257.059 222.254 258.616 221.879ZM251.768 214.219C251.128 214.373 250.483 213.98 250.33 213.341C250.176 212.703 250.571 212.059 251.21 211.905C251.85 211.751 252.495 212.145 252.648 212.783C252.802 213.421 252.407 214.065 251.768 214.219ZM249.487 207.334C249.238 206.302 249.875 205.263 250.91 205.014C251.944 204.765 252.984 205.4 253.233 206.432C253.481 207.465 252.844 208.503 251.81 208.752C250.777 209.001 249.735 208.367 249.487 207.334ZM274.047 287.629C272.358 288.036 270.66 286.999 270.254 285.314C269.849 283.63 270.889 281.933 272.577 281.527C274.266 281.12 275.964 282.157 276.37 283.842C276.775 285.526 275.735 287.223 274.047 287.629ZM275.955 276.71C275.285 276.871 274.612 276.46 274.451 275.792C274.29 275.124 274.703 274.451 275.372 274.29C276.042 274.129 276.715 274.54 276.876 275.208C277.037 275.876 276.625 276.549 275.955 276.71ZM282.29 277.915C282.589 279.155 281.824 280.402 280.581 280.702C279.339 281.001 278.087 280.239 277.789 278.999C277.49 277.759 278.255 276.512 279.5 276.212C280.742 275.911 281.992 276.675 282.29 277.915ZM277.265 264.728C276.757 264.85 276.247 264.539 276.125 264.032C276.003 263.525 276.315 263.016 276.823 262.893C277.332 262.771 277.841 263.082 277.964 263.589C278.086 264.096 277.773 264.606 277.265 264.728ZM283.844 253.103C283.394 253.212 282.941 252.936 282.833 252.486C282.725 252.037 283.002 251.585 283.452 251.476C283.903 251.368 284.355 251.644 284.463 252.094C284.572 252.543 284.294 252.995 283.844 253.103ZM291.255 258.29C290.036 258.583 288.812 257.834 288.519 256.618C288.226 255.401 288.978 254.179 290.195 253.886C291.414 253.592 292.638 254.341 292.93 255.556C293.223 256.772 292.474 257.996 291.255 258.29ZM311.613 256.916C310.243 257.246 308.865 256.405 308.536 255.038C308.207 253.672 309.051 252.296 310.421 251.966C311.79 251.636 313.168 252.477 313.497 253.844C313.826 255.21 312.982 256.586 311.613 256.916ZM320.047 270.099C319.26 270.289 318.469 269.806 318.28 269.02C318.091 268.235 318.575 267.445 319.363 267.255C320.15 267.066 320.941 267.548 321.13 268.334C321.319 269.12 320.835 269.91 320.047 270.099ZM318.098 265.283C316.775 265.601 315.446 264.79 315.128 263.469C314.81 262.149 315.624 260.822 316.948 260.503C318.271 260.184 319.6 260.996 319.918 262.316C320.233 263.635 319.419 264.965 318.098 265.283ZM325.4 268.074C324.273 268.346 323.138 267.653 322.867 266.529C322.597 265.404 323.291 264.271 324.419 264C325.546 263.728 326.68 264.421 326.951 265.545C327.221 266.67 326.529 267.802 325.4 268.074ZM337.617 279.654C338.714 279.39 339.817 280.063 340.08 281.158C340.344 282.253 339.668 283.354 338.571 283.618C337.474 283.882 336.371 283.209 336.108 282.114C335.842 281.02 336.52 279.918 337.617 279.654ZM334.016 274.319C334.692 274.156 335.371 274.57 335.534 275.245C335.697 275.921 335.281 276.599 334.604 276.761C333.927 276.924 333.248 276.51 333.086 275.835C332.924 275.162 333.339 274.482 334.016 274.319ZM344.637 269.538C343.692 269.765 342.744 269.186 342.517 268.244C342.29 267.301 342.873 266.354 343.816 266.127C344.76 265.899 345.708 266.478 345.935 267.421C346.162 268.361 345.582 269.31 344.637 269.538ZM351.087 267.799C349.733 268.125 348.373 267.295 348.048 265.944C347.722 264.594 348.556 263.235 349.909 262.909C351.263 262.583 352.623 263.414 352.948 264.764C353.274 266.115 352.44 267.474 351.087 267.799Z" fill="#B9FF76"/>
</g>
<g style="mix-blend-mode:multiply">
<path d="M610.497 262.576C592.336 273.202 582.29 266.247 581.903 266.054C581.71 266.054 581.71 265.86 581.517 265.86L578.233 263.928C577.846 263.735 577.653 263.735 577.267 263.542L578.619 258.132C580.551 259.291 584.995 261.223 591.564 261.223C597.36 261.223 604.895 259.678 613.975 254.461C615.714 253.495 616.293 251.37 615.327 249.631C614.361 247.892 612.236 247.313 610.497 248.279C592.53 258.712 582.483 252.143 581.903 251.757C581.517 251.37 580.937 251.177 580.551 251.177L580.937 249.438C581.131 249.438 581.324 249.438 581.71 249.438C582.483 249.438 583.256 249.245 583.835 248.859C587.699 245.96 607.213 231.663 609.725 222.39C613.395 208.286 593.882 171.384 591.564 167.327C591.37 166.94 590.984 166.554 590.598 166.168C588.665 161.917 583.642 153.803 570.891 146.654C570.891 146.654 550.025 138.153 545.002 162.69C545.002 162.69 559.105 159.019 564.129 170.032C564.129 170.032 553.116 178.533 545.388 177.567C545.388 177.567 558.526 191.284 572.63 184.908C572.63 184.908 582.676 181.238 588.086 175.828C595.621 190.898 604.701 212.73 602.769 220.458C601.417 225.288 588.472 236.494 579.585 242.869C575.334 238.039 565.868 228.186 553.889 222.003C555.241 220.651 556.014 218.719 556.014 216.594C556.014 212.343 552.73 209.059 548.672 209.059C544.615 209.059 541.331 212.536 541.331 216.594C541.331 216.787 541.331 216.98 541.331 217.173C538.819 216.594 536.308 216.207 533.796 216.207C531.284 216.4 528.773 216.594 526.261 217.173C526.261 216.98 526.261 216.787 526.261 216.594C526.261 212.343 522.977 209.059 518.919 209.059C514.862 209.059 511.578 212.536 511.578 216.594C511.578 218.719 512.35 220.651 513.703 222.003C501.724 228.379 492.064 238.232 488.007 242.869C479.119 236.494 466.175 225.288 464.822 220.458C462.89 212.73 471.778 191.091 479.506 175.828C484.916 181.238 494.962 184.908 494.962 184.908C509.066 191.284 522.204 177.567 522.204 177.567C514.476 178.533 503.463 170.032 503.463 170.032C508.486 159.019 522.59 162.69 522.59 162.69C517.76 137.96 496.701 146.654 496.701 146.654C483.95 153.803 478.926 161.917 476.994 166.168C476.608 166.554 476.221 166.94 476.028 167.327C473.903 171.384 454.389 208.286 458.06 222.39C460.379 231.47 480.085 245.96 483.95 248.859C484.529 249.245 485.302 249.438 486.075 249.438C486.268 249.438 486.461 249.438 486.848 249.438L487.234 251.177C487.041 251.177 486.848 251.37 486.654 251.37C486.461 251.563 486.075 251.563 485.882 251.757C485.495 252.143 475.449 258.905 457.288 248.279C455.549 247.313 453.423 247.892 452.457 249.631C451.491 251.37 452.071 253.495 453.81 254.461C462.697 259.678 470.232 261.223 476.221 261.223C482.79 261.223 487.234 259.098 489.166 258.132L490.518 263.542C490.132 263.542 489.939 263.735 489.552 263.928L486.268 265.86L486.075 266.054C485.688 266.44 475.642 273.202 457.481 262.576C455.742 261.61 453.617 262.19 452.651 263.928C451.685 265.667 452.264 267.792 454.003 268.758C462.89 273.975 470.425 275.521 476.415 275.521C484.336 275.521 489.166 272.622 490.325 271.85L492.644 270.497L493.996 276.1C493.803 276.1 493.803 276.1 493.61 276.1C492.644 276.293 471.585 279.385 461.731 296.193C460.765 297.932 461.345 300.057 463.084 301.023C463.663 301.41 464.243 301.603 464.822 301.603C465.982 301.603 467.334 301.023 467.914 299.864C475.449 286.919 492.257 283.635 494.382 283.249H494.962C495.348 283.249 495.542 283.249 495.928 283.055L497.667 289.624H571.664L573.402 283.055C573.596 283.055 573.982 283.249 574.368 283.249H574.948C577.073 283.635 593.882 286.726 601.417 299.864C601.996 301.023 603.349 301.603 604.508 301.603C605.088 301.603 605.667 301.41 606.247 301.023C607.986 300.057 608.565 297.932 607.599 296.193C597.746 279.385 576.687 276.293 575.721 276.1C575.528 276.1 575.528 276.1 575.334 276.1L576.687 270.69L579.005 272.043C580.165 272.816 584.995 275.714 592.916 275.714C598.712 275.714 606.247 274.168 615.327 268.952C617.066 267.986 617.646 265.86 616.68 264.122C614.361 262.189 612.236 261.61 610.497 262.576Z" fill="#B9FF76"/>
</g>
<g style="mix-blend-mode:multiply">
<path d="M117.762 266.576C120.493 263.786 121.728 259.031 120.978 254.167C120.828 253.156 120.558 252.187 120.293 251.244C120.087 250.485 119.877 249.73 119.734 248.859C119.875 248.782 120.104 248.688 120.281 248.611L120.694 248.429C122.061 247.812 123.754 247.046 125.134 245.714C131.019 240.03 130.5 228.217 126.164 221.08C128.448 217.582 130.235 213.817 131.369 209.872C134.86 197.682 131.139 184.82 122.491 174.362C122.538 174.232 122.607 174.118 122.656 173.995C124.616 168.635 123.073 162.574 119.009 157.051C121.475 155.679 123.308 153.737 124.2 151.285C125.482 147.784 124.623 143.844 122.188 140.156C124.515 136.364 124.695 131.87 124.158 127.569C123.765 124.407 123.846 119.248 119.807 118.436C115.345 117.535 110.672 122.555 107.305 124.748C102.879 127.628 99.1525 127.203 93.7556 126.961C88.4022 126.717 81.7137 129.778 79.789 135.037C79.1726 136.726 79.0738 138.511 79.3863 140.326C70.6955 141.232 63.8326 145.181 61.4755 151.611C61.1639 152.469 60.9694 153.345 60.8312 154.233C60.7086 155.024 48.3303 157.421 46.932 157.898C43.0077 159.235 39.1867 161.021 35.7368 163.327C21.6231 172.754 18.4673 189.706 20.8925 205.491C23.3371 221.376 34.9073 234.292 31.2077 251.028C28.4444 263.513 21.3173 274.479 18.0262 286.691C24.5472 287.644 30.3798 281.829 35.3384 278.465C43.7513 272.752 40.7215 284.027 43.2263 288.509C45.839 293.177 52.1061 293.047 56.6059 291.801C58.9872 291.136 60.6891 289.612 62.7542 290.475C65.9592 291.823 67.8918 293.626 71.6952 293.23C75.3812 292.851 78.5153 290.789 80.2469 287.712C83.4287 289.558 87.2643 289.872 90.6285 288.489C94.0072 287.102 96.3938 284.243 97.1655 280.782C101.833 281.985 106.769 280.248 109.435 276.265C110.799 274.232 111.423 271.79 111.253 269.339C113.82 269.272 116.039 268.334 117.762 266.576ZM91.4781 271.389C85.5524 276.056 76.5474 275.451 70.8998 278.144C59.4229 283.627 51.7154 277.784 48.1414 272.953C45.981 270.034 45.981 270.034 52.1809 264.429C64.2851 253.49 61.8014 237.095 82.2786 235.2C107.751 232.845 113.096 226.674 117.135 227.478C124.71 228.984 108.055 241.988 104.79 246.729C100.6 252.82 99.1029 265.376 91.4781 271.389Z" fill="#B9FF76"/>
</g>
<g style="mix-blend-mode:multiply">
<path fill-rule="evenodd" clip-rule="evenodd" d="M477.643 71.4964C438.866 56.8991 395.223 52.5727 372.787 105.243C384.932 110.577 392.103 121.101 394.427 130.795C399.346 150.941 384.299 168.545 354.279 135.461C345.449 162.507 356.44 193.285 380.405 208.621C382.046 174.185 396.57 167.861 407.561 174.745C409.453 176.061 411.526 177.881 413.093 179.881C419.796 188.296 422.643 202.64 415.398 216.605C444.932 226.823 472.898 215.129 488.792 193.525C506.704 187.128 521.012 174.623 529.842 159.523C539.051 146.28 549.575 131.144 554.495 107.484C553.053 107.43 546.999 105.61 540.512 103.375C524.638 82.0216 501.123 71.9298 477.643 71.4964ZM523.843 116.439C522.077 117.069 520.023 116.096 519.393 114.33C518.762 112.564 519.735 110.51 521.501 109.88C523.267 109.249 525.321 110.222 525.952 111.988C526.582 113.754 525.609 115.808 523.843 116.439Z" fill="#270EC5"/>
</g>
<g style="mix-blend-mode:multiply">
<path d="M545.791 328.724C545.377 324.647 536.935 308.841 525.264 300.212C532.614 296.547 549.766 286.65 550.879 282.392C551.011 281.911 550.911 281.398 550.631 280.996C550.346 280.589 549.906 280.328 549.399 280.282C532.681 278.764 512.672 284.288 497.91 288.422C497.607 288.311 497.306 288.204 496.991 288.091C481.802 282.617 449.645 271.03 420.705 262.131C422.075 261.212 423.589 260.245 424.93 259.499C425.408 259.237 425.727 258.759 425.789 258.219C425.856 257.681 425.65 257.141 425.249 256.773C423.714 255.373 417.52 243.314 413.836 234.525C413.654 234.089 413.305 233.752 412.862 233.593C412.423 233.437 411.93 233.467 411.509 233.679C409.375 234.779 398.647 241.651 388.071 253.136C385.08 252.456 382.262 251.876 379.702 251.429C344.495 245.301 309.624 246.599 296.796 254.518C295.707 255.192 295.108 256.257 295.113 257.52C295.123 261.691 302.359 267.948 309.438 273.082C309.52 273.154 309.607 273.221 309.707 273.276C314.279 276.577 318.751 279.394 321.127 280.846C323.592 282.35 326.014 283.687 328.416 284.906C328.468 284.943 328.519 284.965 328.572 284.99C342.456 292.042 355.332 294.772 368.838 297.625L373.119 298.531C373.834 298.681 374.577 298.839 375.341 298.992C379.329 299.793 383.995 300.595 388.931 301.384C391.934 311.826 397.687 320.93 398.862 321.847C399.08 322.017 399.323 322.124 399.571 322.174C400.16 322.292 400.797 322.089 401.202 321.592C407.454 314.056 409.103 309.349 409.531 307.22C409.658 306.588 409.42 305.948 408.915 305.553C408.321 305.093 407.797 304.589 407.318 304.067C416.267 305.283 424.638 306.322 430.29 307.022L435.417 307.662C439.871 308.231 444.394 308.532 448.895 308.667C453.069 313.053 459.016 318.026 459.274 318.245C459.502 318.429 459.759 318.551 460.021 318.604C460.582 318.716 461.187 318.541 461.597 318.092C465.384 313.991 479.375 311.211 485.672 310.7C486.132 310.663 486.555 310.437 486.845 310.076C487.141 309.713 487.27 309.249 487.206 308.793C487.139 308.289 486.967 307.759 486.765 307.217C487.921 307.144 489.074 307.07 490.147 307.018C491.253 306.959 492.576 306.931 493.99 306.889C494.533 306.875 495.038 306.862 495.551 306.848C507.365 315.773 530.213 327.849 542.623 330.341C543.035 330.424 543.446 330.498 543.842 330.557C544.359 330.64 544.885 330.476 545.265 330.118C545.645 329.76 545.842 329.245 545.791 328.724Z" fill="#250DC5"/>
</g>
<g style="mix-blend-mode:multiply">
<path d="M281.39 187.614C284.473 177.623 278.505 170.31 273.499 168.765L254.335 162.851C253.938 167.886 252.975 173.087 251.352 178.344C249.73 183.601 247.595 188.441 245.085 192.823L264.249 198.738C269.256 200.283 278.306 197.605 281.39 187.614ZM247.731 171.755C252.729 150.044 246.015 131.013 231.888 116.77L206.711 139.776L212.922 161.013L247.731 171.755ZM244.648 181.746L210.152 171.1L192.716 185.125L200.392 218.27C220.169 214.503 236.516 202.561 244.648 181.746ZM233.772 110.94C239.44 90.2989 238.258 73.0858 214.791 65.8438L206.168 93.787C216.248 98.6652 227.013 105.117 233.772 110.94ZM198.839 223.86C188.532 225.471 177.503 225.039 166.375 222.732L157.751 250.675C181.307 257.945 191.89 244.232 198.839 223.86ZM223.91 109.863C215.672 103.637 205.778 98.625 194.759 95.2243C186.165 92.5723 177.874 91.1795 170.016 91.0078L177.62 125.498L199.444 132.233L223.91 109.863ZM189.911 219.481L182.485 187.183L160.661 180.448L134.022 204.028C140.82 208.6 148.75 212.334 157.759 215.115C168.712 218.495 179.649 219.953 189.91 219.48L189.911 219.481ZM202.754 163.432L196.518 142.273L171.878 134.668L154.827 148.556L161.087 169.636L185.727 177.241L202.754 163.432ZM166.819 125.242L159.39 91.5755C138.347 94.3666 121.547 107.183 112.877 130.138L147.608 140.856L166.819 125.242ZM151.596 174.572L144.525 150.847L109.794 140.129C104.118 163.571 110.461 183.32 125.691 197.439L151.596 174.572ZM119.083 198.306C116.003 195.061 113.299 191.537 111.022 187.783C108.083 182.934 105.898 177.646 104.473 172.084L75.0872 180.967C86.7549 201.242 104.069 202.251 119.083 198.306ZM150.839 87.911C140.729 77.1681 126.361 69.7243 106.45 79.3413L124.84 102.2C129.574 97.7128 134.919 94.1173 140.747 91.4645C143.975 89.9953 147.361 88.8094 150.839 87.911Z" fill="#250DC5"/>
</g>
<circle cx="553" cy="86" r="3" fill="#2400FF"/>
<circle cx="563.5" cy="77.5" r="5.5" fill="#2400FF"/>
<circle cx="345" cy="221" r="2" fill="#2400FF"/>
<circle cx="112" cy="314" r="2" fill="#2400FF"/>
<circle cx="52.9999" cy="133" r="2" fill="#2400FF"/>
<circle cx="47.4999" cy="123.5" r="2.5" fill="#2400FF"/>
<circle cx="57.4999" cy="65.5" r="2.5" fill="white"/>
<circle cx="57.4999" cy="66.5" r="3.5" fill="white"/>
<circle cx="404" cy="42" r="6" fill="white"/>
<circle cx="243" cy="338" r="6" fill="white"/>
<circle cx="515.5" cy="334.5" r="3.5" fill="white"/>
<circle cx="508" cy="345" r="2" fill="white"/>
<circle cx="481" cy="329" r="2" fill="white"/>
<circle cx="229.5" cy="334.5" r="3.5" fill="white"/>
<circle cx="211" cy="340" r="2" fill="white"/>
<circle cx="394.5" cy="54.5" r="3.5" fill="white"/>
<circle cx="58.4999" cy="75.5" r="1.5" fill="white"/>
<circle cx="60.9999" cy="83" r="1" fill="white"/>
<circle cx="342.5" cy="210.5" r="2.5" fill="#2400FF"/>
<circle cx="107.5" cy="304.5" r="2.5" fill="#2400FF"/>
<circle cx="350.5" cy="198.5" r="3.5" fill="#2400FF"/>
</g>
<defs>
<clipPath id="clip0_2372_849">
<rect width="636" height="379" fill="white"/>
</clipPath>
</defs>
</svg>
