<svg width="97" height="144" viewBox="0 0 97 144" fill="none" xmlns="http://www.w3.org/2000/svg">
<path d="M33.6399 117.737C32.7239 117.737 31.9604 118.197 31.6548 118.959L27.837 128.885L27.5314 129.954L27.2266 128.885L24.1724 119.264V119.112C23.8668 118.348 23.1032 117.737 22.1873 117.737H17.3003C16.2312 117.89 15.4676 118.653 15.4676 119.876C15.4676 120.18 15.62 120.486 15.62 120.79L16.2304 122.928L13.9397 128.883L13.4818 129.953L13.1762 128.883L10.2743 119.263V119.11H10.1219C9.96953 118.347 9.20597 117.736 8.28924 117.736H3.40307C2.33393 117.888 1.41797 118.651 1.41797 119.874C1.41797 120.179 1.57114 120.484 1.72278 120.788L8.89963 142.474C9.2052 143.389 9.96876 144 10.8855 144C11.8015 144 12.565 143.389 12.8706 142.626L17.9099 129.799L18.3679 128.577L18.6735 129.799L22.9493 142.474C23.1017 143.389 24.0184 144 24.9344 144C25.8511 144 26.6147 143.389 26.9203 142.626L35.4718 120.637C35.6242 120.332 35.6242 120.026 35.6242 119.721C35.625 118.653 34.7083 117.737 33.6399 117.737ZM69.832 117.737C68.9161 117.737 68.151 118.197 67.8469 118.959L64.0291 128.885L63.7243 129.954L63.4195 128.885L60.3645 119.264V119.112C60.0597 118.348 59.2954 117.737 58.3802 117.737H53.4925C52.4233 117.89 51.6598 118.653 51.6598 119.876C51.6598 120.18 51.6598 120.486 51.8122 120.79L52.4233 122.928L50.1319 128.883L49.6731 129.953L49.3683 128.883L46.4665 119.263L46.3141 119.11C46.1617 118.347 45.3981 117.736 44.4821 117.736H39.5952C38.5261 117.888 37.6101 118.651 37.6101 119.874C37.6101 120.179 37.7633 120.484 37.9157 120.788L45.0933 142.474C45.3981 143.389 46.1624 144 47.0792 144C47.9944 144 48.7587 143.389 49.0635 142.626L54.1044 129.799L54.5624 128.577L54.8672 129.799L59.1445 142.474C59.2961 143.389 60.2136 144 61.1288 144C62.0448 144 62.8099 143.389 63.1147 142.626L71.6655 120.637C71.8179 120.332 71.8179 120.026 71.8179 119.721C71.8171 118.653 70.9004 117.737 69.832 117.737ZM93.3484 117.737H76.3969C75.3278 117.737 74.5658 118.501 74.5658 119.57V142.018C74.7174 143.088 75.481 143.851 76.5501 143.851H81.2831C82.3522 143.851 83.1158 143.088 83.1158 142.018V131.482H90.141C91.0555 131.482 91.9729 130.566 91.9729 129.649C91.9729 128.58 91.0578 127.664 90.141 127.664H83.1158V121.709H93.3477C94.4176 121.709 95.3328 120.794 95.3328 119.724C95.3335 118.654 94.4183 117.737 93.3484 117.737ZM67.0826 45.9649C70.1376 49.3247 70.4416 59.709 78.2296 55.5856C82.8102 53.1425 82.8102 42.7583 76.5501 38.9405C71.5092 36.0386 68.7613 40.0096 66.9286 44.8958C66.777 45.3538 66.777 45.6593 67.0826 45.9649ZM55.0188 44.2854C51.6598 46.8816 49.5215 54.3641 43.5662 51.7678C38.68 49.3247 38.222 39.8564 46.6204 35.4282C52.4233 32.6796 55.3251 38.0245 55.3251 43.6742C55.3244 43.8266 55.172 44.1322 55.0188 44.2854ZM62.96 63.068C66.1666 62.7632 65.4031 59.709 62.96 59.0978C60.8217 58.3343 57.6151 57.8763 55.172 58.0287C51.0486 58.0287 51.2018 61.2353 53.3385 61.8465C55.0188 62.3045 56.0864 62.4569 57.4611 64.2896C58.6834 66.7334 58.073 63.526 62.96 63.068ZM78.078 9.92596C82.0482 3.20709 89.0727 4.42863 92.5856 7.78845C96.4042 11.4531 97.167 15.7289 95.6407 18.6307C93.6548 22.6009 88.4638 27.3354 85.104 22.7541C83.5784 20.6166 80.5226 18.1727 78.6907 17.5616C76.0921 16.34 75.6349 14.0486 78.078 9.92596Z" fill="#D7D6DB"/>
<path d="M94.1126 39.3988C93.8078 38.1772 93.1959 38.3296 93.1959 39.2464C93.5015 51.4626 86.1722 64.5963 70.5962 64.7487C66.626 64.7487 67.8483 71.0103 60.5175 67.8029C55.325 64.2907 52.2708 71.3151 48.6054 63.8327C47.6894 61.6944 46.4671 60.7785 44.94 60.3205C29.5164 56.5027 24.6294 35.2762 38.2211 18.173C40.8173 19.8533 41.8857 20.1581 44.7876 17.4095C46.1623 16.0348 48.7578 14.5076 50.1317 14.0497C53.3383 12.8281 55.1718 11.4534 52.2692 5.19252C50.933 2.24296 49.1126 0.671964 47.1729 0H41.9858C40.5027 0.441384 39.1199 1.16769 37.9147 2.13828C33.9445 5.34492 31.3483 10.3843 36.2337 16.3403C22.4919 25.6555 20.0488 37.1081 20.3536 47.1868C20.6584 57.7235 18.063 56.8075 21.4228 67.4966C21.7276 68.4133 20.9648 68.4133 20.5068 68.1085C6.15234 58.9458 -1.63567 30.8472 20.8124 15.4236C21.2704 14.9656 21.118 14.3545 19.2853 15.4236C-0.109316 25.6555 -1.94124 45.5073 1.2654 58.9458C2.79252 65.3591 0.50184 66.5814 2.94569 75.1329C8.7486 92.8472 13.6348 94.3728 20.6592 94.8323C33.3342 94.8323 24.6294 87.8079 25.2406 79.1031C25.2406 78.4912 25.8517 78.3396 26.1565 79.408C33.181 94.9832 38.0679 109.186 56.3926 107.811C66.9285 106.437 61.1256 101.245 60.362 98.1898C52.5748 72.3835 71.5091 66.275 66.1649 91.471C62.6535 105.979 73.8005 104.451 81.7409 99.259C89.8353 94.068 99.9155 58.7926 94.1126 39.3988ZM63.2646 70.0928C61.4319 74.675 52.4224 73.1478 52.1168 68.5665C52.1168 68.4141 52.4224 68.4141 52.4224 68.5665C56.545 69.4824 60.362 69.9404 62.9583 69.9404C63.1122 69.9404 63.2646 69.788 63.2646 70.0928Z" fill="#D7D6DB"/>
<path d="M23.7136 102.773C23.7126 103.947 23.2457 105.073 22.4155 105.903C21.5853 106.734 20.4596 107.201 19.2854 107.202C16.6892 107.202 14.7041 105.216 14.7041 102.773C14.7041 100.329 16.6892 98.1926 19.2854 98.1926C21.7285 98.1918 23.7136 100.329 23.7136 102.773ZM19.2854 97.4282C16.2312 97.4282 13.7881 99.7197 13.7881 102.772C13.7881 105.675 16.2312 108.117 19.2854 108.117C22.1872 108.117 24.6296 105.673 24.6296 102.772C24.6296 99.7189 22.1865 97.4282 19.2854 97.4282Z" fill="#D7D6DB"/>
<path d="M20.8123 103.537C20.6592 104.3 20.0488 104.759 19.4376 104.759C18.3685 104.759 17.6049 103.843 17.6049 102.773C17.6049 101.704 18.2161 100.789 19.2852 100.789C20.0488 100.789 20.6592 101.247 20.8123 101.858H21.5759C21.4227 100.637 20.5068 100.025 19.2852 100.025C17.7581 100.025 16.689 101.247 16.689 102.773C16.689 104.3 17.7581 105.522 19.4376 105.522C20.5068 105.522 21.2703 104.759 21.5759 103.537H20.8123ZM94.4182 109.798C94.4173 110.972 93.9505 112.098 93.12 112.929C92.2896 113.759 91.1636 114.226 89.9892 114.227C87.3929 114.227 85.4086 112.242 85.4086 109.798C85.4086 107.353 87.3929 105.216 89.9892 105.216C92.4315 105.216 94.4182 107.354 94.4182 109.798ZM89.9892 104.453C86.9342 104.453 84.4911 106.744 84.4911 109.798C84.4911 112.7 86.9342 115.142 89.9892 115.142C92.891 115.142 95.3334 112.698 95.3334 109.798C95.3334 106.743 92.8903 104.453 89.9892 104.453Z" fill="#D7D6DB"/>
<path d="M89.0729 110.103H89.8357L91.2112 112.395H92.1256L90.5993 110.103C91.3628 109.95 91.9732 109.644 91.9732 108.729C91.9732 107.659 91.3628 107.202 90.1413 107.202H88.3086V112.395H89.0714L89.0729 110.103ZM89.0729 109.493V107.966H89.9889C90.5993 107.966 91.2112 107.966 91.2112 108.578C91.2112 109.493 90.5993 109.493 89.9889 109.493H89.0729Z" fill="#D7D6DB"/>
</svg>
